<?xml version="1.0" encoding="UTF-8" standalone="no"?>
<!-- Created with Inkscape (http://www.inkscape.org/) -->

<svg
   xmlns:dc="http://purl.org/dc/elements/1.1/"
   xmlns:cc="http://creativecommons.org/ns#"
   xmlns:rdf="http://www.w3.org/1999/02/22-rdf-syntax-ns#"
   xmlns:svg="http://www.w3.org/2000/svg"
   xmlns="http://www.w3.org/2000/svg"
   xmlns:sodipodi="http://sodipodi.sourceforge.net/DTD/sodipodi-0.dtd"
   xmlns:inkscape="http://www.inkscape.org/namespaces/inkscape"
   width="500"
   height="500"
   viewBox="0 0 132.29166 132.29167"
   version="1.1"
   id="svg8"
   inkscape:version="0.92.3 (2405546, 2018-03-11)"
   sodipodi:docname="character6.svg">
  <defs
     id="defs2">
    <clipPath
       clipPathUnits="userSpaceOnUse"
       id="clipPath5421">
      <rect
         style="opacity:1;fill:#33996c;fill-opacity:1;stroke:none;stroke-width:0.66686082;stroke-linecap:round;stroke-linejoin:round;stroke-miterlimit:4;stroke-dasharray:none;stroke-dashoffset:0;stroke-opacity:1;paint-order:normal"
         id="rect5423"
         width="799.09705"
         height="449.44067"
         x="0.51021183"
         y="75.338379" />
    </clipPath>
    <clipPath
       id="clipPath7151"
       clipPathUnits="userSpaceOnUse">
      <path
         inkscape:connector-curvature="0"
         id="path7149"
         d="M 0,800 H 800 V 0 H 0 Z" />
    </clipPath>
    <clipPath
       id="clipPath7387"
       clipPathUnits="userSpaceOnUse">
      <path
         inkscape:connector-curvature="0"
         id="path7385"
         d="M 311.99,457.865 H 511.85 V 429.577 H 311.99 Z" />
    </clipPath>
    <clipPath
       id="clipPath7443"
       clipPathUnits="userSpaceOnUse">
      <path
         inkscape:connector-curvature="0"
         id="path7441"
         d="m 418.079,561.126 c 0,-8.146 6.606,-14.528 14.75,-14.75 v 0 c 7.031,-0.191 14.596,6.578 14.75,14.75 v 0 c 0.152,8.145 -6.604,14.75 -14.75,14.75 v 0 c -8.147,0 -14.75,-6.604 -14.75,-14.75" />
    </clipPath>
    <clipPath
       id="clipPath7455"
       clipPathUnits="userSpaceOnUse">
      <path
         inkscape:connector-curvature="0"
         id="path7453"
         d="M 0,800 H 800 V 0 H 0 Z" />
    </clipPath>
    <clipPath
       id="clipPath7463"
       clipPathUnits="userSpaceOnUse">
      <path
         inkscape:connector-curvature="0"
         id="path7461"
         d="m 356.574,530.523 h 25.521 v -19.679 h -25.521 z" />
    </clipPath>
    <clipPath
       id="clipPath7479"
       clipPathUnits="userSpaceOnUse">
      <path
         inkscape:connector-curvature="0"
         id="path7477"
         d="m 452.661,530.523 h 25.52 v -19.679 h -25.52 z" />
    </clipPath>
    <clipPath
       id="clipPath7555"
       clipPathUnits="userSpaceOnUse">
      <path
         inkscape:connector-curvature="0"
         id="path7553"
         d="M 52.3269,460.399 H 268.994 V 429.732 H 52.3269 Z" />
    </clipPath>
    <clipPath
       id="clipPath7663"
       clipPathUnits="userSpaceOnUse">
      <path
         inkscape:connector-curvature="0"
         id="path7661"
         d="m 105.985,673.05 c -0.044,-8.864 7.09,-16.084 15.936,-16.127 v 0 c 8.845,-0.045 16.052,7.104 16.096,15.967 v 0 c 0.044,8.864 -7.091,16.083 -15.936,16.127 v 0 c -0.028,10e-4 -0.054,10e-4 -0.082,10e-4 v 0 c -8.807,-10e-4 -15.97,-7.133 -16.014,-15.968" />
    </clipPath>
    <clipPath
       id="clipPath7679"
       clipPathUnits="userSpaceOnUse">
      <path
         inkscape:connector-curvature="0"
         id="path7677"
         d="M 0,800 H 800 V 0 H 0 Z" />
    </clipPath>
    <clipPath
       id="clipPath7691"
       clipPathUnits="userSpaceOnUse">
      <path
         inkscape:connector-curvature="0"
         id="path7689"
         d="m 157.33,674.489 c -0.044,-8.863 7.091,-16.084 15.936,-16.128 v 0 c 8.846,-0.043 16.053,7.105 16.097,15.968 v 0 c 0.044,8.863 -7.091,16.083 -15.937,16.128 v 0 c -0.027,0 -0.053,0 -0.081,0 v 0 c -8.808,-10e-4 -15.971,-7.134 -16.015,-15.968" />
    </clipPath>
    <clipPath
       id="clipPath7707"
       clipPathUnits="userSpaceOnUse">
      <path
         inkscape:connector-curvature="0"
         id="path7705"
         d="M 0,800 H 800 V 0 H 0 Z" />
    </clipPath>
    <clipPath
       id="clipPath7723"
       clipPathUnits="userSpaceOnUse">
      <path
         inkscape:connector-curvature="0"
         id="path7721"
         d="m 184.792,650.86 c -16.758,-0.389 -21.807,-19.008 -38.325,-18.689 v 0 c -16.519,0.317 -27.174,17.669 -39.209,17.548 v 0 c -22.186,-0.222 -13.602,-54.338 39.75,-51.063 v 0 c 53.144,3.261 54.532,52.208 37.98,52.206 v 0 c -0.065,0 -0.131,0 -0.196,-0.002" />
    </clipPath>
    <clipPath
       id="clipPath7767"
       clipPathUnits="userSpaceOnUse">
      <path
         inkscape:connector-curvature="0"
         id="path7765"
         d="M 0,800 H 800 V 0 H 0 Z" />
    </clipPath>
    <clipPath
       id="clipPath7775"
       clipPathUnits="userSpaceOnUse">
      <path
         inkscape:connector-curvature="0"
         id="path7773"
         d="M 66.4852,715.148 H 231.517 V 560.89 H 66.4852 Z" />
    </clipPath>
    <clipPath
       id="clipPath7871"
       clipPathUnits="userSpaceOnUse">
      <path
         inkscape:connector-curvature="0"
         id="path7869"
         d="M 552.203,461.335 H 729.96 V 433.047 H 552.203 Z" />
    </clipPath>
    <clipPath
       id="clipPath7971"
       clipPathUnits="userSpaceOnUse">
      <path
         inkscape:connector-curvature="0"
         id="path7969"
         d="M 583.198,756.471 H 691.196 V 533.74 H 583.198 Z" />
    </clipPath>
    <clipPath
       id="clipPath8031"
       clipPathUnits="userSpaceOnUse">
      <path
         inkscape:connector-curvature="0"
         id="path8029"
         d="m 628.536,567.325 c 0,-6.929 5.617,-12.546 12.546,-12.546 v 0 c 6.929,0 12.547,5.617 12.547,12.546 v 0 c 0,6.929 -5.618,12.547 -12.547,12.547 v 0 c -6.929,0 -12.546,-5.618 -12.546,-12.547" />
    </clipPath>
    <clipPath
       id="clipPath8043"
       clipPathUnits="userSpaceOnUse">
      <path
         inkscape:connector-curvature="0"
         id="path8041"
         d="M 0,800 H 800 V 0 H 0 Z" />
    </clipPath>
    <clipPath
       id="clipPath8083"
       clipPathUnits="userSpaceOnUse">
      <path
         inkscape:connector-curvature="0"
         id="path8081"
         d="m 619.584,672.371 c 0,-6.929 5.617,-12.546 12.546,-12.546 v 0 c 6.929,0 12.547,5.617 12.547,12.546 v 0 c 0,6.929 -5.618,12.547 -12.547,12.547 v 0 c -6.929,0 -12.546,-5.618 -12.546,-12.547" />
    </clipPath>
    <clipPath
       id="clipPath8095"
       clipPathUnits="userSpaceOnUse">
      <path
         inkscape:connector-curvature="0"
         id="path8093"
         d="M 0,800 H 800 V 0 H 0 Z" />
    </clipPath>
    <clipPath
       id="clipPath8115"
       clipPathUnits="userSpaceOnUse">
      <path
         inkscape:connector-curvature="0"
         id="path8113"
         d="M 312.797,97.0714 H 502.869 V 66.4047 H 312.797 Z" />
    </clipPath>
    <clipPath
       id="clipPath8259"
       clipPathUnits="userSpaceOnUse">
      <path
         inkscape:connector-curvature="0"
         id="path8257"
         d="m 356.969,247.095 c 0,-5.969 4.838,-10.807 10.808,-10.807 v 0 c 5.969,0 10.807,4.838 10.807,10.807 v 0 c 0,5.97 -4.838,10.808 -10.807,10.808 v 0 c -5.97,0 -10.808,-4.838 -10.808,-10.808" />
    </clipPath>
    <clipPath
       id="clipPath8271"
       clipPathUnits="userSpaceOnUse">
      <path
         inkscape:connector-curvature="0"
         id="path8269"
         d="M 0,800 H 800 V 0 H 0 Z" />
    </clipPath>
    <clipPath
       id="clipPath8287"
       clipPathUnits="userSpaceOnUse">
      <path
         inkscape:connector-curvature="0"
         id="path8285"
         d="m 428.578,245.846 c 0,-5.969 4.839,-10.808 10.808,-10.808 v 0 c 5.969,0 10.808,4.839 10.808,10.808 v 0 c 0,5.969 -4.839,10.808 -10.808,10.808 v 0 c -5.969,0 -10.808,-4.839 -10.808,-10.808" />
    </clipPath>
    <clipPath
       id="clipPath8299"
       clipPathUnits="userSpaceOnUse">
      <path
         inkscape:connector-curvature="0"
         id="path8297"
         d="M 0,800 H 800 V 0 H 0 Z" />
    </clipPath>
    <clipPath
       id="clipPath8315"
       clipPathUnits="userSpaceOnUse">
      <path
         inkscape:connector-curvature="0"
         id="path8313"
         d="m 396.995,287.47 c 0,-5.426 4.398,-9.825 9.825,-9.825 v 0 c 5.426,0 9.825,4.399 9.825,9.825 v 0 c 0,5.426 -4.399,9.825 -9.825,9.825 v 0 c -5.427,0 -9.825,-4.399 -9.825,-9.825" />
    </clipPath>
    <clipPath
       id="clipPath8327"
       clipPathUnits="userSpaceOnUse">
      <path
         inkscape:connector-curvature="0"
         id="path8325"
         d="M 0,800 H 800 V 0 H 0 Z" />
    </clipPath>
    <clipPath
       id="clipPath8335"
       clipPathUnits="userSpaceOnUse">
      <path
         inkscape:connector-curvature="0"
         id="path8333"
         d="M 559.168,97.0714 H 749.24 V 66.4047 H 559.168 Z" />
    </clipPath>
    <clipPath
       id="clipPath8551"
       clipPathUnits="userSpaceOnUse">
      <path
         inkscape:connector-curvature="0"
         id="path8549"
         d="m 611.91,240.883 h 19.298 V 228.907 H 611.91 Z" />
    </clipPath>
    <clipPath
       id="clipPath8567"
       clipPathUnits="userSpaceOnUse">
      <path
         inkscape:connector-curvature="0"
         id="path8565"
         d="m 696.496,242.184 h 19.186 v -11.921 h -19.186 z" />
    </clipPath>
    <clipPath
       id="clipPath8583"
       clipPathUnits="userSpaceOnUse">
      <path
         inkscape:connector-curvature="0"
         id="path8581"
         d="M 59.1069,97.0714 H 249.179 V 66.4047 H 59.1069 Z" />
    </clipPath>
    <clipPath
       id="clipPath8679"
       clipPathUnits="userSpaceOnUse">
      <path
         inkscape:connector-curvature="0"
         id="path8677"
         d="m 139.007,320.972 c 0,-7.718 6.257,-13.975 13.975,-13.975 v 0 c 7.718,0 13.976,6.257 13.976,13.975 v 0 c 0,7.719 -6.258,13.976 -13.976,13.976 v 0 c -7.718,0 -13.975,-6.257 -13.975,-13.976" />
    </clipPath>
    <clipPath
       id="clipPath8691"
       clipPathUnits="userSpaceOnUse">
      <path
         inkscape:connector-curvature="0"
         id="path8689"
         d="M 0,800 H 800 V 0 H 0 Z" />
    </clipPath>
    <clipPath
       id="clipPath8811"
       clipPathUnits="userSpaceOnUse">
      <path
         inkscape:connector-curvature="0"
         id="path8809"
         d="m 124.031,202.56 c 0,-7.719 6.257,-13.976 13.975,-13.976 v 0 c 7.718,0 13.905,6.258 13.975,13.976 v 0 c 0.069,7.612 -6.215,13.912 -13.975,13.975 v 0 c -0.039,0.001 -0.077,0.001 -0.116,0.001 v 0 c -7.664,-0.001 -13.859,-6.296 -13.859,-13.976" />
    </clipPath>
    <clipPath
       id="clipPath8823"
       clipPathUnits="userSpaceOnUse">
      <path
         inkscape:connector-curvature="0"
         id="path8821"
         d="M 0,800 H 800 V 0 H 0 Z" />
    </clipPath>
    <clipPath
       id="clipPath13912"
       clipPathUnits="userSpaceOnUse">
      <path
         inkscape:connector-curvature="0"
         id="path13910"
         d="M 0,500 H 500 V 0 H 0 Z" />
    </clipPath>
    <clipPath
       id="clipPath16460"
       clipPathUnits="userSpaceOnUse">
      <path
         inkscape:connector-curvature="0"
         id="path16458"
         d="M 0,500 H 500 V 0 H 0 Z" />
    </clipPath>
    <filter
       style="color-interpolation-filters:sRGB"
       inkscape:label="Invert"
       id="filter39200">
      <feColorMatrix
         type="hueRotate"
         values="180"
         result="color1"
         id="feColorMatrix39196" />
      <feColorMatrix
         values="-1 0 0 0 1 0 -1 0 0 1 0 0 -1 0 1 -0.21 -0.72 -0.07 2 0 "
         result="color2"
         id="feColorMatrix39198" />
    </filter>
    <filter
       style="color-interpolation-filters:sRGB"
       inkscape:label="Invert"
       id="filter39206">
      <feColorMatrix
         type="hueRotate"
         values="180"
         result="color1"
         id="feColorMatrix39202" />
      <feColorMatrix
         values="-1 0 0 0 1 0 -1 0 0 1 0 0 -1 0 1 -0.21 -0.72 -0.07 2 0 "
         result="color2"
         id="feColorMatrix39204" />
    </filter>
    <filter
       style="color-interpolation-filters:sRGB"
       inkscape:label="Invert"
       id="filter39223">
      <feColorMatrix
         type="hueRotate"
         values="180"
         result="color1"
         id="feColorMatrix39219" />
      <feColorMatrix
         values="-1 0 0 0 1 0 -1 0 0 1 0 0 -1 0 1 -0.21 -0.72 -0.07 2 0 "
         result="color2"
         id="feColorMatrix39221" />
    </filter>
    <filter
       style="color-interpolation-filters:sRGB"
       inkscape:label="Drop Shadow"
       id="filter39313">
      <feFlood
         flood-opacity="0.498039"
         flood-color="rgb(0,0,0)"
         result="flood"
         id="feFlood39303" />
      <feComposite
         in="flood"
         in2="SourceGraphic"
         operator="in"
         result="composite1"
         id="feComposite39305" />
      <feGaussianBlur
         in="composite1"
         stdDeviation="5.9"
         result="blur"
         id="feGaussianBlur39307" />
      <feOffset
         dx="0"
         dy="0"
         result="offset"
         id="feOffset39309" />
      <feComposite
         in="SourceGraphic"
         in2="offset"
         operator="over"
         result="composite2"
         id="feComposite39311" />
    </filter>
    <clipPath
       id="clipPath8583-7"
       clipPathUnits="userSpaceOnUse">
      <path
         inkscape:connector-curvature="0"
         id="path8581-0"
         d="M 59.1069,97.0714 H 249.179 V 66.4047 H 59.1069 Z" />
    </clipPath>
    <clipPath
       id="clipPath8679-0"
       clipPathUnits="userSpaceOnUse">
      <path
         inkscape:connector-curvature="0"
         id="path8677-6"
         d="m 139.007,320.972 c 0,-7.718 6.257,-13.975 13.975,-13.975 v 0 c 7.718,0 13.976,6.257 13.976,13.975 v 0 c 0,7.719 -6.258,13.976 -13.976,13.976 v 0 c -7.718,0 -13.975,-6.257 -13.975,-13.976" />
    </clipPath>
    <clipPath
       id="clipPath8691-1"
       clipPathUnits="userSpaceOnUse">
      <path
         inkscape:connector-curvature="0"
         id="path8689-8"
         d="M 0,800 H 800 V 0 H 0 Z" />
    </clipPath>
    <clipPath
       id="clipPath8811-9"
       clipPathUnits="userSpaceOnUse">
      <path
         inkscape:connector-curvature="0"
         id="path8809-7"
         d="m 124.031,202.56 c 0,-7.719 6.257,-13.976 13.975,-13.976 v 0 c 7.718,0 13.905,6.258 13.975,13.976 v 0 c 0.069,7.612 -6.215,13.912 -13.975,13.975 v 0 c -0.039,0.001 -0.077,0.001 -0.116,0.001 v 0 c -7.664,-0.001 -13.859,-6.296 -13.859,-13.976" />
    </clipPath>
    <clipPath
       id="clipPath8823-2"
       clipPathUnits="userSpaceOnUse">
      <path
         inkscape:connector-curvature="0"
         id="path8821-0"
         d="M 0,800 H 800 V 0 H 0 Z" />
    </clipPath>
    <clipPath
       id="clipPath8115-8"
       clipPathUnits="userSpaceOnUse">
      <path
         inkscape:connector-curvature="0"
         id="path8113-1"
         d="M 312.797,97.0714 H 502.869 V 66.4047 H 312.797 Z" />
    </clipPath>
    <clipPath
       id="clipPath8259-5"
       clipPathUnits="userSpaceOnUse">
      <path
         inkscape:connector-curvature="0"
         id="path8257-8"
         d="m 356.969,247.095 c 0,-5.969 4.838,-10.807 10.808,-10.807 v 0 c 5.969,0 10.807,4.838 10.807,10.807 v 0 c 0,5.97 -4.838,10.808 -10.807,10.808 v 0 c -5.97,0 -10.808,-4.838 -10.808,-10.808" />
    </clipPath>
    <clipPath
       id="clipPath8271-8"
       clipPathUnits="userSpaceOnUse">
      <path
         inkscape:connector-curvature="0"
         id="path8269-4"
         d="M 0,800 H 800 V 0 H 0 Z" />
    </clipPath>
    <clipPath
       id="clipPath8287-5"
       clipPathUnits="userSpaceOnUse">
      <path
         inkscape:connector-curvature="0"
         id="path8285-8"
         d="m 428.578,245.846 c 0,-5.969 4.839,-10.808 10.808,-10.808 v 0 c 5.969,0 10.808,4.839 10.808,10.808 v 0 c 0,5.969 -4.839,10.808 -10.808,10.808 v 0 c -5.969,0 -10.808,-4.839 -10.808,-10.808" />
    </clipPath>
    <clipPath
       id="clipPath8299-1"
       clipPathUnits="userSpaceOnUse">
      <path
         inkscape:connector-curvature="0"
         id="path8297-9"
         d="M 0,800 H 800 V 0 H 0 Z" />
    </clipPath>
    <clipPath
       id="clipPath8315-9"
       clipPathUnits="userSpaceOnUse">
      <path
         inkscape:connector-curvature="0"
         id="path8313-8"
         d="m 396.995,287.47 c 0,-5.426 4.398,-9.825 9.825,-9.825 v 0 c 5.426,0 9.825,4.399 9.825,9.825 v 0 c 0,5.426 -4.399,9.825 -9.825,9.825 v 0 c -5.427,0 -9.825,-4.399 -9.825,-9.825" />
    </clipPath>
    <clipPath
       id="clipPath7387-0"
       clipPathUnits="userSpaceOnUse">
      <path
         inkscape:connector-curvature="0"
         id="path7385-1"
         d="M 311.99,457.865 H 511.85 V 429.577 H 311.99 Z" />
    </clipPath>
    <clipPath
       id="clipPath7443-5"
       clipPathUnits="userSpaceOnUse">
      <path
         inkscape:connector-curvature="0"
         id="path7441-9"
         d="m 418.079,561.126 c 0,-8.146 6.606,-14.528 14.75,-14.75 v 0 c 7.031,-0.191 14.596,6.578 14.75,14.75 v 0 c 0.152,8.145 -6.604,14.75 -14.75,14.75 v 0 c -8.147,0 -14.75,-6.604 -14.75,-14.75" />
    </clipPath>
    <clipPath
       id="clipPath7463-5"
       clipPathUnits="userSpaceOnUse">
      <path
         inkscape:connector-curvature="0"
         id="path7461-0"
         d="m 356.574,530.523 h 25.521 v -19.679 h -25.521 z" />
    </clipPath>
    <clipPath
       id="clipPath7479-0"
       clipPathUnits="userSpaceOnUse">
      <path
         inkscape:connector-curvature="0"
         id="path7477-6"
         d="m 452.661,530.523 h 25.52 v -19.679 h -25.52 z" />
    </clipPath>
    <clipPath
       id="clipPath7871-9"
       clipPathUnits="userSpaceOnUse">
      <path
         inkscape:connector-curvature="0"
         id="path7869-1"
         d="M 552.203,461.335 H 729.96 V 433.047 H 552.203 Z" />
    </clipPath>
    <clipPath
       id="clipPath7971-1"
       clipPathUnits="userSpaceOnUse">
      <path
         inkscape:connector-curvature="0"
         id="path7969-8"
         d="M 583.198,756.471 H 691.196 V 533.74 H 583.198 Z" />
    </clipPath>
    <clipPath
       id="clipPath8031-8"
       clipPathUnits="userSpaceOnUse">
      <path
         inkscape:connector-curvature="0"
         id="path8029-0"
         d="m 628.536,567.325 c 0,-6.929 5.617,-12.546 12.546,-12.546 v 0 c 6.929,0 12.547,5.617 12.547,12.546 v 0 c 0,6.929 -5.618,12.547 -12.547,12.547 v 0 c -6.929,0 -12.546,-5.618 -12.546,-12.547" />
    </clipPath>
    <clipPath
       id="clipPath8043-5"
       clipPathUnits="userSpaceOnUse">
      <path
         inkscape:connector-curvature="0"
         id="path8041-9"
         d="M 0,800 H 800 V 0 H 0 Z" />
    </clipPath>
    <clipPath
       id="clipPath8083-0"
       clipPathUnits="userSpaceOnUse">
      <path
         inkscape:connector-curvature="0"
         id="path8081-8"
         d="m 619.584,672.371 c 0,-6.929 5.617,-12.546 12.546,-12.546 v 0 c 6.929,0 12.547,5.617 12.547,12.546 v 0 c 0,6.929 -5.618,12.547 -12.547,12.547 v 0 c -6.929,0 -12.546,-5.618 -12.546,-12.547" />
    </clipPath>
    <clipPath
       id="clipPath8335-9"
       clipPathUnits="userSpaceOnUse">
      <path
         inkscape:connector-curvature="0"
         id="path8333-2"
         d="M 559.168,97.0714 H 749.24 V 66.4047 H 559.168 Z" />
    </clipPath>
    <clipPath
       id="clipPath8551-1"
       clipPathUnits="userSpaceOnUse">
      <path
         inkscape:connector-curvature="0"
         id="path8549-4"
         d="m 611.91,240.883 h 19.298 V 228.907 H 611.91 Z" />
    </clipPath>
    <clipPath
       id="clipPath8567-2"
       clipPathUnits="userSpaceOnUse">
      <path
         inkscape:connector-curvature="0"
         id="path8565-5"
         d="m 696.496,242.184 h 19.186 v -11.921 h -19.186 z" />
    </clipPath>
  </defs>
  <sodipodi:namedview
     id="base"
     pagecolor="#ffffff"
     bordercolor="#666666"
     borderopacity="1.0"
     inkscape:pageopacity="0.0"
     inkscape:pageshadow="2"
     inkscape:zoom="0.60498047"
     inkscape:cx="975.36571"
     inkscape:cy="451.88237"
     inkscape:document-units="mm"
     inkscape:current-layer="layer1"
     showgrid="false"
     units="px"
     inkscape:snap-page="true"
     inkscape:snap-bbox="true"
     showguides="true"
     inkscape:guide-bbox="true"
     inkscape:snap-global="false"
     inkscape:window-width="1920"
     inkscape:window-height="1017"
     inkscape:window-x="-8"
     inkscape:window-y="-8"
     inkscape:window-maximized="1" />
  <metadata
     id="metadata5">
    <rdf:RDF>
      <cc:Work
         rdf:about="">
        <dc:format>image/svg+xml</dc:format>
        <dc:type
           rdf:resource="http://purl.org/dc/dcmitype/StillImage" />
        <dc:title></dc:title>
      </cc:Work>
    </rdf:RDF>
  </metadata>
  <g
     inkscape:label="Layer 1"
     inkscape:groupmode="layer"
     id="layer1"
     transform="translate(0,-164.70832)">
    <flowRoot
       xml:space="preserve"
       id="flowRoot5610"
       style="font-style:normal;font-variant:normal;font-weight:normal;font-stretch:normal;font-size:16px;line-height:1.25;font-family:Arial;-inkscape-font-specification:'Arial, Normal';font-variant-ligatures:normal;font-variant-caps:normal;font-variant-numeric:normal;font-feature-settings:normal;text-align:center;letter-spacing:0px;word-spacing:0px;writing-mode:lr-tb;text-anchor:middle;fill:#000000;fill-opacity:1;stroke:none"
       transform="matrix(0.07000432,0,0,0.07000432,-44.736132,382.756)"><flowRegion
         id="flowRegion5612"><rect
           id="rect5614"
           width="715.31128"
           height="203.37282"
           x="1084.655"
           y="1360.5143" /></flowRegion><flowPara
         id="flowPara5616" /></flowRoot>    <g
       id="g7383"
       transform="matrix(0.09333909,0,0,-0.09333909,153.40779,584.98859)" />
    <g
       id="g8331"
       transform="matrix(0.09333909,0,0,-0.09333909,153.40779,584.98859)" />
    <g
       id="g8547"
       transform="matrix(0.09333909,0,0,-0.09333909,153.40779,584.98859)" />
    <g
       id="g8563"
       transform="matrix(0.09333909,0,0,-0.09333909,153.40779,584.98859)" />
    <g
       id="g8579"
       transform="matrix(0.09333909,0,0,-0.09333909,153.40779,584.98859)" />
    <g
       id="g13589"
       transform="matrix(1.1934781,0,0,1.1934781,-1106.991,-600.69564)">
      <g
         transform="matrix(0.35277777,0,0,-0.35277777,748.89068,775.59387)"
         id="g8343">
        <g
           clip-path="url(#clipPath8335-9)"
           id="g8341"
           style="opacity:0.22999603">
          <g
             transform="translate(749.24,81.738)"
             id="g8339">
            <path
               d="m 0,0 c 0,-8.468 -42.549,-15.333 -95.036,-15.333 -52.487,0 -95.036,6.865 -95.036,15.333 0,8.468 42.549,15.333 95.036,15.333 C -42.549,15.333 0,8.468 0,0"
               style="fill:#045495;fill-opacity:1;fill-rule:nonzero;stroke:none"
               id="path8337"
               inkscape:connector-curvature="0" />
          </g>
        </g>
      </g>
      <path
         d="m 967.84277,665.864 c 0,0 -6.88869,-2.04893 -7.85001,-5.43031 -0.96132,-3.38102 1.68204,-7.70643 1.68204,-7.70643 0,0 4.16525,2.80353 6.64845,0.80081 2.48321,-2.00237 2.80388,-5.92738 1.12148,-6.64845 -1.68204,-0.72073 -3.12384,2.26624 -3.925,2.93546 -0.80081,0.66922 -2.64337,0 -2.64337,0 0,0 3.68477,-5.33859 1.52189,-7.26087 -2.16253,-1.92264 -5.04649,-0.48084 -6.72853,1.52188 -1.68205,2.00272 -3.36444,7.76993 -3.36444,7.76993 0,0 -2.08245,-0.80116 -2.08245,-2.80352 0,-2.00272 0.88088,-4.80625 -1.36172,-5.36681 -2.24296,-0.56092 -3.60469,3.49885 -3.28436,6.27521 0.32032,2.77636 2.40312,5.06765 5.84764,5.16361 0,0 -0.88124,4.2612 1.12148,7.22489 2.00237,2.96404 9.05157,6.80896 12.01526,6.56837 2.96368,-0.24025 1.28164,-3.04377 1.28164,-3.04377"
         style="fill:#ffb600;fill-opacity:1;fill-rule:nonzero;stroke:none;stroke-width:0.35277778"
         id="path8347"
         inkscape:connector-curvature="0" />
      <path
         d="m 958.63096,643.43527 c 0,0 0.42051,-0.0861 1.0601,-0.11289 0.15981,-0.008 0.33408,-0.012 0.51787,-0.006 0.1838,0.003 0.37889,0.012 0.57962,0.0307 0.20038,0.0258 0.40887,0.0462 0.61912,0.0875 0.21026,0.0367 0.42051,0.097 0.63218,0.15134 0.20673,0.0748 0.41593,0.14041 0.61242,0.23531 0.20215,0.0797 0.38312,0.20002 0.56163,0.30409 0.16827,0.12347 0.33796,0.23178 0.47025,0.37112 0.0684,0.0653 0.13511,0.12877 0.20002,0.19086 0.0561,0.0691 0.11042,0.13617 0.16263,0.20073 0.10937,0.12347 0.18415,0.25576 0.25153,0.37006 0.0713,0.11183 0.1196,0.21625 0.15311,0.30551 0.0681,0.17497 0.10724,0.27516 0.10724,0.27516 0,0 -0.0713,-0.0794 -0.19579,-0.21872 -0.0571,-0.0713 -0.13194,-0.15346 -0.22613,-0.23883 -0.0907,-0.0878 -0.18556,-0.1905 -0.30797,-0.28399 -0.0586,-0.0487 -0.11924,-0.0991 -0.18168,-0.15099 -0.0674,-0.0469 -0.13618,-0.0949 -0.20708,-0.14428 -0.13653,-0.10478 -0.3041,-0.18168 -0.46073,-0.28222 -0.1711,-0.079 -0.34078,-0.16934 -0.52564,-0.2406 -0.17886,-0.0826 -0.37394,-0.13899 -0.56409,-0.20426 -0.19509,-0.0554 -0.38806,-0.11747 -0.58526,-0.15734 -0.19368,-0.0543 -0.39017,-0.0889 -0.57891,-0.12841 -0.19085,-0.0289 -0.37394,-0.0741 -0.55104,-0.0984 -0.17568,-0.0282 -0.34431,-0.0554 -0.49918,-0.0804 -0.62195,-0.0935 -1.04422,-0.17462 -1.04422,-0.17462"
         style="fill:#ff9100;fill-opacity:1;fill-rule:nonzero;stroke:none;stroke-width:0.35277778"
         id="path8351"
         inkscape:connector-curvature="0" />
      <path
         d="m 956.70847,646.79957 c 0,0 0.10477,-0.0279 0.28328,-0.0755 0.18203,-0.0406 0.44873,-0.0847 0.77082,-0.0907 0.16192,-0.0106 0.33549,10e-4 0.5207,0.01 0.18309,0.0194 0.37924,0.0307 0.57679,0.0695 0.19826,0.0363 0.40323,0.0758 0.60784,0.12983 0.20567,0.0508 0.40781,0.12453 0.61313,0.18873 0.19861,0.0822 0.40146,0.15452 0.59196,0.248 0.19438,0.084 0.37606,0.18768 0.55033,0.28964 0.17604,0.0981 0.33584,0.21237 0.48648,0.31926 0.14605,0.11536 0.28857,0.21519 0.40323,0.33196 0.2413,0.21484 0.41275,0.42545 0.52211,0.57679 0.10265,0.15664 0.16122,0.24589 0.16122,0.24589 0,0 -0.0857,-0.0624 -0.23566,-0.17145 -0.14887,-0.10724 -0.36407,-0.25188 -0.6283,-0.40922 -0.12876,-0.0825 -0.28187,-0.15346 -0.43109,-0.24307 -0.15875,-0.0765 -0.32068,-0.16404 -0.49354,-0.24518 -0.17286,-0.0811 -0.35313,-0.16016 -0.53763,-0.23847 -0.18133,-0.085 -0.37536,-0.14923 -0.56445,-0.22402 -0.19226,-0.0656 -0.38205,-0.14146 -0.57502,-0.19438 -0.1898,-0.0663 -0.37994,-0.11888 -0.5648,-0.16827 -0.18486,-0.0473 -0.36407,-0.0938 -0.53587,-0.13335 -0.17251,-0.0279 -0.33479,-0.0766 -0.48719,-0.0946 -0.30374,-0.0533 -0.56162,-0.0818 -0.74436,-0.0981 -0.18274,-0.0145 -0.28998,-0.0229 -0.28998,-0.0229"
         style="fill:#ff9100;fill-opacity:1;fill-rule:nonzero;stroke:none;stroke-width:0.35277778"
         id="path8355"
         inkscape:connector-curvature="0" />
      <path
         d="m 955.18651,650.40419 c 0,0 0.10477,-0.0141 0.28293,-0.0381 0.0917,-0.009 0.20214,-0.0205 0.32808,-0.0332 0.12735,-0.0152 0.27093,-0.0212 0.42827,-0.008 0.15699,0.008 0.32914,0.0141 0.51083,0.0303 0.17921,0.025 0.36759,0.0674 0.56197,0.11325 0.0963,0.025 0.19756,0.0427 0.29457,0.0751 0.096,0.0356 0.19262,0.072 0.29034,0.1083 0.19085,0.0808 0.39687,0.15169 0.58102,0.24377 0.18521,0.0921 0.36865,0.19085 0.54928,0.28751 0.17956,0.0991 0.35172,0.20532 0.5154,0.31398 0.16299,0.11077 0.32174,0.21378 0.45967,0.33408 0.14217,0.11253 0.27446,0.22119 0.38312,0.34043 0.11395,0.11112 0.21414,0.21625 0.28751,0.32702 0.0741,0.10866 0.14923,0.1898 0.18204,0.28222 0.0716,0.16969 0.11253,0.2667 0.11253,0.2667 0,0 -0.072,-0.0744 -0.1972,-0.20425 -0.0519,-0.0688 -0.15099,-0.12559 -0.24306,-0.20285 -0.0903,-0.0794 -0.20744,-0.15311 -0.33338,-0.23495 -0.12206,-0.0847 -0.26493,-0.16404 -0.41275,-0.25153 -0.14534,-0.0896 -0.3115,-0.16828 -0.47343,-0.26247 -0.16757,-0.0871 -0.34043,-0.17709 -0.51576,-0.26811 -0.17709,-0.0903 -0.3563,-0.18239 -0.5401,-0.26917 -0.17992,-0.0963 -0.36195,-0.16228 -0.5401,-0.24447 -0.0882,-0.0416 -0.17569,-0.0829 -0.26247,-0.12348 -0.0875,-0.0377 -0.1785,-0.0603 -0.26599,-0.0907 -0.1771,-0.0519 -0.34255,-0.12771 -0.50765,-0.1718 -0.16722,-0.0349 -0.32456,-0.0769 -0.47131,-0.11325 -0.14605,-0.042 -0.28293,-0.0688 -0.40605,-0.0861 -0.12206,-0.0229 -0.2293,-0.043 -0.3182,-0.0596 -0.17639,-0.0381 -0.28011,-0.0607 -0.28011,-0.0607"
         style="fill:#ff9100;fill-opacity:1;fill-rule:nonzero;stroke:none;stroke-width:0.35277778"
         id="path8359"
         inkscape:connector-curvature="0" />
      <path
         d="m 953.66459,655.69095 c 0,0 0.0907,-0.0427 0.24412,-0.11571 0.1584,-0.0667 0.39476,-0.14923 0.68862,-0.20038 0.14676,-0.0332 0.30692,-0.0448 0.47802,-0.0614 0.17004,-0.005 0.35207,-0.0201 0.53798,-0.006 0.18627,0.0106 0.37889,0.0257 0.57292,0.0547 0.19473,0.0254 0.3877,0.0765 0.58278,0.11748 0.1905,0.0593 0.38312,0.11077 0.56586,0.18344 0.18591,0.0624 0.35948,0.15064 0.52705,0.23248 0.16686,0.0847 0.32314,0.17745 0.46496,0.2734 0.14041,0.0995 0.27481,0.18874 0.38382,0.29351 0.22966,0.19121 0.38982,0.38559 0.49178,0.52459 0.0949,0.14358 0.14922,0.22577 0.14922,0.22577 0,0 -0.0808,-0.0547 -0.2226,-0.14993 -0.1397,-0.0938 -0.34114,-0.22048 -0.58985,-0.35172 -0.12135,-0.0702 -0.26317,-0.12841 -0.40463,-0.20143 -0.14817,-0.0628 -0.30269,-0.12841 -0.46214,-0.19615 -0.16334,-0.0607 -0.33126,-0.12312 -0.50483,-0.17991 -0.17074,-0.0646 -0.35136,-0.10795 -0.52916,-0.15946 -0.17992,-0.043 -0.35843,-0.097 -0.5387,-0.12559 -0.17815,-0.0427 -0.3556,-0.072 -0.5281,-0.0967 -0.17251,-0.0243 -0.34008,-0.0459 -0.49989,-0.0624 -0.1591,-0.004 -0.31221,-0.031 -0.45226,-0.0275 -0.28187,-0.0106 -0.51964,-0.001 -0.68792,0.009 -0.16792,0.0123 -0.26705,0.0198 -0.26705,0.0198"
         style="fill:#ff9100;fill-opacity:1;fill-rule:nonzero;stroke:none;stroke-width:0.35277778"
         id="path8363"
         inkscape:connector-curvature="0" />
      <path
         d="m 953.82479,659.69611 c 0,0 0.31291,-0.1711 0.80433,-0.35631 0.12348,-0.0451 0.25683,-0.0974 0.40005,-0.14322 0.14253,-0.0476 0.29634,-0.0938 0.45614,-0.13441 0.16017,-0.0409 0.32421,-0.0871 0.49707,-0.11712 0.17251,-0.0286 0.34748,-0.0579 0.52282,-0.0868 0.17885,-0.0109 0.35736,-0.0219 0.5334,-0.0328 0.17497,-0.0198 0.35066,0.007 0.51858,0.0173 0.16792,0.0159 0.33055,0.0159 0.48119,0.0614 0.15169,0.0335 0.29351,0.0691 0.42227,0.10584 0.26035,0.0624 0.4572,0.18909 0.59726,0.25047 0.13617,0.0734 0.21378,0.11536 0.21378,0.11536 0,0 -0.0889,-0.006 -0.24483,-0.0148 -0.15522,-0.004 -0.36336,-0.0529 -0.62018,-0.054 -0.12841,-3.6e-4 -0.26529,-0.005 -0.40887,-0.0138 -0.14252,-0.0148 -0.29704,0.0102 -0.45332,0.008 -0.15699,0.008 -0.3175,0.002 -0.4826,0.0229 -0.1644,0.0138 -0.33161,0.0279 -0.49883,0.042 -0.16757,0.0222 -0.33549,0.0441 -0.50059,0.066 -0.16616,0.0127 -0.3295,0.0427 -0.48754,0.067 -0.15804,0.0289 -0.31397,0.037 -0.46002,0.0635 -0.14605,0.025 -0.28681,0.0399 -0.41593,0.0564 -0.51752,0.0674 -0.87418,0.0769 -0.87418,0.0769"
         style="fill:#ff9100;fill-opacity:1;fill-rule:nonzero;stroke:none;stroke-width:0.35277778"
         id="path8367"
         inkscape:connector-curvature="0" />
      <path
         d="m 956.78862,664.02162 c 0,0 -0.007,-0.0667 -0.008,-0.19403 0.007,-0.12418 0.0416,-0.3048 0.12982,-0.50376 0.0452,-0.0977 0.0991,-0.20215 0.16651,-0.30586 0.0734,-0.097 0.1397,-0.21343 0.23389,-0.30692 0.0879,-0.10089 0.18486,-0.19861 0.28787,-0.29316 0.10231,-0.0953 0.21943,-0.17498 0.32985,-0.26388 0.12135,-0.0734 0.23601,-0.15592 0.36054,-0.21942 0.12065,-0.0702 0.24694,-0.12524 0.37218,-0.17181 0.12065,-0.055 0.24941,-0.0847 0.36689,-0.11641 0.11994,-0.0279 0.23565,-0.0473 0.3429,-0.0557 0.21625,-0.0184 0.39863,0.007 0.51893,0.0392 0.11607,0.0437 0.18274,0.0688 0.18274,0.0688 0,0 -0.0677,0.0134 -0.18591,0.0363 -0.1143,0.0275 -0.26917,0.079 -0.44662,0.14994 -0.0889,0.0413 -0.18274,0.0847 -0.28116,0.12982 -0.096,0.0561 -0.20003,0.10195 -0.30339,0.16369 -0.10513,0.0568 -0.20849,0.12417 -0.31644,0.18838 -0.11007,0.0596 -0.21167,0.13864 -0.31892,0.20708 -0.10195,0.0759 -0.21201,0.14288 -0.30656,0.22437 -0.1023,0.0734 -0.19932,0.14922 -0.28787,0.22895 -0.0928,0.0765 -0.17533,0.15452 -0.25752,0.22825 -0.0737,0.0787 -0.15099,0.15028 -0.21449,0.22189 -0.12453,0.14429 -0.21908,0.27623 -0.27834,0.37712 -0.0543,0.10443 -0.0871,0.16722 -0.0871,0.16722"
         style="fill:#ff9100;fill-opacity:1;fill-rule:nonzero;stroke:none;stroke-width:0.35277778"
         id="path8371"
         inkscape:connector-curvature="0" />
      <path
         d="m 959.99269,666.42471 c 0,0 -0.007,-0.0564 -0.012,-0.15734 0.002,-0.0988 -0.0187,-0.25294 0.0229,-0.42157 0.019,-0.0847 0.037,-0.17921 0.0663,-0.27622 0.0233,-0.0998 0.0691,-0.19403 0.11571,-0.29387 0.0494,-0.0974 0.0931,-0.20496 0.15769,-0.29845 0.0653,-0.0942 0.13123,-0.18979 0.19756,-0.28539 0.0765,-0.0854 0.15345,-0.17075 0.22895,-0.25506 0.073,-0.0871 0.15945,-0.15593 0.24059,-0.22507 0.0804,-0.0695 0.15911,-0.13653 0.2406,-0.19015 0.079,-0.0564 0.15593,-0.10654 0.2293,-0.14993 0.14253,-0.0921 0.27482,-0.14923 0.36619,-0.19121 0.0945,-0.0377 0.14887,-0.0593 0.14887,-0.0593 0,0 -0.0293,0.0504 -0.0801,0.13864 -0.0522,0.0861 -0.13406,0.20249 -0.23213,0.33619 -0.0483,0.0681 -0.10301,0.13865 -0.16369,0.20991 -0.0586,0.0734 -0.11536,0.15275 -0.18203,0.22789 -0.0642,0.0773 -0.13018,0.15699 -0.19615,0.23672 -0.0663,0.0794 -0.1337,0.16016 -0.20108,0.24094 -0.0639,0.0822 -0.127,0.1644 -0.18979,0.24518 -0.072,0.0758 -0.12065,0.16193 -0.17745,0.24095 -0.0497,0.0825 -0.12453,0.15028 -0.16228,0.23072 -0.043,0.078 -0.0931,0.14852 -0.13688,0.2166 -0.0928,0.13335 -0.1397,0.25965 -0.19649,0.34361 -0.0526,0.0843 -0.0847,0.13617 -0.0847,0.13617"
         style="fill:#ff9100;fill-opacity:1;fill-rule:nonzero;stroke:none;stroke-width:0.35277778"
         id="path8375"
         inkscape:connector-curvature="0" />
      <path
         d="m 963.83761,668.02678 c 0,0 -0.049,-0.18344 -0.0325,-0.45896 0.008,-0.0677 0.0131,-0.14288 0.0282,-0.22014 0.012,-0.0783 0.0321,-0.1591 0.0603,-0.23989 0.0286,-0.0804 0.0536,-0.16721 0.0914,-0.24765 0.0406,-0.0797 0.0815,-0.16086 0.12277,-0.242 0.0494,-0.0748 0.0988,-0.14958 0.14746,-0.22331 0.0466,-0.0758 0.10689,-0.13652 0.16051,-0.20038 0.0529,-0.0639 0.10795,-0.12276 0.16475,-0.17321 0.0536,-0.0533 0.10724,-0.10125 0.16016,-0.14288 0.10125,-0.0868 0.19685,-0.14852 0.26564,-0.19155 0.072,-0.0402 0.11289,-0.0632 0.11289,-0.0632 0,0 -0.0106,0.0459 -0.0286,0.12629 -0.0212,0.0776 -0.0554,0.18733 -0.10725,0.30833 -0.0236,0.0621 -0.0526,0.127 -0.0864,0.19262 -0.0325,0.0677 -0.0653,0.13758 -0.10442,0.20602 -0.0367,0.0699 -0.078,0.14146 -0.11889,0.21061 -0.0416,0.0698 -0.084,0.1404 -0.12594,0.21096 -0.0416,0.0698 -0.0829,0.14005 -0.12382,0.20849 -0.0483,0.0656 -0.0829,0.13511 -0.12171,0.20108 -0.0349,0.0677 -0.0868,0.1263 -0.11607,0.19015 -0.0325,0.0628 -0.072,0.11959 -0.10583,0.17427 -0.12594,0.21978 -0.24271,0.3743 -0.24271,0.3743"
         style="fill:#ff9100;fill-opacity:1;fill-rule:nonzero;stroke:none;stroke-width:0.35277778"
         id="path8379"
         inkscape:connector-curvature="0" />
      <path
         d="m 952.78346,650.88478 c 0,0 -0.0723,0.0159 -0.19191,0.0423 -0.0596,0.007 -0.12912,0.03 -0.20567,0.0607 -0.0776,0.0236 -0.16051,0.0564 -0.24518,0.10619 -0.0886,0.0367 -0.17075,0.10442 -0.26106,0.16298 -0.0892,0.0607 -0.17039,0.1457 -0.25858,0.2226 -0.084,0.0854 -0.17004,0.17181 -0.24448,0.27552 -0.0861,0.091 -0.15346,0.20426 -0.23001,0.30762 -0.0684,0.11113 -0.14605,0.21626 -0.2039,0.33267 -0.0635,0.11254 -0.12524,0.22437 -0.18239,0.3355 -0.0547,0.11147 -0.10795,0.21978 -0.1591,0.32455 -0.0459,0.10513 -0.09,0.20532 -0.13124,0.30022 -0.078,0.18873 -0.14075,0.35066 -0.18274,0.46707 -0.0427,0.11854 -0.067,0.18592 -0.067,0.18592 0,0 -0.0138,-0.0713 -0.0378,-0.1965 -0.0162,-0.12594 -0.0289,-0.31044 -0.006,-0.52846 0.005,-0.11077 0.0303,-0.22613 0.0529,-0.35031 0.0289,-0.12206 0.0586,-0.25259 0.10795,-0.381 0.0459,-0.12947 0.0945,-0.26458 0.1651,-0.39229 0.0614,-0.13158 0.1457,-0.25541 0.22084,-0.38382 0.0935,-0.11783 0.17639,-0.24165 0.28293,-0.34784 0.10054,-0.10936 0.2166,-0.20285 0.32843,-0.29139 0.11571,-0.085 0.23919,-0.15346 0.35984,-0.20708 0.12241,-0.0529 0.23988,-0.0938 0.35595,-0.10901 0.46143,-0.0822 0.73624,0.079 0.73307,0.0639"
         style="fill:#ff9100;fill-opacity:1;fill-rule:nonzero;stroke:none;stroke-width:0.35277778"
         id="path8383"
         inkscape:connector-curvature="0" />
      <path
         d="m 947.73701,650.16387 c 0,0 0.0219,-0.0758 0.0727,-0.21343 0.0586,-0.13088 0.16122,-0.31362 0.31856,-0.50588 0.0794,-0.0949 0.16969,-0.19438 0.27129,-0.29387 0.10795,-0.09 0.21166,-0.20249 0.34043,-0.28751 0.12523,-0.0914 0.25611,-0.1838 0.39722,-0.26564 0.139,-0.0854 0.29175,-0.1524 0.44168,-0.22508 0.15593,-0.06 0.31327,-0.11923 0.47378,-0.16227 0.16158,-0.0438 0.32315,-0.0748 0.48613,-0.0822 0.15805,-0.025 0.32173,-3.5e-4 0.46884,0.0116 0.14887,0.0363 0.2914,0.0582 0.40852,0.12806 0.11959,0.0621 0.22507,0.11853 0.29598,0.2032 0.0762,0.0751 0.14005,0.13688 0.16969,0.20849 0.0639,0.12912 0.10054,0.20285 0.10054,0.20285 0,0 -0.0646,-0.0476 -0.1771,-0.13088 -0.0473,-0.0473 -0.127,-0.0758 -0.20743,-0.11254 -0.0755,-0.0462 -0.17709,-0.061 -0.27869,-0.085 -0.10019,-0.0265 -0.2219,-0.0138 -0.33797,-0.024 -0.12417,0.0201 -0.24906,0.018 -0.38276,0.0529 -0.133,0.0215 -0.26741,0.0684 -0.4064,0.10689 -0.13829,0.0409 -0.27693,0.0974 -0.41381,0.15381 -0.13652,0.0607 -0.27622,0.11501 -0.40534,0.18803 -0.13582,0.0607 -0.26317,0.1323 -0.38629,0.20391 -0.12453,0.0688 -0.23989,0.14287 -0.35348,0.2099 -0.10725,0.0727 -0.21132,0.14323 -0.30657,0.20779 -0.18521,0.13582 -0.33337,0.25964 -0.43533,0.35348 -0.0967,0.0984 -0.15416,0.15734 -0.15416,0.15734"
         style="fill:#ff9100;fill-opacity:1;fill-rule:nonzero;stroke:none;stroke-width:0.35277778"
         id="path8387"
         inkscape:connector-curvature="0" />
      <path
         d="m 948.29771,645.59805 c 0,0 0.21731,-0.15416 0.58984,-0.27799 0.0928,-0.0325 0.19474,-0.0632 0.3048,-0.0868 0.11007,-0.024 0.22755,-0.049 0.35031,-0.0621 0.12347,-0.01 0.25118,-0.0226 0.38277,-0.0222 0.13123,-10e-4 0.26493,0.0148 0.39899,0.0258 0.133,0.0265 0.26635,0.0469 0.39511,0.0875 0.13053,0.0303 0.25188,0.0907 0.36865,0.14217 0.1136,0.0621 0.22472,0.11818 0.31539,0.19649 0.0956,0.0695 0.17921,0.14323 0.24518,0.22296 0.0727,0.0713 0.12523,0.14993 0.16862,0.21943 0.0466,0.0674 0.079,0.13052 0.10019,0.18591 0.0413,0.1083 0.0649,0.17004 0.0649,0.17004 0,0 -0.0533,-0.0378 -0.14675,-0.10372 -0.0423,-0.0349 -0.0977,-0.0723 -0.16334,-0.11007 -0.0631,-0.0406 -0.13123,-0.0861 -0.21237,-0.12523 -0.0773,-0.0438 -0.16369,-0.0829 -0.25541,-0.12242 -0.0889,-0.043 -0.19297,-0.0681 -0.29104,-0.109 -0.10478,-0.0275 -0.20991,-0.0596 -0.32138,-0.0836 -0.10866,-0.0314 -0.22543,-0.0445 -0.33938,-0.0642 -0.11641,-0.0145 -0.23177,-0.0342 -0.34854,-0.0385 -0.11571,-0.0162 -0.23142,-0.019 -0.34396,-0.0251 -0.11218,10e-4 -0.2226,-0.0123 -0.32738,-0.0106 -0.10336,-10e-4 -0.20531,-0.002 -0.29809,-0.003 -0.37183,10e-4 -0.63712,-0.006 -0.63712,-0.006"
         style="fill:#ff9100;fill-opacity:1;fill-rule:nonzero;stroke:none;stroke-width:0.35277778"
         id="path8391"
         inkscape:connector-curvature="0" />
      <path
         d="m 967.20191,647.8409 c 0,0 0.0342,-0.0476 0.11465,-0.13264 0.0413,-0.0399 0.10196,-0.0716 0.17286,-0.11572 0.0723,-0.0349 0.16016,-0.0624 0.25788,-0.0868 0.0956,-0.0113 0.20673,-0.0388 0.3175,-0.0279 0.11325,10e-4 0.23178,0.008 0.35031,0.0353 0.1203,0.0212 0.23742,0.061 0.35948,0.0967 0.11536,0.0501 0.23672,0.0946 0.34784,0.15734 0.11289,0.0603 0.21943,0.13088 0.32244,0.2032 0.10548,0.0681 0.19332,0.15945 0.28222,0.23883 0.0819,0.0892 0.16475,0.17004 0.22472,0.26529 0.0649,0.0907 0.12383,0.17639 0.16122,0.26846 0.0444,0.0861 0.0773,0.16828 0.0946,0.24695 0.0198,0.0769 0.037,0.14076 0.0367,0.19932 10e-4,0.11042 10e-4,0.17356 10e-4,0.17356 0,0 -0.0363,-0.0497 -0.10019,-0.13687 -0.0254,-0.0438 -0.0723,-0.0893 -0.11818,-0.14182 -0.0427,-0.054 -0.0991,-0.1083 -0.16087,-0.16616 -0.0579,-0.0596 -0.13123,-0.11536 -0.20179,-0.1778 -0.0702,-0.0624 -0.1591,-0.11536 -0.23601,-0.18203 -0.0868,-0.0575 -0.17603,-0.11642 -0.26599,-0.17569 -0.0907,-0.0593 -0.18415,-0.11712 -0.28328,-0.16545 -0.0935,-0.0596 -0.19509,-0.10125 -0.29175,-0.14993 -0.0977,-0.0434 -0.19438,-0.0931 -0.29069,-0.12347 -0.097,-0.0328 -0.18838,-0.0727 -0.27905,-0.0924 -0.091,-0.0293 -0.17462,-0.0388 -0.25682,-0.0579 -0.0787,-0.007 -0.15487,-0.0148 -0.22225,-0.0152 -0.0639,0.008 -0.12841,0.006 -0.17709,0.0176 -0.0991,0.0279 -0.15981,0.0452 -0.15981,0.0452"
         style="fill:#ff9100;fill-opacity:1;fill-rule:nonzero;stroke:none;stroke-width:0.35277778"
         id="path8395"
         inkscape:connector-curvature="0" />
      <path
         d="m 966.16058,649.28274 c 0,0 0.0667,-0.0226 0.19191,-0.0547 0.12418,-0.0275 0.31115,-0.0501 0.53199,-0.0279 0.11289,0.004 0.22895,0.0314 0.35489,0.0575 0.12065,0.0356 0.254,0.0663 0.3803,0.12277 0.12735,0.0543 0.25823,0.11254 0.38488,0.1838 0.12841,0.0691 0.24659,0.15698 0.36971,0.23777 0.11254,0.0953 0.23142,0.18238 0.33408,0.28575 0.10866,0.096 0.20108,0.20567 0.28787,0.31362 0.0907,0.10371 0.16086,0.22084 0.22895,0.32667 0.0607,0.11289 0.12312,0.21414 0.15946,0.32103 0.0875,0.20426 0.12206,0.38946 0.1344,0.51646 0.004,0.12736 0.006,0.20038 0.006,0.20038 0,0 -0.0385,-0.0607 -0.10548,-0.16651 -0.0667,-0.10301 -0.16686,-0.24165 -0.29457,-0.39617 -0.061,-0.0783 -0.14252,-0.15416 -0.21308,-0.2413 -0.0847,-0.078 -0.16333,-0.16686 -0.2547,-0.25082 -0.0896,-0.0854 -0.18627,-0.16828 -0.28399,-0.2533 -0.0935,-0.0896 -0.2032,-0.16404 -0.3055,-0.24659 -0.1069,-0.0758 -0.2092,-0.15981 -0.32068,-0.22542 -0.10477,-0.0769 -0.21413,-0.14147 -0.32103,-0.2032 -0.10759,-0.06 -0.21166,-0.11924 -0.31326,-0.17075 -0.10407,-0.0406 -0.19897,-0.1016 -0.29316,-0.13123 -0.18521,-0.0762 -0.34925,-0.12453 -0.46778,-0.15381 -0.11924,-0.0275 -0.19121,-0.0441 -0.19121,-0.0441"
         style="fill:#ff9100;fill-opacity:1;fill-rule:nonzero;stroke:none;stroke-width:0.35277778"
         id="path8399"
         inkscape:connector-curvature="0" />
      <path
         d="m 964.63863,650.24399 c 0,0 0.0561,0.0208 0.15663,0.0713 0.0963,0.0529 0.22825,0.15134 0.34961,0.30268 0.0639,0.0737 0.11818,0.16193 0.17568,0.25753 0.0437,0.0984 0.11007,0.20003 0.14111,0.31433 0.0406,0.11218 0.0748,0.23001 0.10231,0.35136 0.0279,0.12171 0.0377,0.2466 0.0557,0.37113 0.003,0.12558 0.0127,0.25082 0.006,0.37394 3.5e-4,0.12312 -0.0176,0.24377 -0.0367,0.35983 -0.0134,0.11607 -0.0476,0.22684 -0.0751,0.32985 -0.0349,0.10336 -0.0653,0.19967 -0.10901,0.28505 -0.0769,0.17286 -0.17109,0.30338 -0.24271,0.38629 -0.0783,0.0773 -0.12312,0.12135 -0.12312,0.12135 0,0 0.0102,-0.0607 0.0282,-0.16686 0.0159,-0.10372 0.0318,-0.24871 0.0459,-0.41875 0.005,-0.0871 0.01,-0.17815 0.0152,-0.2734 10e-4,-0.0984 0.002,-0.20003 0.004,-0.30374 -0.002,-0.10513 -0.004,-0.21343 -0.005,-0.32244 0.003,-0.10972 -0.0109,-0.22049 -0.0166,-0.33126 -0.0109,-0.10971 -0.0134,-0.22154 -0.0332,-0.32808 -0.009,-0.10901 -0.024,-0.21449 -0.0452,-0.31503 -0.0166,-0.10302 -0.0406,-0.19756 -0.0593,-0.2921 -0.0314,-0.0864 -0.0455,-0.17992 -0.0769,-0.25542 -0.055,-0.15698 -0.11677,-0.28575 -0.16863,-0.375 -0.0547,-0.0886 -0.0882,-0.14252 -0.0882,-0.14252"
         style="fill:#ff9100;fill-opacity:1;fill-rule:nonzero;stroke:none;stroke-width:0.35277778"
         id="path8403"
         inkscape:connector-curvature="0" />
      <path
         d="m 999.32307,666.66502 c 0,0 8.41093,-1.68204 9.37193,-4.96641 0.9613,-3.284 -2.6434,-8.81133 -2.6434,-8.81133 0,0 -2.8836,2.55023 -4.8863,2.39678 -2.00239,-0.15381 -4.96608,-6.08154 -3.92503,-7.84366 1.0414,-1.76213 3.52463,-0.24025 4.32573,1.60196 0.8008,1.84256 2.7235,0.77294 2.7235,0.77294 0,0 -3.7649,-5.25851 -0.8012,-7.66163 2.9641,-2.40312 7.5297,2.56328 9.5324,8.33049 0,0 2.8036,-1.12148 2.9637,-2.72344 0.1602,-1.60197 -2.2429,-4.5332 0,-6.11152 2.243,-1.57833 3.925,2.90759 3.7649,5.95136 -0.1602,3.04376 -3.4446,4.88632 -5.7676,5.92772 0,0 2.0027,5.6328 -0.2402,9.78535 -2.2427,4.15255 -11.7751,6.15491 -13.377,6.31508 -1.60199,0.16016 -1.04143,-2.96369 -1.04143,-2.96369"
         style="fill:#ffb600;fill-opacity:1;fill-rule:nonzero;stroke:none;stroke-width:0.35277778"
         id="path8407"
         inkscape:connector-curvature="0" />
      <path
         d="m 1002.6874,665.94408 c 0,0 0.1838,0.0988 0.4092,0.28152 0.057,0.0459 0.1207,0.0935 0.1806,0.14993 0.06,0.0557 0.1299,0.11253 0.1912,0.17921 0.062,0.0663 0.1288,0.13123 0.193,0.20496 0.061,0.0755 0.1224,0.1524 0.1842,0.22895 0.054,0.0843 0.1079,0.16899 0.1608,0.25189 0.057,0.0801 0.09,0.17568 0.1299,0.26141 0.039,0.0864 0.076,0.16968 0.093,0.25717 0.024,0.0843 0.042,0.1651 0.054,0.23989 0.03,0.14852 0.018,0.28081 0.018,0.36865 -0.01,0.0889 -0.012,0.1397 -0.012,0.1397 0,0 -0.032,-0.0402 -0.089,-0.11112 -0.055,-0.0695 -0.1165,-0.17251 -0.1979,-0.28787 -0.044,-0.0564 -0.087,-0.11818 -0.1278,-0.1845 -0.04,-0.0667 -0.095,-0.13053 -0.1411,-0.20144 -0.048,-0.0699 -0.098,-0.14181 -0.1485,-0.21413 -0.051,-0.073 -0.103,-0.14711 -0.1552,-0.22155 -0.053,-0.0751 -0.1065,-0.15063 -0.1591,-0.22472 -0.047,-0.078 -0.1013,-0.15346 -0.1499,-0.22683 -0.052,-0.0723 -0.09,-0.15029 -0.1344,-0.22084 -0.044,-0.0702 -0.079,-0.14217 -0.1129,-0.20673 -0.1344,-0.26211 -0.1863,-0.46355 -0.1863,-0.46355"
         style="fill:#ff9100;fill-opacity:1;fill-rule:nonzero;stroke:none;stroke-width:0.35277778"
         id="path8411"
         inkscape:connector-curvature="0" />
      <path
         d="m 1005.7313,664.82267 c 0,0 0.05,0.008 0.1386,0.0321 0.086,0.0265 0.2226,0.0564 0.3525,0.14147 0.067,0.0395 0.1432,0.0811 0.2176,0.13299 0.07,0.0554 0.1443,0.1143 0.2142,0.1831 0.072,0.0667 0.145,0.13793 0.2081,0.21907 0.062,0.0822 0.1245,0.16545 0.1873,0.24906 0.05,0.0921 0.099,0.1845 0.1482,0.27517 0.054,0.0878 0.082,0.18732 0.1118,0.28151 0.03,0.0942 0.061,0.18345 0.073,0.27411 0.013,0.0907 0.021,0.17639 0.024,0.25541 0.021,0.15452 -0.022,0.29281 -0.037,0.381 -0.024,0.0879 -0.037,0.13829 -0.037,0.13829 0,0 -0.024,-0.0473 -0.067,-0.12947 -0.044,-0.0804 -0.077,-0.19297 -0.1521,-0.31855 -0.036,-0.0628 -0.07,-0.13018 -0.1016,-0.20215 -0.037,-0.0702 -0.087,-0.14075 -0.1241,-0.21731 -0.041,-0.0755 -0.083,-0.15275 -0.1313,-0.2293 -0.046,-0.0773 -0.092,-0.15628 -0.139,-0.23495 -0.051,-0.0762 -0.1016,-0.1524 -0.1513,-0.22754 -0.043,-0.0808 -0.095,-0.15276 -0.1482,-0.22049 -0.054,-0.067 -0.094,-0.14499 -0.1421,-0.20885 -0.052,-0.0596 -0.096,-0.12311 -0.139,-0.18062 -0.081,-0.12276 -0.1662,-0.20461 -0.2195,-0.27799 -0.053,-0.0716 -0.086,-0.11606 -0.086,-0.11606"
         style="fill:#ff9100;fill-opacity:1;fill-rule:nonzero;stroke:none;stroke-width:0.35277778"
         id="path8415"
         inkscape:connector-curvature="0" />
      <path
         d="m 1008.6951,662.73998 c 0,0 0.064,-0.0187 0.1817,-0.0427 0.1167,-0.0194 0.2871,-0.0353 0.49,-0.0254 0.1012,0.006 0.2109,0.0134 0.3256,0.0314 0.1125,0.0233 0.2371,0.0335 0.3574,0.0716 0.122,0.0321 0.2476,0.0688 0.3732,0.11219 0.1256,0.0437 0.2484,0.1016 0.3732,0.15416 0.12,0.0639 0.2413,0.12453 0.356,0.19615 0.1157,0.0684 0.2233,0.14675 0.3228,0.23107 0.1037,0.0758 0.1908,0.1718 0.2727,0.25752 0.08,0.0903 0.1499,0.18204 0.2046,0.272 0.1122,0.18168 0.164,0.3556 0.1803,0.47554 0,0.1203 0.01,0.18874 0.01,0.18874 0,0 -0.038,-0.0543 -0.1048,-0.14958 -0.068,-0.0896 -0.176,-0.20144 -0.3129,-0.31927 -0.074,-0.0557 -0.1531,-0.1143 -0.2349,-0.17568 -0.091,-0.0543 -0.1775,-0.11853 -0.278,-0.17498 -0.096,-0.0607 -0.2032,-0.11324 -0.3076,-0.17392 -0.1041,-0.0607 -0.217,-0.11218 -0.3271,-0.16721 -0.1121,-0.0526 -0.2219,-0.11113 -0.3358,-0.15628 -0.1101,-0.0547 -0.2208,-0.10266 -0.3298,-0.14676 -0.1069,-0.0451 -0.2142,-0.0903 -0.3133,-0.13229 -0.1,-0.0388 -0.1969,-0.0773 -0.2858,-0.11254 -0.3552,-0.13687 -0.6145,-0.21378 -0.6145,-0.21378"
         style="fill:#ff9100;fill-opacity:1;fill-rule:nonzero;stroke:none;stroke-width:0.35277778"
         id="path8419"
         inkscape:connector-curvature="0" />
      <path
         d="m 1009.416,659.45579 c 0,0 0.055,-0.0434 0.157,-0.11289 0.1037,-0.0653 0.2487,-0.17603 0.4452,-0.26 0.1,-0.0385 0.2081,-0.0836 0.3263,-0.12206 0.1161,-0.0455 0.2448,-0.0751 0.3817,-0.0892 0.1362,-0.012 0.2769,-0.0508 0.4226,-0.0406 0.1457,0.0106 0.2939,0.0212 0.4421,0.0321 0.1446,0.0325 0.2868,0.0787 0.4272,0.11783 0.145,0.0296 0.2646,0.11536 0.387,0.1778 0.1206,0.0663 0.2406,0.12524 0.3305,0.21449 0.097,0.0797 0.1845,0.15769 0.2622,0.23213 0.1576,0.14605 0.2476,0.30797 0.3206,0.4064 0.065,0.10513 0.1027,0.1651 0.1027,0.1651 0,0 -0.064,-0.0325 -0.1753,-0.0889 -0.1115,-0.0536 -0.2491,-0.15346 -0.4294,-0.24095 -0.092,-0.0409 -0.188,-0.0878 -0.2861,-0.14076 -0.096,-0.0579 -0.2109,-0.0861 -0.3207,-0.13229 -0.1125,-0.0385 -0.2215,-0.0963 -0.3439,-0.11783 -0.12,-0.0282 -0.2403,-0.0646 -0.362,-0.0892 -0.1245,-0.0141 -0.249,-0.0286 -0.3718,-0.0423 -0.1224,-0.0254 -0.2462,-0.004 -0.3658,-0.008 -0.12,0.001 -0.2385,-0.009 -0.3489,0.0134 -0.1108,0.0155 -0.2187,0.0212 -0.3193,0.0296 -0.1993,0.0219 -0.3648,0.0632 -0.4875,0.0748 -0.1214,0.0134 -0.1944,0.0215 -0.1944,0.0215"
         style="fill:#ff9100;fill-opacity:1;fill-rule:nonzero;stroke:none;stroke-width:0.35277778"
         id="path8423"
         inkscape:connector-curvature="0" />
      <path
         d="m 1008.3747,657.2129 c 0,0 0.054,-0.0829 0.1443,-0.22331 0.097,-0.13829 0.2469,-0.33161 0.4558,-0.53516 0.1012,-0.10654 0.2212,-0.20885 0.3496,-0.31715 0.1323,-0.10195 0.2695,-0.2159 0.4244,-0.31327 0.1541,-0.0984 0.3146,-0.19967 0.485,-0.28963 0.169,-0.0935 0.3514,-0.16686 0.5292,-0.24906 0.1859,-0.0646 0.3683,-0.13758 0.5563,-0.18662 0.1842,-0.06 0.3743,-0.0907 0.556,-0.12276 0.1828,-0.0282 0.3616,-0.0455 0.5313,-0.048 0.1704,-7.1e-4 0.3298,-0.004 0.4777,0.0201 0.1471,0.0134 0.2804,0.0346 0.3965,0.0681 0.1164,0.0289 0.2162,0.054 0.2956,0.0896 0.1559,0.0667 0.2452,0.10442 0.2452,0.10442 0,0 -0.096,-3.5e-4 -0.2642,-10e-4 -0.082,-0.006 -0.1828,0.003 -0.296,0.009 -0.1133,10e-4 -0.2399,0.0152 -0.3768,0.0317 -0.1369,0.0113 -0.2833,0.0441 -0.4374,0.067 -0.1535,0.0307 -0.3144,0.0699 -0.4795,0.10866 -0.1644,0.0466 -0.3333,0.0942 -0.5034,0.15063 -0.1721,0.0483 -0.3404,0.12101 -0.5111,0.18345 -0.1676,0.072 -0.3398,0.13441 -0.4999,0.21696 -0.1662,0.0702 -0.3242,0.15134 -0.477,0.23107 -0.151,0.0822 -0.2999,0.15875 -0.4374,0.23847 -0.1327,0.0857 -0.2699,0.15311 -0.3842,0.23248 -0.2367,0.14852 -0.4297,0.28364 -0.5652,0.3803 -0.1351,0.0967 -0.2148,0.15381 -0.2148,0.15381"
         style="fill:#ff9100;fill-opacity:1;fill-rule:nonzero;stroke:none;stroke-width:0.35277778"
         id="path8427"
         inkscape:connector-curvature="0" />
      <path
         d="m 1006.7726,653.20778 c 0,0 0.021,-0.0967 0.056,-0.26106 0.018,-0.0843 0.044,-0.18591 0.092,-0.29562 0.046,-0.11042 0.089,-0.24236 0.169,-0.3683 0.072,-0.13088 0.1531,-0.27341 0.2653,-0.40464 0.1016,-0.14076 0.2293,-0.27058 0.3644,-0.40322 0.1439,-0.1196 0.2896,-0.25224 0.454,-0.35913 0.162,-0.11324 0.3362,-0.20744 0.5098,-0.30445 0.1788,-0.0829 0.3566,-0.16969 0.5362,-0.23812 0.1775,-0.0762 0.3577,-0.12983 0.5313,-0.18486 0.1729,-0.0536 0.3422,-0.0995 0.5031,-0.13652 0.1605,-0.0395 0.3129,-0.0734 0.4543,-0.0991 0.2816,-0.0579 0.5193,-0.0917 0.6862,-0.11641 0.1686,-0.0208 0.2649,-0.0325 0.2649,-0.0325 0,0 -0.084,0.048 -0.2318,0.13229 -0.1492,0.0811 -0.3654,0.18945 -0.6279,0.30445 -0.1309,0.0596 -0.2727,0.12171 -0.4233,0.18309 -0.1507,0.0628 -0.308,0.12877 -0.4703,0.1965 -0.1605,0.0695 -0.3263,0.14111 -0.4939,0.21378 -0.1697,0.0684 -0.3323,0.15276 -0.497,0.23319 -0.1616,0.0843 -0.3253,0.16581 -0.4735,0.26352 -0.1587,0.084 -0.2956,0.1905 -0.4356,0.28646 -0.126,0.11042 -0.2664,0.20003 -0.3722,0.31362 -0.1161,0.10442 -0.2177,0.21131 -0.3073,0.31609 -0.098,0.0988 -0.1654,0.20602 -0.2367,0.29527 -0.073,0.0889 -0.1267,0.17357 -0.17,0.24413 -0.092,0.13934 -0.1468,0.22154 -0.1468,0.22154"
         style="fill:#ff9100;fill-opacity:1;fill-rule:nonzero;stroke:none;stroke-width:0.35277778"
         id="path8431"
         inkscape:connector-curvature="0" />
      <path
         d="m 1004.2894,648.48172 c 0,0 0.2402,-0.28822 0.6036,-0.69815 0.092,-0.10266 0.1919,-0.21449 0.2956,-0.33055 0.1073,-0.1143 0.2163,-0.24201 0.3383,-0.36371 0.1228,-0.12242 0.2466,-0.25083 0.381,-0.37748 0.1337,-0.12523 0.2787,-0.24623 0.4227,-0.3683 0.1531,-0.11253 0.3037,-0.22789 0.4653,-0.32737 0.1545,-0.1076 0.3277,-0.18486 0.4893,-0.26423 0.1676,-0.0698 0.3288,-0.13759 0.4921,-0.17392 0.1577,-0.0504 0.3136,-0.0737 0.4562,-0.091 0.285,-0.0346 0.5231,-0.0289 0.6868,-0.006 0.1626,0.0233 0.2554,0.0367 0.2554,0.0367 0,0 -0.09,0.0247 -0.2476,0.0684 -0.1563,0.0349 -0.3743,0.10619 -0.6244,0.19438 -0.1239,0.0494 -0.2579,0.0974 -0.3927,0.16475 -0.1379,0.0589 -0.2734,0.14182 -0.418,0.21555 -0.1383,0.0875 -0.2822,0.17251 -0.423,0.2727 -0.1443,0.0924 -0.2826,0.20355 -0.4223,0.31115 -0.1393,0.11077 -0.2794,0.22013 -0.4131,0.33725 -0.139,0.10901 -0.2727,0.22507 -0.4039,0.33408 -0.1291,0.11289 -0.2625,0.21237 -0.3863,0.31221 -0.1221,0.10054 -0.2459,0.18732 -0.3588,0.26917 -0.4526,0.32773 -0.7962,0.48401 -0.7962,0.48401"
         style="fill:#ff9100;fill-opacity:1;fill-rule:nonzero;stroke:none;stroke-width:0.35277778"
         id="path8435"
         inkscape:connector-curvature="0" />
      <path
         d="m 1003.6486,645.35774 c 0,0 0.017,-0.0667 0.055,-0.1838 0.022,-0.0596 0.047,-0.13123 0.077,-0.21202 0.029,-0.084 0.069,-0.17533 0.1341,-0.25999 0.06,-0.0882 0.1245,-0.18733 0.2011,-0.28646 0.072,-0.10407 0.1728,-0.18556 0.2716,-0.27869 0.1016,-0.0893 0.2032,-0.18945 0.3239,-0.26212 0.1196,-0.0751 0.2416,-0.15099 0.3633,-0.22719 0.1298,-0.0575 0.2597,-0.115 0.3877,-0.1718 0.126,-0.0624 0.2593,-0.0945 0.3863,-0.13088 0.1267,-0.036 0.2487,-0.0734 0.3683,-0.091 0.1186,-0.0212 0.2311,-0.0374 0.3355,-0.0483 0.2067,-0.0317 0.3849,-0.0208 0.5073,-0.0212 0.1231,0.007 0.1937,0.0106 0.1937,0.0106 0,0 -0.062,0.0335 -0.1715,0.0924 -0.1083,0.0575 -0.2674,0.12206 -0.4512,0.2099 -0.092,0.0444 -0.1919,0.0882 -0.2984,0.13018 -0.1059,0.0448 -0.212,0.1023 -0.3267,0.14851 -0.1132,0.0501 -0.2307,0.0995 -0.3447,0.1577 -0.1153,0.055 -0.2324,0.11112 -0.3499,0.16721 -0.1115,0.0635 -0.2233,0.127 -0.333,0.18944 -0.1182,0.0522 -0.2142,0.12877 -0.3133,0.1965 -0.093,0.0741 -0.2099,0.11924 -0.2861,0.19791 -0.081,0.0741 -0.1655,0.13829 -0.2424,0.20073 -0.083,0.0586 -0.1439,0.12383 -0.1972,0.18486 -0.057,0.0582 -0.1072,0.10971 -0.1492,0.1531 -0.088,0.084 -0.1411,0.13441 -0.1411,0.13441"
         style="fill:#ff9100;fill-opacity:1;fill-rule:nonzero;stroke:none;stroke-width:0.35277778"
         id="path8439"
         inkscape:connector-curvature="0" />
      <path
         d="m 1014.5425,650.40419 c 0,0 0.032,-0.005 0.097,-7.1e-4 0.072,7.1e-4 0.1587,0.0293 0.2518,0.079 0.05,0.024 0.1024,0.0512 0.1447,0.0885 0.044,0.0367 0.098,0.0713 0.1429,0.11642 0.042,0.0452 0.086,0.0921 0.1305,0.1397 0.039,0.0512 0.082,0.10231 0.1171,0.15663 l 0.098,0.16793 c 0.035,0.0536 0.053,0.11606 0.076,0.17321 0.023,0.0568 0.042,0.11289 0.054,0.16933 0.014,0.0561 0.023,0.11007 0.028,0.16122 0.017,0.0984 0.01,0.19156 4e-4,0.25294 -0.012,0.0621 -0.019,0.0977 -0.019,0.0977 0,0 -0.029,-0.0222 -0.08,-0.0617 -0.048,-0.0395 -0.1065,-0.0938 -0.1753,-0.16157 -0.036,-0.0328 -0.07,-0.0699 -0.1023,-0.11007 -0.036,-0.0388 -0.074,-0.0797 -0.1069,-0.12559 -0.036,-0.0437 -0.07,-0.0903 -0.1027,-0.13864 l -0.099,-0.1464 c -0.028,-0.0529 -0.061,-0.1009 -0.091,-0.14994 -0.027,-0.0515 -0.054,-0.1023 -0.08,-0.15134 -0.03,-0.0444 -0.049,-0.0963 -0.073,-0.14146 -0.023,-0.0473 -0.041,-0.0928 -0.062,-0.12982 -0.04,-0.0818 -0.068,-0.15593 -0.099,-0.19932 -0.03,-0.0519 -0.05,-0.0861 -0.05,-0.0861"
         style="fill:#ff9100;fill-opacity:1;fill-rule:nonzero;stroke:none;stroke-width:0.35277778"
         id="path8443"
         inkscape:connector-curvature="0" />
      <path
         d="m 1016.0645,648.40161 c 0,0 0.038,-0.019 0.1101,-0.0444 0.071,-0.0194 0.1806,-0.0688 0.3115,-0.0667 0.066,3.5e-4 0.139,-0.002 0.2159,0.006 0.079,0.002 0.1545,0.0254 0.2349,0.0497 0.079,0.0268 0.1655,0.0487 0.2406,0.0907 0.076,0.0434 0.1521,0.0871 0.2286,0.13089 0.067,0.0554 0.1334,0.11077 0.199,0.16545 0.069,0.0512 0.1171,0.11924 0.169,0.17991 0.051,0.061 0.1016,0.1196 0.1361,0.18415 0.039,0.061 0.072,0.12136 0.099,0.17886 0.061,0.11042 0.088,0.21731 0.1104,0.28928 0.017,0.0751 0.027,0.11818 0.027,0.11818 0,0 -0.04,-0.0194 -0.1097,-0.0533 -0.068,-0.0342 -0.1549,-0.0914 -0.2561,-0.15663 -0.052,-0.0314 -0.1048,-0.0681 -0.157,-0.10901 -0.053,-0.0409 -0.114,-0.0751 -0.1683,-0.1203 -0.056,-0.0423 -0.1143,-0.0854 -0.1718,-0.12876 -0.057,-0.043 -0.1154,-0.0868 -0.1736,-0.13053 -0.059,-0.0395 -0.1178,-0.079 -0.176,-0.11783 -0.054,-0.0487 -0.1154,-0.0758 -0.1725,-0.11006 -0.059,-0.0279 -0.109,-0.0822 -0.1672,-0.10019 -0.057,-0.0236 -0.109,-0.0557 -0.1602,-0.0829 -0.1005,-0.0582 -0.1951,-0.0808 -0.2617,-0.11783 -0.066,-0.0332 -0.1087,-0.0543 -0.1087,-0.0543"
         style="fill:#ff9100;fill-opacity:1;fill-rule:nonzero;stroke:none;stroke-width:0.35277778"
         id="path8447"
         inkscape:connector-curvature="0" />
      <path
         d="m 1016.7854,645.51793 c -0.01,0.008 0.07,-0.18309 0.314,-0.28787 0.057,-0.0226 0.1224,-0.0586 0.1912,-0.0723 0.069,-0.0173 0.1429,-0.0423 0.2191,-0.0473 0.077,-0.0106 0.1555,-0.0138 0.2363,-0.018 0.08,7.1e-4 0.1612,0.009 0.2427,0.0141 0.08,0.0162 0.1605,0.0268 0.2389,0.048 0.079,0.0169 0.1534,0.0451 0.225,0.0769 0.072,0.0258 0.1397,0.066 0.2011,0.10443 0.062,0.0356 0.1175,0.0836 0.1651,0.12488 0.097,0.0892 0.157,0.18803 0.1849,0.25964 0.02,0.0801 0.025,0.11783 0.025,0.11783 0,0 -0.042,-0.0222 -0.102,-0.0466 -0.064,-0.0233 -0.1517,-0.043 -0.2519,-0.0656 -0.055,-0.005 -0.1072,-0.018 -0.1665,-0.0272 -0.061,-0.006 -0.1203,-0.0176 -0.1848,-0.0272 -0.064,-0.0109 -0.1309,-0.0152 -0.1976,-0.0286 -0.066,-0.0145 -0.1365,-0.0191 -0.2046,-0.0296 -0.069,-0.01 -0.1376,-0.0222 -0.2053,-0.0282 -0.068,-0.0109 -0.1351,-0.0236 -0.1997,-0.0282 -0.062,-0.008 -0.1284,-0.0173 -0.1877,-0.0254 -0.057,-0.007 -0.1167,-0.0134 -0.17,-0.0198 -0.1058,-0.009 -0.1951,-0.012 -0.2635,-0.01 -0.067,0.01 -0.1094,0.0155 -0.1094,0.0155"
         style="fill:#ff9100;fill-opacity:1;fill-rule:nonzero;stroke:none;stroke-width:0.35277778"
         id="path8451"
         inkscape:connector-curvature="0" />
      <path
         d="m 1016.0645,643.51535 c 0,0.007 0.028,-0.17604 0.1894,-0.37747 0.041,-0.048 0.086,-0.10372 0.1397,-0.15487 0.055,-0.0473 0.1154,-0.0949 0.1831,-0.13723 0.067,-0.0444 0.1369,-0.0885 0.2135,-0.1203 0.078,-0.0303 0.1566,-0.061 0.2356,-0.0917 0.083,-0.0159 0.1662,-0.0318 0.248,-0.0476 0.081,-0.0205 0.1648,-0.0148 0.2445,-0.0123 0.08,0.002 0.1556,0.003 0.2279,0.0201 0.072,0.0159 0.1397,0.0353 0.1997,0.0571 0.122,0.03 0.2127,0.10866 0.2723,0.14817 0.057,0.048 0.089,0.0755 0.089,0.0755 0,0 -0.042,0.01 -0.1165,0.0261 -0.072,0.018 -0.1636,0.0194 -0.2741,0.0508 -0.055,0.0145 -0.1121,0.0258 -0.1714,0.0335 -0.06,0.0123 -0.1224,0.0356 -0.1863,0.0459 -0.064,0.0138 -0.1287,0.0272 -0.1947,0.0462 -0.066,0.0162 -0.1334,0.0325 -0.2004,0.049 -0.066,0.0201 -0.1319,0.0402 -0.1968,0.0603 -0.069,0.0116 -0.1313,0.0346 -0.1916,0.0586 -0.059,0.0258 -0.1274,0.0346 -0.1834,0.0571 -0.053,0.0261 -0.1101,0.0437 -0.1623,0.0631 -0.1104,0.0321 -0.1863,0.0818 -0.2558,0.10689 -0.067,0.0261 -0.1097,0.043 -0.1097,0.043"
         style="fill:#ff9100;fill-opacity:1;fill-rule:nonzero;stroke:none;stroke-width:0.35277778"
         id="path8455"
         inkscape:connector-curvature="0" />
      <path
         d="m 1003.6486,650.56438 c 0,0 0.018,0.0473 0.048,0.12206 0.032,0.0762 0.052,0.18168 0.1006,0.30304 0.022,0.061 0.048,0.12523 0.066,0.19367 0.015,0.0684 0.058,0.13688 0.078,0.21061 0.025,0.073 0.046,0.14852 0.082,0.22331 0.028,0.0765 0.055,0.15416 0.084,0.23177 0.029,0.0787 0.058,0.15734 0.087,0.2346 0.027,0.0783 0.053,0.15663 0.079,0.23283 0.027,0.0758 0.046,0.1517 0.066,0.22472 0.022,0.072 0.039,0.14182 0.052,0.20814 0.03,0.13053 0.045,0.24624 0.052,0.32773 0,0.0833 0.01,0.13088 0.01,0.13088 0,0 -0.037,-0.0307 -0.1009,-0.0843 -0.06,-0.0561 -0.1443,-0.13511 -0.229,-0.2413 -0.045,-0.0515 -0.09,-0.10936 -0.1333,-0.17251 -0.047,-0.0614 -0.09,-0.13158 -0.132,-0.20461 -0.042,-0.0734 -0.09,-0.14676 -0.122,-0.23107 -0.035,-0.0826 -0.071,-0.16651 -0.1059,-0.25047 -0.026,-0.0889 -0.051,-0.1778 -0.077,-0.26494 -0.023,-0.0875 -0.032,-0.17956 -0.044,-0.26599 -0.011,-0.0871 -0.019,-0.17039 -0.014,-0.25224 7e-4,-0.0811 0.011,-0.15804 0.018,-0.22754 0.01,-0.13899 0.063,-0.25365 0.088,-0.32985 0.029,-0.0769 0.051,-0.11853 0.051,-0.11853"
         style="fill:#ff9100;fill-opacity:1;fill-rule:nonzero;stroke:none;stroke-width:0.35277778"
         id="path8459"
         inkscape:connector-curvature="0" />
      <path
         d="m 1001.8864,650.48427 c 0,0 -0.043,0.0586 -0.115,0.15557 -0.07,0.0977 -0.1588,0.24025 -0.2417,0.41734 -0.048,0.0833 -0.074,0.19156 -0.122,0.28928 -0.034,0.10689 -0.072,0.21625 -0.1044,0.33408 -0.036,0.11571 -0.066,0.23742 -0.089,0.36407 -0.034,0.12276 -0.051,0.25364 -0.075,0.38135 -0.02,0.12947 -0.045,0.25858 -0.057,0.38805 -0.015,0.12842 -0.031,0.25577 -0.046,0.37959 -0.012,0.12312 -0.024,0.24307 -0.036,0.35878 -0.01,0.11359 -0.018,0.22225 -0.026,0.32526 -0.014,0.19897 -0.026,0.37253 -0.035,0.49706 -0.01,0.12383 -0.015,0.19474 -0.015,0.19474 0,0 -0.032,-0.0639 -0.089,-0.17604 -0.05,-0.11395 -0.1157,-0.28222 -0.1626,-0.49107 -0.03,-0.10371 -0.045,-0.21801 -0.064,-0.33972 -0.016,-0.12136 -0.03,-0.25047 -0.032,-0.38453 0,-0.1337 -0.01,-0.2727 0.01,-0.41345 0.01,-0.14076 0.031,-0.28293 0.05,-0.42581 0.032,-0.14111 0.058,-0.28257 0.1008,-0.4198 0.042,-0.13653 0.092,-0.26847 0.1486,-0.39406 0.048,-0.1277 0.128,-0.23953 0.1876,-0.34889 0.075,-0.10407 0.1394,-0.2032 0.2202,-0.28152 0.1474,-0.1651 0.3027,-0.27058 0.4141,-0.32914 0.115,-0.0561 0.1796,-0.0811 0.1796,-0.0811"
         style="fill:#ff9100;fill-opacity:1;fill-rule:nonzero;stroke:none;stroke-width:0.35277778"
         id="path8463"
         inkscape:connector-curvature="0" />
      <path
         d="m 998.36185,651.44552 c 0,0 -0.003,-0.0543 0,-0.15099 0.01,-0.0935 -7.1e-4,-0.24377 0.0564,-0.39864 0.0244,-0.0794 0.0487,-0.16792 0.0836,-0.25788 0.0342,-0.0903 0.0829,-0.1785 0.13547,-0.26917 0.0533,-0.09 0.10619,-0.18591 0.17604,-0.27023 0.0706,-0.0843 0.14252,-0.16968 0.21413,-0.25541 0.084,-0.0734 0.16757,-0.14675 0.25012,-0.21907 0.0787,-0.0765 0.17427,-0.12947 0.26353,-0.18345 0.0892,-0.0536 0.17321,-0.1083 0.26352,-0.14287 0.0886,-0.037 0.17357,-0.0681 0.25294,-0.0928 0.1527,-0.0614 0.3012,-0.0621 0.3951,-0.0755 0.097,-0.005 0.152,-0.007 0.152,-0.007 0,0 -0.041,0.0381 -0.1132,0.10477 -0.07,0.0674 -0.1785,0.13582 -0.2914,0.24413 -0.057,0.0529 -0.1195,0.10583 -0.1874,0.15769 -0.0658,0.0547 -0.12761,0.12347 -0.19922,0.18133 -0.0698,0.061 -0.14182,0.12276 -0.20955,0.19155 -0.0702,0.0663 -0.14146,0.13335 -0.21237,0.20073 -0.0667,0.0713 -0.1337,0.14253 -0.19932,0.21273 -0.0741,0.0639 -0.13088,0.13899 -0.18944,0.2099 -0.0543,0.0734 -0.12877,0.13194 -0.17604,0.20214 -0.0476,0.0698 -0.10125,0.1323 -0.14887,0.19227 -0.10513,0.11606 -0.1591,0.23107 -0.2219,0.3048 -0.0582,0.0748 -0.0942,0.121 -0.0942,0.121"
         style="fill:#ff9100;fill-opacity:1;fill-rule:nonzero;stroke:none;stroke-width:0.35277778"
         id="path8467"
         inkscape:connector-curvature="0" />
      <path
         d="m 997.80111,648.48172 c 0.007,0.006 -0.0727,-0.10724 -0.0339,-0.28293 0.0113,-0.0416 0.0229,-0.0907 0.0452,-0.13758 0.0254,-0.0392 0.0494,-0.0857 0.0847,-0.12488 0.0335,-0.0434 0.0709,-0.079 0.10971,-0.11254 0.042,-0.0296 0.0847,-0.0646 0.1277,-0.0903 l 0.13618,-0.0624 c 0.0441,-0.0233 0.0914,-0.0286 0.13617,-0.0392 0.0437,-0.0106 0.0885,-0.018 0.13123,-0.0176 0.0416,-0.003 0.0819,-0.002 0.1203,0.002 0.0755,0.003 0.14076,0.0219 0.18803,0.036 0.0483,0.018 0.0762,0.0282 0.0762,0.0282 0,0 -0.0148,0.0258 -0.0402,0.0706 -0.0265,0.0413 -0.0677,0.0967 -0.11818,0.14816 -0.0247,0.0282 -0.0526,0.055 -0.0836,0.079 -0.03,0.0272 -0.0593,0.0543 -0.0931,0.0755 -0.0321,0.024 -0.0674,0.048 -0.10089,0.0674 l -0.10337,0.0593 c -0.0367,0.0155 -0.066,0.0353 -0.0995,0.0522 -0.0367,0.0127 -0.0709,0.0265 -0.0974,0.0434 -0.0272,0.0173 -0.0646,0.0243 -0.0956,0.0381 -0.0226,0.0162 -0.0533,0.0265 -0.0811,0.0402 -0.10724,0.0494 -0.20285,0.12876 -0.20849,0.12735"
         style="fill:#ff9100;fill-opacity:1;fill-rule:nonzero;stroke:none;stroke-width:0.35277778"
         id="path8471"
         inkscape:connector-curvature="0" />
      <path
         d="m 969.4448,735.68871 c 0,0 0.4004,3.28436 0,4.00509 0,0 -1.84221,-1.36173 -4.68595,-1.20157 -2.84374,0.16017 -5.00662,1.84256 -4.68594,4.96641 0.32032,3.1242 10.89377,3.1242 12.01525,1.76213 1.12148,-1.36173 0,-11.29418 0,-11.29418 z"
         style="fill:#8a1e80;fill-opacity:1;fill-rule:nonzero;stroke:none;stroke-width:0.35277778"
         id="path8475"
         inkscape:connector-curvature="0" />
      <path
         d="m 988.50919,734.56726 c 0,0 0.4004,8.41093 0.80116,9.93281 0.4004,1.52188 10.17305,1.92229 11.69495,0.80081 1.5219,-1.12113 1.5377,-5.18125 -1.54448,-6.37611 -2.85185,-1.10525 -4.93642,0.14005 -7.74735,1.08938 0,0 -0.23177,-4.64573 -0.35631,-5.44689 -0.12453,-0.80116 -2.84797,0 -2.84797,0"
         style="fill:#8a1e80;fill-opacity:1;fill-rule:nonzero;stroke:none;stroke-width:0.35277778"
         id="path8479"
         inkscape:connector-curvature="0" />
      <path
         d="m 981.38009,653.52818 c 0,0 -0.96132,-1.97309 -2.56328,-2.29623 l 0.48048,2.29623 c 0,0 -13.79149,2.35902 -18.59068,30.17661 -4.79919,27.81759 1.18427,39.99336 -2.44828,50.08633 0,0 4.37762,0 6.62058,-2.56328 0,0 1.60196,4.3254 3.84492,6.08753 0,0 4.16525,-2.88361 5.12657,-5.28673 0,0 1.76213,4.80625 5.44689,6.24805 0,0 3.84492,-2.08245 6.24805,-6.72853 0,0 3.26107,4.48557 7.31802,6.72853 0,0 2.77495,-3.84493 4.53743,-7.04885 0,0 2.46732,2.57139 7.88211,4.00932 0,0 -1.9547,-3.84916 -1.3137,-9.61673 0.6406,-5.76721 8.1703,-67.49979 -15.37974,-70.9175 0,0 1.10384,-1.79987 2.07398,-2.20804 0,0 -3.35563,-0.0882 -5.27826,1.03329 0,0 0.32032,-3.20393 1.12148,-4.48557 0,0 -2.88361,1.28164 -5.12657,4.48557"
         style="fill:#1ec1c1;fill-opacity:1;fill-rule:nonzero;stroke:none;stroke-width:0.35277778"
         id="path8483"
         inkscape:connector-curvature="0" />
      <path
         d="m 965.50438,723.07062 c 0,-2.78694 -2.25954,-5.04649 -5.04649,-5.04649 -0.43109,0 -0.84737,0.06 -1.24707,0.16158 0.22543,3.72533 0.40464,6.9222 0.19615,9.82027 0.33902,0.0716 0.69039,0.11113 1.05092,0.11113 2.78695,0 5.04649,-2.25955 5.04649,-5.04649"
         style="fill:#08a09c;fill-opacity:1;fill-rule:nonzero;stroke:none;stroke-width:0.35277778"
         id="path8487"
         inkscape:connector-curvature="0" />
      <path
         d="m 962.26024,712.05224 c 0,-2.25107 -1.47461,-4.15643 -3.51014,-4.8066 0.0346,3.51755 0.20355,6.64704 0.37253,9.47667 1.84009,-0.75283 3.13761,-2.55905 3.13761,-4.67007"
         style="fill:#08a09c;fill-opacity:1;fill-rule:nonzero;stroke:none;stroke-width:0.35277778"
         id="path8491"
         inkscape:connector-curvature="0" />
      <path
         d="m 960.93855,700.67167 c 0,-1.57692 -0.7239,-2.98379 -1.85667,-3.90913 -0.21414,2.89384 -0.31115,5.57354 -0.33302,8.06732 1.32186,-0.90981 2.18969,-2.43205 2.18969,-4.15819"
         style="fill:#08a09c;fill-opacity:1;fill-rule:nonzero;stroke:none;stroke-width:0.35277778"
         id="path8495"
         inkscape:connector-curvature="0" />
      <path
         d="m 961.65946,690.44524 c 0,-1.38677 -0.55986,-2.64195 -1.46509,-3.55424 -0.41592,2.77637 -0.72425,5.38939 -0.94615,7.85213 1.44463,-0.88794 2.41124,-2.47791 2.41124,-4.29789"
         style="fill:#08a09c;fill-opacity:1;fill-rule:nonzero;stroke:none;stroke-width:0.35277778"
         id="path8499"
         inkscape:connector-curvature="0" />
      <path
         d="m 998.24935,723.9901 c 0,2.78694 2.25955,5.04649 5.04645,5.04649 0.1941,0 0.3846,-0.0134 0.5726,-0.0346 -0.054,-1.02975 -0.035,-2.16217 0.1005,-3.38137 0.1016,-0.91264 0.3754,-3.22792 0.6714,-6.49041 -0.4287,-0.11818 -0.8781,-0.18662 -1.3445,-0.18662 -2.7869,0 -5.04645,2.25955 -5.04645,5.04649"
         style="fill:#08a09c;fill-opacity:1;fill-rule:nonzero;stroke:none;stroke-width:0.35277778"
         id="path8503"
         inkscape:connector-curvature="0" />
      <path
         d="m 1001.854,712.97769 c 0,2.02812 1.1991,3.7719 2.9245,4.57376 0.2269,-2.69028 0.4533,-5.88574 0.6132,-9.39023 -2.05,0.64135 -3.5377,2.55516 -3.5377,4.81647"
         style="fill:#08a09c;fill-opacity:1;fill-rule:nonzero;stroke:none;stroke-width:0.35277778"
         id="path8507"
         inkscape:connector-curvature="0" />
      <path
         d="m 1003.7764,701.95927 c 0,1.50742 0.6646,2.85679 1.7127,3.78142 0.085,-2.4585 0.1337,-5.03766 0.1246,-7.67609 -1.1222,0.92569 -1.8373,2.32657 -1.8373,3.89467"
         style="fill:#08a09c;fill-opacity:1;fill-rule:nonzero;stroke:none;stroke-width:0.35277778"
         id="path8511"
         inkscape:connector-curvature="0" />
      <path
         d="m 1003.2958,690.61567 c 0,1.76389 0.9063,3.31399 2.2772,4.2164 -0.06,-2.69946 -0.187,-5.43348 -0.4015,-8.13999 -1.1433,0.92533 -1.8757,2.33821 -1.8757,3.92359"
         style="fill:#08a09c;fill-opacity:1;fill-rule:nonzero;stroke:none;stroke-width:0.35277778"
         id="path8515"
         inkscape:connector-curvature="0" />
      <path
         d="m 982.99955,659.36428 c 10.45457,0.58596 17.02225,8.50124 18.58685,25.26171 1.3056,13.99046 2.9411,34.76166 -18.58685,35.61362 -21.29049,0.84279 -20.70382,-15.94696 -19.70652,-30.49869 0.87948,-12.83477 8.3686,-31.01199 19.70652,-30.37664"
         style="fill:#1be0db;fill-opacity:1;fill-rule:nonzero;stroke:none;stroke-width:0.35277778"
         id="path8519"
         inkscape:connector-curvature="0" />
      <path
         d="m 991.35724,683.12923 c 0,4.93748 -4.01955,8.94045 -8.97819,8.94045 -4.9583,0 -8.97785,-4.00297 -8.97785,-8.94045 0,-4.93748 4.01955,-8.94045 8.97785,-8.94045 4.95864,0 8.97819,4.00297 8.97819,8.94045"
         style="fill:#faeb69;fill-opacity:1;fill-rule:nonzero;stroke:none;stroke-width:0.35277778"
         id="path8523"
         inkscape:connector-curvature="0" />
      <path
         d="m 984.19596,680.20449 c 0,2.61444 -2.12831,4.73392 -4.75403,4.73392 -2.62538,0 -4.75404,-2.11948 -4.75404,-4.73392 0,-2.61444 2.12866,-4.73392 4.75404,-4.73392 2.62572,0 4.75403,2.11948 4.75403,4.73392"
         style="fill:#1d1d1b;fill-opacity:1;fill-rule:nonzero;stroke:none;stroke-width:0.35277778"
         id="path8527"
         inkscape:connector-curvature="0" />
      <path
         d="m 980.01942,678.61727 c 0,1.36984 -1.11513,2.48073 -2.49096,2.48073 -1.37584,0 -2.49097,-1.11089 -2.49097,-2.48073 0,-1.36984 1.11513,-2.48073 2.49097,-2.48073 1.37583,0 2.49096,1.11089 2.49096,2.48073"
         style="fill:#ffffff;fill-opacity:1;fill-rule:nonzero;stroke:none;stroke-width:0.35277778"
         id="path8531"
         inkscape:connector-curvature="0" />
      <path
         d="m 978.77673,698.1854 c 0,0 0.0169,0.0307 0.048,0.0882 0.0314,0.0568 0.0691,0.14041 0.13582,0.23672 0.12135,0.1965 0.31714,0.45226 0.59161,0.6992 0.13687,0.12418 0.29598,0.24271 0.46637,0.35843 0.16933,0.11782 0.36548,0.21202 0.56303,0.30585 0.19756,0.0952 0.4124,0.16616 0.62936,0.21026 0.21449,0.0568 0.43427,0.0854 0.64664,0.073 0.21378,0.002 0.43603,-0.0272 0.64911,-0.0896 0.21343,-0.0582 0.4251,-0.13053 0.62265,-0.2219 0.19685,-0.0931 0.37853,-0.20179 0.54998,-0.31221 0.16546,-0.11747 0.31433,-0.24094 0.44732,-0.36547 0.2533,-0.25542 0.44274,-0.51577 0.54117,-0.72285 0.0656,-0.0998 0.0892,-0.18803 0.11818,-0.24694 0.025,-0.0607 0.0385,-0.0928 0.0385,-0.0928 0,0 0.006,0.0342 0.0162,0.0981 0.006,0.0639 0.0349,0.16263 0.0324,0.28787 0.0124,0.25153 -0.0466,0.62724 -0.2547,1.02764 -0.10054,0.20144 -0.23954,0.40534 -0.41522,0.59549 -0.17286,0.19226 -0.37818,0.37888 -0.61983,0.52881 -0.23778,0.15487 -0.5013,0.2981 -0.79446,0.38206 -0.28892,0.0931 -0.60043,0.14746 -0.9204,0.15416 -0.32208,0.002 -0.63641,-0.0547 -0.92639,-0.14463 -0.28857,-0.0984 -0.55563,-0.22719 -0.7934,-0.37995 -0.24306,-0.14499 -0.44203,-0.33478 -0.62018,-0.51682 -0.18168,-0.17956 -0.31574,-0.38452 -0.42898,-0.57291 -0.22613,-0.381 -0.30833,-0.74577 -0.32667,-0.99342 -0.0155,-0.12312 -0.006,-0.2219 -0.003,-0.28681 0.005,-0.0646 0.007,-0.0995 0.007,-0.0995"
         style="fill:#00595b;fill-opacity:1;fill-rule:nonzero;stroke:none;stroke-width:0.35277778"
         id="path8535"
         inkscape:connector-curvature="0" />
      <path
         d="m 977.37493,698.78618 c 0,0 0.0455,-0.0444 0.11783,-0.10548 0.072,-0.0653 0.17145,-0.12841 0.27587,-0.21343 0.0529,-0.0406 0.10619,-0.0903 0.16404,-0.12277 0.0596,-0.0282 0.10936,-0.0945 0.16969,-0.12594 0.0582,-0.0399 0.12135,-0.0677 0.17533,-0.1203 0.06,-0.037 0.121,-0.0748 0.18203,-0.11218 0.0624,-0.0377 0.12453,-0.0751 0.18592,-0.11218 0.0624,-0.0353 0.1277,-0.0699 0.19332,-0.10196 0.061,-0.0381 0.13476,-0.0582 0.20002,-0.0892 0.0628,-0.0324 0.12877,-0.0586 0.19685,-0.0787 0.13053,-0.0452 0.24801,-0.0868 0.34361,-0.10795 0.10089,-0.0201 0.1584,-0.0317 0.1584,-0.0317 0,0 0.004,0.0579 0.009,0.1591 -0.005,0.096 -0.006,0.24236 -0.0621,0.38489 -0.0226,0.0758 -0.055,0.15381 -0.0963,0.23142 -0.0342,0.084 -0.0924,0.15628 -0.15346,0.23001 -0.0603,0.0744 -0.11853,0.1584 -0.20496,0.21378 -0.0822,0.0603 -0.16581,0.12136 -0.24942,0.18239 -0.096,0.0427 -0.19191,0.0857 -0.2861,0.1277 -0.096,0.0367 -0.20179,0.0473 -0.29739,0.0677 -0.0963,0.0198 -0.19297,0.0215 -0.28469,0.0134 -0.0903,-0.002 -0.1778,-0.024 -0.25435,-0.0385 -0.15417,-0.03 -0.27835,-0.11007 -0.35913,-0.15805 -0.0818,-0.0526 -0.12418,-0.0921 -0.12418,-0.0921"
         style="fill:#00595b;fill-opacity:1;fill-rule:nonzero;stroke:none;stroke-width:0.35277778"
         id="path8539"
         inkscape:connector-curvature="0" />
      <path
         d="m 984.26376,697.46446 c 0,0 0.0547,0.0138 0.13935,0.0353 0.085,0.0215 0.18238,0.0617 0.29492,0.0991 0.0547,0.0201 0.11712,0.0356 0.16651,0.0635 0.0473,0.0307 0.1203,0.0367 0.16757,0.0684 0.0529,0.0261 0.10054,0.0593 0.16016,0.0769 l 0.15099,0.0893 0.14711,0.0949 c 0.048,0.0328 0.0949,0.0695 0.1404,0.10795 0.0483,0.0314 0.0882,0.0833 0.133,0.12206 0.0452,0.0363 0.0875,0.0787 0.12665,0.12665 0.0797,0.0878 0.15522,0.16651 0.20849,0.23777 0.0557,0.0762 0.0875,0.11995 0.0875,0.11995 0,0 -0.042,0.0321 -0.11536,0.0885 -0.0737,0.0448 -0.18732,0.11819 -0.32173,0.14112 -0.0684,0.0183 -0.14323,0.0293 -0.22119,0.0318 -0.0811,0.0123 -0.16122,-0.002 -0.24413,-0.018 -0.0829,-0.0155 -0.17392,-0.0247 -0.25082,-0.0698 -0.0794,-0.0402 -0.16016,-0.0808 -0.24095,-0.12135 -0.0699,-0.0579 -0.1397,-0.11571 -0.20849,-0.17251 -0.0639,-0.0621 -0.11254,-0.13829 -0.16369,-0.20496 -0.0515,-0.0667 -0.0875,-0.14358 -0.11571,-0.21696 -0.0321,-0.0709 -0.0466,-0.14852 -0.0632,-0.21449 -0.0332,-0.13265 -0.0166,-0.26282 -0.007,-0.34749 0.0127,-0.0868 0.0296,-0.13758 0.0296,-0.13758"
         style="fill:#00595b;fill-opacity:1;fill-rule:nonzero;stroke:none;stroke-width:0.35277778"
         id="path8543"
         inkscape:connector-curvature="0" />
      <g
         transform="matrix(0.35277777,0,0,-0.35277777,748.89068,775.59387)"
         id="g8559">
        <g
           clip-path="url(#clipPath8551-1)"
           id="g8557"
           style="opacity:0.50999499">
          <g
             transform="translate(631.0964,234.9226)"
             id="g8555">
            <path
               d="m 0,0 c 0.811,-2.928 -2.824,-5.301 -9.593,-5.96 -5.274,-0.514 -9.594,2.668 -9.594,5.96 0,3.292 4.295,5.96 9.594,5.96 C -4.295,5.96 -0.879,3.172 0,0"
               style="fill:#d45614;fill-opacity:1;fill-rule:nonzero;stroke:none"
               id="path8553"
               inkscape:connector-curvature="0" />
          </g>
        </g>
      </g>
      <g
         transform="matrix(0.35277777,0,0,-0.35277777,748.89068,775.59387)"
         id="g8575">
        <g
           clip-path="url(#clipPath8567-2)"
           id="g8573"
           style="opacity:0.50999499">
          <g
             transform="translate(715.6825,236.2231)"
             id="g8571">
            <path
               d="m 0,0 c 0,-3.292 -4.295,-5.96 -9.593,-5.96 -5.299,0 -9.594,2.668 -9.594,5.96 0,3.292 4.295,5.96 9.594,5.96 C -4.295,5.96 0,3.292 0,0"
               style="fill:#d45614;fill-opacity:1;fill-rule:nonzero;stroke:none"
               id="path8569"
               inkscape:connector-curvature="0" />
          </g>
        </g>
      </g>
    </g>
  </g>
</svg>
