<?xml version="1.0" encoding="UTF-8" standalone="no"?>
<!-- Created with Inkscape (http://www.inkscape.org/) -->

<svg
   xmlns:dc="http://purl.org/dc/elements/1.1/"
   xmlns:cc="http://creativecommons.org/ns#"
   xmlns:rdf="http://www.w3.org/1999/02/22-rdf-syntax-ns#"
   xmlns:svg="http://www.w3.org/2000/svg"
   xmlns="http://www.w3.org/2000/svg"
   xmlns:sodipodi="http://sodipodi.sourceforge.net/DTD/sodipodi-0.dtd"
   xmlns:inkscape="http://www.inkscape.org/namespaces/inkscape"
   width="500"
   height="500"
   viewBox="0 0 132.29166 132.29167"
   version="1.1"
   id="svg8"
   inkscape:version="0.92.3 (2405546, 2018-03-11)"
   sodipodi:docname="character4.svg">
  <defs
     id="defs2">
    <clipPath
       clipPathUnits="userSpaceOnUse"
       id="clipPath5421">
      <rect
         style="opacity:1;fill:#33996c;fill-opacity:1;stroke:none;stroke-width:0.66686082;stroke-linecap:round;stroke-linejoin:round;stroke-miterlimit:4;stroke-dasharray:none;stroke-dashoffset:0;stroke-opacity:1;paint-order:normal"
         id="rect5423"
         width="799.09705"
         height="449.44067"
         x="0.51021183"
         y="75.338379" />
    </clipPath>
    <clipPath
       id="clipPath7151"
       clipPathUnits="userSpaceOnUse">
      <path
         inkscape:connector-curvature="0"
         id="path7149"
         d="M 0,800 H 800 V 0 H 0 Z" />
    </clipPath>
    <clipPath
       id="clipPath7387"
       clipPathUnits="userSpaceOnUse">
      <path
         inkscape:connector-curvature="0"
         id="path7385"
         d="M 311.99,457.865 H 511.85 V 429.577 H 311.99 Z" />
    </clipPath>
    <clipPath
       id="clipPath7443"
       clipPathUnits="userSpaceOnUse">
      <path
         inkscape:connector-curvature="0"
         id="path7441"
         d="m 418.079,561.126 c 0,-8.146 6.606,-14.528 14.75,-14.75 v 0 c 7.031,-0.191 14.596,6.578 14.75,14.75 v 0 c 0.152,8.145 -6.604,14.75 -14.75,14.75 v 0 c -8.147,0 -14.75,-6.604 -14.75,-14.75" />
    </clipPath>
    <clipPath
       id="clipPath7455"
       clipPathUnits="userSpaceOnUse">
      <path
         inkscape:connector-curvature="0"
         id="path7453"
         d="M 0,800 H 800 V 0 H 0 Z" />
    </clipPath>
    <clipPath
       id="clipPath7463"
       clipPathUnits="userSpaceOnUse">
      <path
         inkscape:connector-curvature="0"
         id="path7461"
         d="m 356.574,530.523 h 25.521 v -19.679 h -25.521 z" />
    </clipPath>
    <clipPath
       id="clipPath7479"
       clipPathUnits="userSpaceOnUse">
      <path
         inkscape:connector-curvature="0"
         id="path7477"
         d="m 452.661,530.523 h 25.52 v -19.679 h -25.52 z" />
    </clipPath>
    <clipPath
       id="clipPath7555"
       clipPathUnits="userSpaceOnUse">
      <path
         inkscape:connector-curvature="0"
         id="path7553"
         d="M 52.3269,460.399 H 268.994 V 429.732 H 52.3269 Z" />
    </clipPath>
    <clipPath
       id="clipPath7663"
       clipPathUnits="userSpaceOnUse">
      <path
         inkscape:connector-curvature="0"
         id="path7661"
         d="m 105.985,673.05 c -0.044,-8.864 7.09,-16.084 15.936,-16.127 v 0 c 8.845,-0.045 16.052,7.104 16.096,15.967 v 0 c 0.044,8.864 -7.091,16.083 -15.936,16.127 v 0 c -0.028,10e-4 -0.054,10e-4 -0.082,10e-4 v 0 c -8.807,-10e-4 -15.97,-7.133 -16.014,-15.968" />
    </clipPath>
    <clipPath
       id="clipPath7679"
       clipPathUnits="userSpaceOnUse">
      <path
         inkscape:connector-curvature="0"
         id="path7677"
         d="M 0,800 H 800 V 0 H 0 Z" />
    </clipPath>
    <clipPath
       id="clipPath7691"
       clipPathUnits="userSpaceOnUse">
      <path
         inkscape:connector-curvature="0"
         id="path7689"
         d="m 157.33,674.489 c -0.044,-8.863 7.091,-16.084 15.936,-16.128 v 0 c 8.846,-0.043 16.053,7.105 16.097,15.968 v 0 c 0.044,8.863 -7.091,16.083 -15.937,16.128 v 0 c -0.027,0 -0.053,0 -0.081,0 v 0 c -8.808,-10e-4 -15.971,-7.134 -16.015,-15.968" />
    </clipPath>
    <clipPath
       id="clipPath7707"
       clipPathUnits="userSpaceOnUse">
      <path
         inkscape:connector-curvature="0"
         id="path7705"
         d="M 0,800 H 800 V 0 H 0 Z" />
    </clipPath>
    <clipPath
       id="clipPath7723"
       clipPathUnits="userSpaceOnUse">
      <path
         inkscape:connector-curvature="0"
         id="path7721"
         d="m 184.792,650.86 c -16.758,-0.389 -21.807,-19.008 -38.325,-18.689 v 0 c -16.519,0.317 -27.174,17.669 -39.209,17.548 v 0 c -22.186,-0.222 -13.602,-54.338 39.75,-51.063 v 0 c 53.144,3.261 54.532,52.208 37.98,52.206 v 0 c -0.065,0 -0.131,0 -0.196,-0.002" />
    </clipPath>
    <clipPath
       id="clipPath7767"
       clipPathUnits="userSpaceOnUse">
      <path
         inkscape:connector-curvature="0"
         id="path7765"
         d="M 0,800 H 800 V 0 H 0 Z" />
    </clipPath>
    <clipPath
       id="clipPath7775"
       clipPathUnits="userSpaceOnUse">
      <path
         inkscape:connector-curvature="0"
         id="path7773"
         d="M 66.4852,715.148 H 231.517 V 560.89 H 66.4852 Z" />
    </clipPath>
    <clipPath
       id="clipPath7871"
       clipPathUnits="userSpaceOnUse">
      <path
         inkscape:connector-curvature="0"
         id="path7869"
         d="M 552.203,461.335 H 729.96 V 433.047 H 552.203 Z" />
    </clipPath>
    <clipPath
       id="clipPath7971"
       clipPathUnits="userSpaceOnUse">
      <path
         inkscape:connector-curvature="0"
         id="path7969"
         d="M 583.198,756.471 H 691.196 V 533.74 H 583.198 Z" />
    </clipPath>
    <clipPath
       id="clipPath8031"
       clipPathUnits="userSpaceOnUse">
      <path
         inkscape:connector-curvature="0"
         id="path8029"
         d="m 628.536,567.325 c 0,-6.929 5.617,-12.546 12.546,-12.546 v 0 c 6.929,0 12.547,5.617 12.547,12.546 v 0 c 0,6.929 -5.618,12.547 -12.547,12.547 v 0 c -6.929,0 -12.546,-5.618 -12.546,-12.547" />
    </clipPath>
    <clipPath
       id="clipPath8043"
       clipPathUnits="userSpaceOnUse">
      <path
         inkscape:connector-curvature="0"
         id="path8041"
         d="M 0,800 H 800 V 0 H 0 Z" />
    </clipPath>
    <clipPath
       id="clipPath8083"
       clipPathUnits="userSpaceOnUse">
      <path
         inkscape:connector-curvature="0"
         id="path8081"
         d="m 619.584,672.371 c 0,-6.929 5.617,-12.546 12.546,-12.546 v 0 c 6.929,0 12.547,5.617 12.547,12.546 v 0 c 0,6.929 -5.618,12.547 -12.547,12.547 v 0 c -6.929,0 -12.546,-5.618 -12.546,-12.547" />
    </clipPath>
    <clipPath
       id="clipPath8095"
       clipPathUnits="userSpaceOnUse">
      <path
         inkscape:connector-curvature="0"
         id="path8093"
         d="M 0,800 H 800 V 0 H 0 Z" />
    </clipPath>
    <clipPath
       id="clipPath8115"
       clipPathUnits="userSpaceOnUse">
      <path
         inkscape:connector-curvature="0"
         id="path8113"
         d="M 312.797,97.0714 H 502.869 V 66.4047 H 312.797 Z" />
    </clipPath>
    <clipPath
       id="clipPath8259"
       clipPathUnits="userSpaceOnUse">
      <path
         inkscape:connector-curvature="0"
         id="path8257"
         d="m 356.969,247.095 c 0,-5.969 4.838,-10.807 10.808,-10.807 v 0 c 5.969,0 10.807,4.838 10.807,10.807 v 0 c 0,5.97 -4.838,10.808 -10.807,10.808 v 0 c -5.97,0 -10.808,-4.838 -10.808,-10.808" />
    </clipPath>
    <clipPath
       id="clipPath8271"
       clipPathUnits="userSpaceOnUse">
      <path
         inkscape:connector-curvature="0"
         id="path8269"
         d="M 0,800 H 800 V 0 H 0 Z" />
    </clipPath>
    <clipPath
       id="clipPath8287"
       clipPathUnits="userSpaceOnUse">
      <path
         inkscape:connector-curvature="0"
         id="path8285"
         d="m 428.578,245.846 c 0,-5.969 4.839,-10.808 10.808,-10.808 v 0 c 5.969,0 10.808,4.839 10.808,10.808 v 0 c 0,5.969 -4.839,10.808 -10.808,10.808 v 0 c -5.969,0 -10.808,-4.839 -10.808,-10.808" />
    </clipPath>
    <clipPath
       id="clipPath8299"
       clipPathUnits="userSpaceOnUse">
      <path
         inkscape:connector-curvature="0"
         id="path8297"
         d="M 0,800 H 800 V 0 H 0 Z" />
    </clipPath>
    <clipPath
       id="clipPath8315"
       clipPathUnits="userSpaceOnUse">
      <path
         inkscape:connector-curvature="0"
         id="path8313"
         d="m 396.995,287.47 c 0,-5.426 4.398,-9.825 9.825,-9.825 v 0 c 5.426,0 9.825,4.399 9.825,9.825 v 0 c 0,5.426 -4.399,9.825 -9.825,9.825 v 0 c -5.427,0 -9.825,-4.399 -9.825,-9.825" />
    </clipPath>
    <clipPath
       id="clipPath8327"
       clipPathUnits="userSpaceOnUse">
      <path
         inkscape:connector-curvature="0"
         id="path8325"
         d="M 0,800 H 800 V 0 H 0 Z" />
    </clipPath>
    <clipPath
       id="clipPath8335"
       clipPathUnits="userSpaceOnUse">
      <path
         inkscape:connector-curvature="0"
         id="path8333"
         d="M 559.168,97.0714 H 749.24 V 66.4047 H 559.168 Z" />
    </clipPath>
    <clipPath
       id="clipPath8551"
       clipPathUnits="userSpaceOnUse">
      <path
         inkscape:connector-curvature="0"
         id="path8549"
         d="m 611.91,240.883 h 19.298 V 228.907 H 611.91 Z" />
    </clipPath>
    <clipPath
       id="clipPath8567"
       clipPathUnits="userSpaceOnUse">
      <path
         inkscape:connector-curvature="0"
         id="path8565"
         d="m 696.496,242.184 h 19.186 v -11.921 h -19.186 z" />
    </clipPath>
    <clipPath
       id="clipPath8583"
       clipPathUnits="userSpaceOnUse">
      <path
         inkscape:connector-curvature="0"
         id="path8581"
         d="M 59.1069,97.0714 H 249.179 V 66.4047 H 59.1069 Z" />
    </clipPath>
    <clipPath
       id="clipPath8679"
       clipPathUnits="userSpaceOnUse">
      <path
         inkscape:connector-curvature="0"
         id="path8677"
         d="m 139.007,320.972 c 0,-7.718 6.257,-13.975 13.975,-13.975 v 0 c 7.718,0 13.976,6.257 13.976,13.975 v 0 c 0,7.719 -6.258,13.976 -13.976,13.976 v 0 c -7.718,0 -13.975,-6.257 -13.975,-13.976" />
    </clipPath>
    <clipPath
       id="clipPath8691"
       clipPathUnits="userSpaceOnUse">
      <path
         inkscape:connector-curvature="0"
         id="path8689"
         d="M 0,800 H 800 V 0 H 0 Z" />
    </clipPath>
    <clipPath
       id="clipPath8811"
       clipPathUnits="userSpaceOnUse">
      <path
         inkscape:connector-curvature="0"
         id="path8809"
         d="m 124.031,202.56 c 0,-7.719 6.257,-13.976 13.975,-13.976 v 0 c 7.718,0 13.905,6.258 13.975,13.976 v 0 c 0.069,7.612 -6.215,13.912 -13.975,13.975 v 0 c -0.039,0.001 -0.077,0.001 -0.116,0.001 v 0 c -7.664,-0.001 -13.859,-6.296 -13.859,-13.976" />
    </clipPath>
    <clipPath
       id="clipPath8823"
       clipPathUnits="userSpaceOnUse">
      <path
         inkscape:connector-curvature="0"
         id="path8821"
         d="M 0,800 H 800 V 0 H 0 Z" />
    </clipPath>
    <clipPath
       id="clipPath13912"
       clipPathUnits="userSpaceOnUse">
      <path
         inkscape:connector-curvature="0"
         id="path13910"
         d="M 0,500 H 500 V 0 H 0 Z" />
    </clipPath>
    <clipPath
       id="clipPath16460"
       clipPathUnits="userSpaceOnUse">
      <path
         inkscape:connector-curvature="0"
         id="path16458"
         d="M 0,500 H 500 V 0 H 0 Z" />
    </clipPath>
    <filter
       style="color-interpolation-filters:sRGB"
       inkscape:label="Invert"
       id="filter39200">
      <feColorMatrix
         type="hueRotate"
         values="180"
         result="color1"
         id="feColorMatrix39196" />
      <feColorMatrix
         values="-1 0 0 0 1 0 -1 0 0 1 0 0 -1 0 1 -0.21 -0.72 -0.07 2 0 "
         result="color2"
         id="feColorMatrix39198" />
    </filter>
    <filter
       style="color-interpolation-filters:sRGB"
       inkscape:label="Invert"
       id="filter39206">
      <feColorMatrix
         type="hueRotate"
         values="180"
         result="color1"
         id="feColorMatrix39202" />
      <feColorMatrix
         values="-1 0 0 0 1 0 -1 0 0 1 0 0 -1 0 1 -0.21 -0.72 -0.07 2 0 "
         result="color2"
         id="feColorMatrix39204" />
    </filter>
    <filter
       style="color-interpolation-filters:sRGB"
       inkscape:label="Invert"
       id="filter39223">
      <feColorMatrix
         type="hueRotate"
         values="180"
         result="color1"
         id="feColorMatrix39219" />
      <feColorMatrix
         values="-1 0 0 0 1 0 -1 0 0 1 0 0 -1 0 1 -0.21 -0.72 -0.07 2 0 "
         result="color2"
         id="feColorMatrix39221" />
    </filter>
    <filter
       style="color-interpolation-filters:sRGB"
       inkscape:label="Drop Shadow"
       id="filter39313">
      <feFlood
         flood-opacity="0.498039"
         flood-color="rgb(0,0,0)"
         result="flood"
         id="feFlood39303" />
      <feComposite
         in="flood"
         in2="SourceGraphic"
         operator="in"
         result="composite1"
         id="feComposite39305" />
      <feGaussianBlur
         in="composite1"
         stdDeviation="5.9"
         result="blur"
         id="feGaussianBlur39307" />
      <feOffset
         dx="0"
         dy="0"
         result="offset"
         id="feOffset39309" />
      <feComposite
         in="SourceGraphic"
         in2="offset"
         operator="over"
         result="composite2"
         id="feComposite39311" />
    </filter>
    <clipPath
       id="clipPath8583-7"
       clipPathUnits="userSpaceOnUse">
      <path
         inkscape:connector-curvature="0"
         id="path8581-0"
         d="M 59.1069,97.0714 H 249.179 V 66.4047 H 59.1069 Z" />
    </clipPath>
    <clipPath
       id="clipPath8679-0"
       clipPathUnits="userSpaceOnUse">
      <path
         inkscape:connector-curvature="0"
         id="path8677-6"
         d="m 139.007,320.972 c 0,-7.718 6.257,-13.975 13.975,-13.975 v 0 c 7.718,0 13.976,6.257 13.976,13.975 v 0 c 0,7.719 -6.258,13.976 -13.976,13.976 v 0 c -7.718,0 -13.975,-6.257 -13.975,-13.976" />
    </clipPath>
    <clipPath
       id="clipPath8691-1"
       clipPathUnits="userSpaceOnUse">
      <path
         inkscape:connector-curvature="0"
         id="path8689-8"
         d="M 0,800 H 800 V 0 H 0 Z" />
    </clipPath>
    <clipPath
       id="clipPath8811-9"
       clipPathUnits="userSpaceOnUse">
      <path
         inkscape:connector-curvature="0"
         id="path8809-7"
         d="m 124.031,202.56 c 0,-7.719 6.257,-13.976 13.975,-13.976 v 0 c 7.718,0 13.905,6.258 13.975,13.976 v 0 c 0.069,7.612 -6.215,13.912 -13.975,13.975 v 0 c -0.039,0.001 -0.077,0.001 -0.116,0.001 v 0 c -7.664,-0.001 -13.859,-6.296 -13.859,-13.976" />
    </clipPath>
    <clipPath
       id="clipPath8823-2"
       clipPathUnits="userSpaceOnUse">
      <path
         inkscape:connector-curvature="0"
         id="path8821-0"
         d="M 0,800 H 800 V 0 H 0 Z" />
    </clipPath>
    <clipPath
       id="clipPath8115-8"
       clipPathUnits="userSpaceOnUse">
      <path
         inkscape:connector-curvature="0"
         id="path8113-1"
         d="M 312.797,97.0714 H 502.869 V 66.4047 H 312.797 Z" />
    </clipPath>
    <clipPath
       id="clipPath8259-5"
       clipPathUnits="userSpaceOnUse">
      <path
         inkscape:connector-curvature="0"
         id="path8257-8"
         d="m 356.969,247.095 c 0,-5.969 4.838,-10.807 10.808,-10.807 v 0 c 5.969,0 10.807,4.838 10.807,10.807 v 0 c 0,5.97 -4.838,10.808 -10.807,10.808 v 0 c -5.97,0 -10.808,-4.838 -10.808,-10.808" />
    </clipPath>
    <clipPath
       id="clipPath8271-8"
       clipPathUnits="userSpaceOnUse">
      <path
         inkscape:connector-curvature="0"
         id="path8269-4"
         d="M 0,800 H 800 V 0 H 0 Z" />
    </clipPath>
    <clipPath
       id="clipPath8287-5"
       clipPathUnits="userSpaceOnUse">
      <path
         inkscape:connector-curvature="0"
         id="path8285-8"
         d="m 428.578,245.846 c 0,-5.969 4.839,-10.808 10.808,-10.808 v 0 c 5.969,0 10.808,4.839 10.808,10.808 v 0 c 0,5.969 -4.839,10.808 -10.808,10.808 v 0 c -5.969,0 -10.808,-4.839 -10.808,-10.808" />
    </clipPath>
    <clipPath
       id="clipPath8299-1"
       clipPathUnits="userSpaceOnUse">
      <path
         inkscape:connector-curvature="0"
         id="path8297-9"
         d="M 0,800 H 800 V 0 H 0 Z" />
    </clipPath>
    <clipPath
       id="clipPath8315-9"
       clipPathUnits="userSpaceOnUse">
      <path
         inkscape:connector-curvature="0"
         id="path8313-8"
         d="m 396.995,287.47 c 0,-5.426 4.398,-9.825 9.825,-9.825 v 0 c 5.426,0 9.825,4.399 9.825,9.825 v 0 c 0,5.426 -4.399,9.825 -9.825,9.825 v 0 c -5.427,0 -9.825,-4.399 -9.825,-9.825" />
    </clipPath>
    <clipPath
       id="clipPath7387-0"
       clipPathUnits="userSpaceOnUse">
      <path
         inkscape:connector-curvature="0"
         id="path7385-1"
         d="M 311.99,457.865 H 511.85 V 429.577 H 311.99 Z" />
    </clipPath>
    <clipPath
       id="clipPath7443-5"
       clipPathUnits="userSpaceOnUse">
      <path
         inkscape:connector-curvature="0"
         id="path7441-9"
         d="m 418.079,561.126 c 0,-8.146 6.606,-14.528 14.75,-14.75 v 0 c 7.031,-0.191 14.596,6.578 14.75,14.75 v 0 c 0.152,8.145 -6.604,14.75 -14.75,14.75 v 0 c -8.147,0 -14.75,-6.604 -14.75,-14.75" />
    </clipPath>
    <clipPath
       id="clipPath7463-5"
       clipPathUnits="userSpaceOnUse">
      <path
         inkscape:connector-curvature="0"
         id="path7461-0"
         d="m 356.574,530.523 h 25.521 v -19.679 h -25.521 z" />
    </clipPath>
    <clipPath
       id="clipPath7479-0"
       clipPathUnits="userSpaceOnUse">
      <path
         inkscape:connector-curvature="0"
         id="path7477-6"
         d="m 452.661,530.523 h 25.52 v -19.679 h -25.52 z" />
    </clipPath>
  </defs>
  <sodipodi:namedview
     id="base"
     pagecolor="#ffffff"
     bordercolor="#666666"
     borderopacity="1.0"
     inkscape:pageopacity="0.0"
     inkscape:pageshadow="2"
     inkscape:zoom="0.60498047"
     inkscape:cx="975.36571"
     inkscape:cy="451.88237"
     inkscape:document-units="mm"
     inkscape:current-layer="layer1"
     showgrid="false"
     units="px"
     inkscape:snap-page="true"
     inkscape:snap-bbox="true"
     showguides="true"
     inkscape:guide-bbox="true"
     inkscape:snap-global="false"
     inkscape:window-width="1920"
     inkscape:window-height="1017"
     inkscape:window-x="-8"
     inkscape:window-y="-8"
     inkscape:window-maximized="1" />
  <metadata
     id="metadata5">
    <rdf:RDF>
      <cc:Work
         rdf:about="">
        <dc:format>image/svg+xml</dc:format>
        <dc:type
           rdf:resource="http://purl.org/dc/dcmitype/StillImage" />
        <dc:title></dc:title>
      </cc:Work>
    </rdf:RDF>
  </metadata>
  <g
     inkscape:label="Layer 1"
     inkscape:groupmode="layer"
     id="layer1"
     transform="translate(0,-164.70832)">
    <flowRoot
       xml:space="preserve"
       id="flowRoot5610"
       style="font-style:normal;font-variant:normal;font-weight:normal;font-stretch:normal;font-size:16px;line-height:1.25;font-family:Arial;-inkscape-font-specification:'Arial, Normal';font-variant-ligatures:normal;font-variant-caps:normal;font-variant-numeric:normal;font-feature-settings:normal;text-align:center;letter-spacing:0px;word-spacing:0px;writing-mode:lr-tb;text-anchor:middle;fill:#000000;fill-opacity:1;stroke:none"
       transform="matrix(0.07000432,0,0,0.07000432,-44.736132,382.756)"><flowRegion
         id="flowRegion5612"><rect
           id="rect5614"
           width="715.31128"
           height="203.37282"
           x="1084.655"
           y="1360.5143" /></flowRegion><flowPara
         id="flowPara5616" /></flowRoot>    <g
       id="g7383"
       transform="matrix(0.09333909,0,0,-0.09333909,153.40779,584.98859)" />
    <g
       id="g8331"
       transform="matrix(0.09333909,0,0,-0.09333909,153.40779,584.98859)" />
    <g
       id="g8547"
       transform="matrix(0.09333909,0,0,-0.09333909,153.40779,584.98859)" />
    <g
       id="g8563"
       transform="matrix(0.09333909,0,0,-0.09333909,153.40779,584.98859)" />
    <g
       id="g8579"
       transform="matrix(0.09333909,0,0,-0.09333909,153.40779,584.98859)" />
    <g
       id="g13192"
       transform="matrix(1.3611802,0,0,1.3611802,-1150.8731,-552.44259)">
      <g
         id="g13010">
        <path
           inkscape:connector-curvature="0"
           id="path7279"
           style="fill:#437f04;fill-opacity:1;fill-rule:nonzero;stroke:none;stroke-width:0.35277778"
           d="m 868.17384,569.11572 -9.54546,-8.2356 11.71504,0.54787 z" />
        <path
           inkscape:connector-curvature="0"
           id="path7283"
           style="fill:#2c5102;fill-opacity:1;fill-rule:nonzero;stroke:none;stroke-width:0.35277778"
           d="m 866.54676,561.69913 c 0,0 -0.0377,0.0607 -0.10019,0.16087 -0.0575,0.10371 -0.12594,0.25294 -0.19544,0.43356 -0.03,0.0928 -0.0631,0.19473 -0.0967,0.29845 -0.0286,0.10724 -0.0589,0.2226 -0.0896,0.33831 -0.0332,0.11607 -0.0586,0.23919 -0.0819,0.36478 -0.0314,0.12312 -0.0501,0.25223 -0.0744,0.37923 -0.0205,0.12806 -0.049,0.25541 -0.0614,0.38241 -0.0173,0.12595 -0.0342,0.25083 -0.0508,0.37218 -0.0134,0.11995 -0.0268,0.23707 -0.0399,0.34996 -0.009,0.11042 -0.0173,0.2159 -0.0254,0.31574 -0.008,0.19579 -0.0127,0.3623 -0.009,0.48154 0.007,0.12135 0.0109,0.1905 0.0109,0.1905 0,0 -0.0406,-0.0582 -0.11183,-0.16016 -0.0617,-0.10795 -0.13758,-0.27305 -0.1905,-0.48084 -0.0275,-0.10336 -0.049,-0.21696 -0.0653,-0.33796 -0.0134,-0.1203 -0.0314,-0.24906 -0.0275,-0.381 -0.004,-0.13229 -0.004,-0.26917 0.0131,-0.40675 0.01,-0.13865 0.036,-0.27693 0.0543,-0.41663 0.0321,-0.13759 0.0589,-0.27552 0.0984,-0.40923 0.0423,-0.13264 0.0861,-0.26211 0.13758,-0.38523 0.043,-0.12524 0.1136,-0.23742 0.16792,-0.34607 0.0582,-0.10795 0.12912,-0.20285 0.1905,-0.28999 0.13335,-0.17145 0.27129,-0.29139 0.37501,-0.36089 0.11042,-0.0642 0.1718,-0.0928 0.1718,-0.0928" />
        <path
           inkscape:connector-curvature="0"
           id="path7287"
           style="fill:#2c5102;fill-opacity:1;fill-rule:nonzero;stroke:none;stroke-width:0.35277778"
           d="m 862.96723,561.42795 c 0,0 -0.0261,0.0377 -0.0667,0.097 -0.0402,0.0579 -0.0903,0.14006 -0.13089,0.23883 -0.025,0.0452 -0.037,0.10478 -0.06,0.15734 -0.0201,0.0554 -0.0307,0.11854 -0.0504,0.17957 -0.0169,0.0628 -0.0332,0.1277 -0.0434,0.19791 -0.019,0.0656 -0.0289,0.13934 -0.0434,0.2099 -0.0148,0.0723 -0.0317,0.14358 -0.0434,0.21731 -0.012,0.0727 -0.0314,0.14499 -0.0487,0.21555 -0.0155,0.0709 -0.0346,0.14005 -0.0565,0.20531 -0.019,0.0663 -0.0402,0.12806 -0.0649,0.18592 -0.0427,0.11571 -0.0945,0.21061 -0.13476,0.27481 -0.0448,0.0628 -0.0706,0.0984 -0.0706,0.0984 0,0 -0.012,-0.042 -0.0335,-0.11501 -0.018,-0.072 -0.0441,-0.17216 -0.0614,-0.29139 -0.0109,-0.0596 -0.0194,-0.12524 -0.024,-0.19333 -0.007,-0.0695 -0.0124,-0.14217 -0.0102,-0.21801 3.5e-4,-0.0762 -0.001,-0.15523 0.0109,-0.23601 0.008,-0.0801 0.0233,-0.16334 0.036,-0.24589 0.0229,-0.0825 0.0406,-0.16439 0.0702,-0.24624 0.03,-0.0797 0.0674,-0.15769 0.10583,-0.23177 0.0374,-0.0748 0.0917,-0.14005 0.14006,-0.20073 0.0519,-0.0603 0.10512,-0.11148 0.16333,-0.15099 0.10795,-0.0847 0.22119,-0.12171 0.29669,-0.13476 0.0776,-0.013 0.11959,-0.0138 0.11959,-0.0138" />
        <path
           inkscape:connector-curvature="0"
           id="path7291"
           style="fill:#437f04;fill-opacity:1;fill-rule:nonzero;stroke:none;stroke-width:0.35277778"
           d="m 870.88561,555.02818 -9.97938,-12.14261 13.45036,5.1181 z" />
        <path
           inkscape:connector-curvature="0"
           id="path7295"
           style="fill:#2c5102;fill-opacity:1;fill-rule:nonzero;stroke:none;stroke-width:0.35277778"
           d="m 871.59067,547.05554 c 0,0 -0.22225,0.31821 -0.59796,0.75071 -0.0935,0.10725 -0.19191,0.22543 -0.30233,0.34361 -0.115,0.11535 -0.21272,0.25329 -0.32526,0.38417 -0.1076,0.13441 -0.2346,0.26282 -0.33443,0.41099 -0.0998,0.14711 -0.20109,0.29668 -0.30233,0.44591 -0.11748,0.1397 -0.17957,0.3108 -0.26282,0.46672 -0.078,0.15911 -0.17004,0.30868 -0.22472,0.47378 -0.0607,0.16122 -0.127,0.31433 -0.1905,0.46179 -0.0526,0.15275 -0.10619,0.29669 -0.15981,0.42863 -0.10125,0.26458 -0.20179,0.48789 -0.27305,0.63958 -0.0751,0.15134 -0.11818,0.23813 -0.11818,0.23813 0,0 0.006,-0.097 0.0169,-0.26635 0.0145,-0.16898 0.0377,-0.40323 0.0822,-0.68898 0.0198,-0.14287 0.0452,-0.29739 0.0762,-0.45931 0.037,-0.16299 0.0833,-0.33479 0.13511,-0.51118 0.0413,-0.17921 0.12065,-0.35595 0.20603,-0.53269 0.0882,-0.17533 0.15628,-0.36619 0.28045,-0.52317 0.11677,-0.16122 0.23354,-0.32244 0.3482,-0.48119 0.12311,-0.15099 0.2674,-0.27481 0.3944,-0.40711 0.12806,-0.13123 0.26,-0.24976 0.39017,-0.3503 0.12736,-0.10478 0.25365,-0.19721 0.3683,-0.2847 0.4572,-0.34325 0.7934,-0.53904 0.7934,-0.53904" />
        <path
           inkscape:connector-curvature="0"
           id="path7299"
           style="fill:#2c5102;fill-opacity:1;fill-rule:nonzero;stroke:none;stroke-width:0.35277778"
           d="m 867.90266,545.64542 c 0,0 -0.0522,0.0293 -0.13723,0.0769 -0.0829,0.0501 -0.19156,0.127 -0.30833,0.22965 -0.0614,0.0452 -0.11536,0.11642 -0.18203,0.1711 -0.0596,0.0653 -0.12453,0.13582 -0.18874,0.20602 -0.0646,0.0723 -0.13123,0.14641 -0.19226,0.22966 -0.0684,0.0755 -0.13018,0.16016 -0.19403,0.24271 -0.0656,0.0815 -0.12947,0.1651 -0.19015,0.24906 -0.0575,0.0864 -0.12453,0.1644 -0.18132,0.24589 -0.0586,0.0794 -0.11536,0.15663 -0.1711,0.23213 -0.055,0.0744 -0.10231,0.1464 -0.15487,0.21061 -0.0921,0.12841 -0.17392,0.24235 -0.23319,0.3249 -0.0575,0.0829 -0.0903,0.13053 -0.0903,0.13053 0,0 -0.004,-0.0589 -0.0102,-0.16228 0.003,-0.1023 0.0155,-0.25012 0.0593,-0.4191 0.0222,-0.0836 0.0462,-0.17638 0.0836,-0.26775 0.0335,-0.0935 0.0727,-0.19121 0.12382,-0.28611 0.0462,-0.0981 0.10019,-0.19614 0.16263,-0.29104 0.0631,-0.0945 0.12982,-0.18909 0.19932,-0.28222 0.0759,-0.0882 0.14923,-0.1778 0.23107,-0.25965 0.0811,-0.0811 0.16933,-0.15451 0.25435,-0.22507 0.0836,-0.072 0.18168,-0.12382 0.26635,-0.17886 0.0928,-0.0483 0.1771,-0.0935 0.26529,-0.12065 0.16969,-0.0635 0.3242,-0.0794 0.42757,-0.0751 0.10548,0.008 0.16051,0.0187 0.16051,0.0187" />
        <path
           inkscape:connector-curvature="0"
           id="path7303"
           style="fill:#2c5102;fill-opacity:1;fill-rule:nonzero;stroke:none;stroke-width:0.35277778"
           d="m 864.10617,544.23529 c 0,0 -0.0169,0.0328 -0.042,0.0818 -0.0279,0.0498 -0.0642,0.11466 -0.10231,0.18274 -0.0212,0.036 -0.0409,0.0762 -0.0674,0.11078 -0.0254,0.0377 -0.0444,0.0854 -0.0744,0.12276 -0.0282,0.0395 -0.0589,0.0776 -0.0847,0.12312 l -0.0924,0.12206 c -0.0356,0.037 -0.0646,0.0794 -0.0967,0.11818 -0.0289,0.0409 -0.0709,0.0734 -0.10089,0.10972 -0.0303,0.037 -0.0646,0.0698 -0.10054,0.10019 -0.0356,0.0314 -0.061,0.061 -0.0946,0.0875 -0.0639,0.0557 -0.11959,0.0995 -0.15734,0.13618 -0.0455,0.0388 -0.0716,0.061 -0.0716,0.061 0,0 -0.0109,-0.0317 -0.0303,-0.0864 -0.0176,-0.0593 -0.0293,-0.14641 -0.0141,-0.23883 0.004,-0.048 0.009,-0.10372 0.0272,-0.1517 0.0138,-0.0515 0.0317,-0.10442 0.0557,-0.15663 0.0205,-0.0547 0.0487,-0.10478 0.0822,-0.15381 0.0339,-0.048 0.0649,-0.0998 0.10266,-0.14641 l 0.12241,-0.13017 c 0.0427,-0.0402 0.0917,-0.0748 0.13688,-0.10936 0.0445,-0.0356 0.0945,-0.0607 0.1397,-0.0875 0.0476,-0.0254 0.0981,-0.0416 0.14182,-0.0582 0.18062,-0.0667 0.32596,-0.0335 0.32067,-0.037" />
        <path
           inkscape:connector-curvature="0"
           id="path7307"
           style="fill:#437f04;fill-opacity:1;fill-rule:nonzero;stroke:none;stroke-width:0.35277778"
           d="m 919.04683,551.88249 14.20989,-5.42361 -12.25727,11.93201 z" />
        <path
           inkscape:connector-curvature="0"
           id="path7311"
           style="fill:#2c5102;fill-opacity:1;fill-rule:nonzero;stroke:none;stroke-width:0.35277778"
           d="m 922.24673,550.96051 c 0,0 0.0603,0.007 0.17004,0.0307 0.10689,0.0265 0.2607,0.0843 0.4198,0.19332 0.0843,0.0504 0.16052,0.11924 0.24483,0.19227 0.0741,0.0787 0.1644,0.15628 0.23319,0.25259 0.073,0.0935 0.14534,0.19226 0.21166,0.29633 0.0667,0.10477 0.1203,0.21625 0.18063,0.32526 0.0487,0.11395 0.1016,0.22613 0.14393,0.33973 0.0466,0.11183 0.079,0.22683 0.10971,0.33725 0.0346,0.10972 0.0557,0.21872 0.0762,0.32209 0.0194,0.10301 0.036,0.20108 0.0441,0.29316 0.0226,0.18203 0.0233,0.3369 0.0208,0.44555 -0.007,0.10901 -0.0109,0.17181 -0.0109,0.17181 0,0 -0.0332,-0.0533 -0.0907,-0.1457 -0.0547,-0.0931 -0.13018,-0.22578 -0.20885,-0.38594 -0.0416,-0.0797 -0.0857,-0.16545 -0.12629,-0.25753 -0.0473,-0.09 -0.0903,-0.18697 -0.13512,-0.28575 -0.0455,-0.0991 -0.0956,-0.19967 -0.14005,-0.30339 -0.043,-0.10512 -0.0956,-0.20637 -0.14358,-0.31009 -0.0501,-0.10124 -0.0945,-0.20743 -0.14958,-0.30303 -0.0466,-0.1016 -0.0981,-0.19721 -0.15063,-0.28822 -0.0519,-0.0893 -0.10372,-0.17886 -0.15205,-0.26176 -0.0579,-0.0741 -0.0988,-0.16158 -0.15346,-0.22402 -0.10019,-0.13652 -0.1972,-0.24412 -0.27164,-0.3175 -0.0758,-0.0727 -0.12206,-0.11712 -0.12206,-0.11712" />
        <path
           inkscape:connector-curvature="0"
           id="path7315"
           style="fill:#2c5102;fill-opacity:1;fill-rule:nonzero;stroke:none;stroke-width:0.35277778"
           d="m 925.71779,549.60464 c 0,0 0.0423,-0.008 0.12665,-0.009 0.0815,0.004 0.20002,0.0293 0.32702,0.0931 0.0589,0.0346 0.12982,0.0698 0.1898,0.12065 0.0596,0.0501 0.13017,0.0995 0.18379,0.1644 0.0596,0.0617 0.11254,0.12982 0.16828,0.19861 0.0494,0.073 0.0967,0.14817 0.14182,0.22472 0.0388,0.0794 0.079,0.1584 0.11147,0.23883 0.037,0.0787 0.0586,0.16228 0.0804,0.24201 0.0243,0.079 0.0363,0.15945 0.0469,0.23495 0.009,0.0765 0.0166,0.14781 0.0134,0.21625 0.002,0.13511 -0.0208,0.24941 -0.0427,0.32597 -0.0289,0.0755 -0.0452,0.11853 -0.0452,0.11853 0,0 -0.0219,-0.0395 -0.0596,-0.10866 -0.0381,-0.0688 -0.09,-0.16298 -0.14605,-0.26493 -0.03,-0.0529 -0.0646,-0.10936 -0.0931,-0.17004 -0.0367,-0.0589 -0.0681,-0.12206 -0.10196,-0.18733 -0.0353,-0.0646 -0.0723,-0.13017 -0.10583,-0.19896 -0.0321,-0.0691 -0.0706,-0.13617 -0.10795,-0.20391 -0.0342,-0.0688 -0.0706,-0.13652 -0.1083,-0.20143 -0.0346,-0.0667 -0.0677,-0.13406 -0.10619,-0.19333 -0.0346,-0.0596 -0.0709,-0.12206 -0.10336,-0.1785 -0.0339,-0.0529 -0.0688,-0.1076 -0.0998,-0.15663 -0.067,-0.0921 -0.12876,-0.1704 -0.18062,-0.22331 -0.0543,-0.0501 -0.0889,-0.0822 -0.0889,-0.0822" />
        <path
           inkscape:connector-curvature="0"
           id="path7319"
           style="fill:#2c5102;fill-opacity:1;fill-rule:nonzero;stroke:none;stroke-width:0.35277778"
           d="m 929.7312,547.97756 c 0,0 0.11183,-0.024 0.25259,0.0219 0.0335,0.0131 0.073,0.0258 0.10795,0.0473 0.037,0.0198 0.0751,0.043 0.10689,0.0744 0.0317,0.031 0.0691,0.0614 0.0974,0.0984 l 0.0783,0.11818 0.0512,0.12947 c 0.0194,0.042 0.0205,0.0875 0.0264,0.13017 0.006,0.042 0.01,0.084 0.003,0.12383 -0.002,0.0391 -0.008,0.0769 -0.018,0.11147 -0.0134,0.0688 -0.0455,0.12665 -0.067,0.16651 -0.0268,0.0402 -0.042,0.0632 -0.042,0.0632 0,0 -0.0222,-0.0162 -0.0617,-0.0448 -0.036,-0.0282 -0.0804,-0.0698 -0.12382,-0.11712 -0.024,-0.0229 -0.0459,-0.0483 -0.0646,-0.0755 -0.0208,-0.0275 -0.0448,-0.0526 -0.061,-0.0818 -0.0194,-0.0279 -0.0374,-0.0575 -0.0529,-0.0861 l -0.0452,-0.0882 -0.0413,-0.0875 c -0.007,-0.0335 -0.0226,-0.0603 -0.0342,-0.0903 -0.0145,-0.0272 -0.0155,-0.0653 -0.0296,-0.0917 -0.0127,-0.0279 -0.0187,-0.061 -0.0272,-0.0907 -0.0363,-0.1143 -0.055,-0.23107 -0.055,-0.23107" />
        <path
           inkscape:connector-curvature="0"
           id="path7323"
           style="fill:#437f04;fill-opacity:1;fill-rule:nonzero;stroke:none;stroke-width:0.35277778"
           d="m 921.43319,562.83811 9.65376,0.9144 -9.00289,6.35317 z" />
        <path
           inkscape:connector-curvature="0"
           id="path7327"
           style="fill:#2c5102;fill-opacity:1;fill-rule:nonzero;stroke:none;stroke-width:0.35277778"
           d="m 924.63306,563.38044 c 0,0 0.0423,0.0469 0.11007,0.13582 0.0624,0.0903 0.17533,0.2166 0.2487,0.39229 0.0402,0.0868 0.0875,0.18097 0.12806,0.28363 0.0399,0.10301 0.0734,0.21378 0.10301,0.3302 0.0303,0.11607 0.0621,0.23672 0.079,0.36089 0.0155,0.12489 0.031,0.25118 0.0466,0.37783 0.002,0.12735 0.003,0.25435 0.005,0.37923 0.006,0.12524 -0.0123,0.24765 -0.0254,0.36583 -0.0131,0.11819 -0.025,0.23213 -0.0512,0.33832 -0.0229,0.10654 -0.0483,0.20673 -0.0755,0.29774 -0.0444,0.1838 -0.11959,0.32985 -0.16298,0.4318 -0.0508,0.0998 -0.0797,0.15699 -0.0797,0.15699 0,0 -0.008,-0.0639 -0.024,-0.17533 -0.0145,-0.11113 -0.0173,-0.26494 -0.0335,-0.44838 -0.008,-0.0921 -0.013,-0.1905 -0.0141,-0.29351 -0.004,-0.10372 -0.0169,-0.21273 -0.0176,-0.32421 -0.005,-0.11183 -0.01,-0.22718 -0.0152,-0.3436 -0.005,-0.11642 -0.0102,-0.2346 -0.0155,-0.35278 -0.009,-0.11747 -0.018,-0.2353 -0.0268,-0.35101 3.5e-4,-0.11748 -0.0145,-0.23001 -0.0279,-0.33973 -0.0169,-0.10901 -0.012,-0.21978 -0.0286,-0.31997 -0.0183,-0.0995 -0.0268,-0.1972 -0.0378,-0.28716 -0.0127,-0.18344 -0.0547,-0.32773 -0.0645,-0.43921 -0.0123,-0.10936 -0.0198,-0.17568 -0.0198,-0.17568" />
        <path
           inkscape:connector-curvature="0"
           id="path7331"
           style="fill:#2c5102;fill-opacity:1;fill-rule:nonzero;stroke:none;stroke-width:0.35277778"
           d="m 927.07369,563.65165 c -0.008,10e-4 0.16298,-0.0325 0.34431,0.11501 0.0402,0.0349 0.0896,0.0741 0.12594,0.12276 0.036,0.0483 0.0822,0.0984 0.10866,0.15628 0.0325,0.0575 0.0586,0.11712 0.0864,0.17851 0.0215,0.0632 0.0402,0.127 0.0579,0.1912 0.0113,0.0653 0.0236,0.13018 0.0307,0.19438 0.0106,0.0635 0.008,0.12771 0.006,0.18909 10e-4,0.0614 -0.008,0.12101 -0.0176,0.1771 -0.009,0.0561 -0.0212,0.10865 -0.0377,0.15698 -0.0282,0.097 -0.0698,0.17533 -0.1023,0.22825 -0.0377,0.0512 -0.0596,0.0801 -0.0596,0.0801 0,0 -0.0162,-0.0314 -0.0452,-0.0868 -0.0264,-0.054 -0.0631,-0.12806 -0.0949,-0.21449 -0.019,-0.0434 -0.0367,-0.0896 -0.0508,-0.13829 -0.0198,-0.0483 -0.0339,-0.0995 -0.048,-0.15169 -0.0148,-0.0526 -0.0321,-0.10584 -0.0423,-0.16052 -0.01,-0.055 -0.024,-0.10901 -0.0371,-0.16369 -0.01,-0.0547 -0.0201,-0.10936 -0.0324,-0.16192 -0.008,-0.0533 -0.0159,-0.10689 -0.0282,-0.15522 -0.008,-0.0469 -0.0176,-0.0988 -0.0261,-0.14464 -0.009,-0.0423 -0.0183,-0.0889 -0.0268,-0.12983 -0.0208,-0.0776 -0.042,-0.14816 -0.066,-0.19967 -0.0268,-0.0497 -0.0444,-0.0829 -0.0444,-0.0829" />
        <path
           inkscape:connector-curvature="0"
           id="path7335"
           style="fill:#437f04;fill-opacity:1;fill-rule:nonzero;stroke:none;stroke-width:0.35277778"
           d="m 879.56331,544.58204 1.84397,-15.83337 5.74887,13.53326 z" />
        <path
           inkscape:connector-curvature="0"
           id="path7339"
           style="fill:#2c5102;fill-opacity:1;fill-rule:nonzero;stroke:none;stroke-width:0.35277778"
           d="m 879.88874,541.14387 c 0,0 0.0635,-0.0706 0.17074,-0.18979 0.11713,-0.11078 0.26565,-0.31186 0.50765,-0.45756 0.11677,-0.0797 0.24271,-0.16968 0.38206,-0.25611 0.14041,-0.0829 0.29598,-0.15346 0.45791,-0.22684 0.16157,-0.0737 0.32949,-0.14958 0.50694,-0.20214 0.1778,-0.0536 0.35842,-0.1083 0.53869,-0.16298 0.1845,-0.0353 0.36865,-0.0709 0.54998,-0.10584 0.18062,-0.0409 0.36195,-0.0526 0.53693,-0.0667 0.17427,-0.0152 0.3429,-0.0303 0.50341,-0.0303 0.16051,-7.1e-4 0.31221,0.002 0.45226,0.01 0.2787,0.003 0.51118,0.0473 0.67275,0.0699 0.16087,0.0293 0.25259,0.0462 0.25259,0.0462 0,0 -0.091,0.0212 -0.25083,0.0589 -0.16122,0.0311 -0.38876,0.0751 -0.6544,0.12665 -0.13441,0.0282 -0.2794,0.0543 -0.43321,0.078 -0.15275,0.0293 -0.31256,0.0677 -0.47872,0.0956 -0.16616,0.0307 -0.33726,0.0628 -0.50871,0.10302 -0.17215,0.037 -0.34713,0.0744 -0.52175,0.11218 -0.17216,0.0462 -0.34396,0.0924 -0.5133,0.13794 -0.17356,0.0342 -0.33478,0.0914 -0.49177,0.1464 -0.15522,0.0589 -0.3175,0.091 -0.4579,0.15028 -0.13794,0.0631 -0.27376,0.11465 -0.399,0.16545 -0.25999,0.0868 -0.43956,0.2212 -0.59019,0.28575 -0.14605,0.0709 -0.23213,0.11254 -0.23213,0.11254" />
        <path
           inkscape:connector-curvature="0"
           id="path7343"
           style="fill:#2c5102;fill-opacity:1;fill-rule:nonzero;stroke:none;stroke-width:0.35277778"
           d="m 880.48533,537.45586 c 0,0 0.0346,-0.0501 0.10195,-0.13229 0.0695,-0.079 0.16299,-0.20497 0.3041,-0.31785 0.0691,-0.0582 0.14287,-0.12453 0.22683,-0.18627 0.0829,-0.0628 0.17533,-0.12277 0.27376,-0.17992 0.0984,-0.0564 0.19897,-0.11959 0.30903,-0.16721 0.11077,-0.0466 0.22331,-0.0938 0.33585,-0.14147 0.11818,-0.0325 0.23671,-0.0649 0.35313,-0.097 0.11465,-0.0374 0.23565,-0.0466 0.35101,-0.0575 0.11536,-0.0109 0.22507,-0.0261 0.33232,-0.018 0.10689,0.006 0.20708,0.0152 0.2988,0.0286 0.18274,0.01 0.33091,0.0864 0.43074,0.11783 0.0977,0.0423 0.15346,0.0663 0.15346,0.0663 0,0 -0.06,0.0138 -0.16545,0.0381 -0.10407,0.0275 -0.24518,0.0296 -0.41205,0.0797 -0.0829,0.0222 -0.1718,0.042 -0.26493,0.0582 -0.0931,0.0205 -0.18909,0.0586 -0.28963,0.0808 -0.10019,0.0258 -0.2025,0.0529 -0.30621,0.0886 -0.10372,0.0324 -0.2092,0.0653 -0.31468,0.0981 -0.10442,0.0381 -0.20885,0.0762 -0.31186,0.11359 -0.10654,0.0286 -0.20567,0.0734 -0.30339,0.11254 -0.0956,0.0434 -0.19861,0.066 -0.28716,0.10725 -0.0882,0.0406 -0.17709,0.0713 -0.25788,0.10265 -0.1658,0.0568 -0.29633,0.12101 -0.39793,0.15276 -0.0991,0.0328 -0.15981,0.0526 -0.15981,0.0526" />
        <path
           inkscape:connector-curvature="0"
           id="path7347"
           style="fill:#2c5102;fill-opacity:1;fill-rule:nonzero;stroke:none;stroke-width:0.35277778"
           d="m 880.86498,533.76785 c 0,0 0.008,-0.0363 0.0342,-0.1016 0.0261,-0.0639 0.0702,-0.16792 0.1591,-0.24518 0.0423,-0.0413 0.0882,-0.0935 0.14394,-0.13335 0.0564,-0.0339 0.1143,-0.0773 0.18026,-0.10901 0.0653,-0.037 0.13371,-0.0653 0.20356,-0.091 0.0716,-0.0215 0.14464,-0.0437 0.21731,-0.0656 0.0741,-0.0116 0.14817,-0.0229 0.22084,-0.0342 0.0727,-0.0141 0.14569,-0.0113 0.21554,-0.01 0.0695,-10e-4 0.13724,0.003 0.20109,0.0116 0.0639,0.008 0.12418,0.0201 0.17956,0.0349 0.11042,0.0222 0.20144,0.0642 0.26353,0.0935 0.061,0.0339 0.0963,0.0533 0.0963,0.0533 0,0 -0.0356,0.019 -0.0977,0.0519 -0.0617,0.0296 -0.14711,0.0656 -0.24836,0.10337 -0.0504,0.0205 -0.10442,0.0384 -0.16192,0.0533 -0.0568,0.0208 -0.11607,0.0402 -0.1778,0.0536 -0.0621,0.0155 -0.12559,0.0314 -0.18874,0.0473 -0.0639,0.0134 -0.12876,0.0272 -0.19368,0.0409 -0.0639,0.0138 -0.12735,0.0275 -0.19014,0.0413 -0.0653,0.007 -0.12806,0.0173 -0.18451,0.0342 -0.0571,0.0166 -0.11818,0.0205 -0.17462,0.0307 -0.0519,0.0152 -0.10231,0.0261 -0.1517,0.0374 -0.10442,0.0162 -0.17674,0.049 -0.24059,0.0695 -0.0639,0.0201 -0.10548,0.0332 -0.10548,0.0332" />
        <path
           inkscape:connector-curvature="0"
           id="path7351"
           style="fill:#437f04;fill-opacity:1;fill-rule:nonzero;stroke:none;stroke-width:0.35277778"
           d="m 894.2069,542.28203 6.83366,-15.42239 3.14572,16.02599 z" />
        <path
           inkscape:connector-curvature="0"
           id="path7355"
           style="fill:#2c5102;fill-opacity:1;fill-rule:nonzero;stroke:none;stroke-width:0.35277778"
           d="m 896.26786,537.94396 c 0,0 0.0896,-0.0617 0.24236,-0.16686 0.15734,-0.1016 0.38629,-0.24342 0.68121,-0.37536 0.14535,-0.0716 0.30939,-0.13547 0.48507,-0.19826 0.1771,-0.0571 0.36513,-0.12241 0.56656,-0.16193 0.20109,-0.0434 0.41134,-0.078 0.6283,-0.097 0.21414,-0.0194 0.44415,-0.0138 0.65581,-0.01 0.21238,0.0148 0.4244,0.0296 0.63324,0.0444 0.20955,0.0155 0.41592,0.0473 0.61489,0.0783 0.19967,0.0363 0.39158,0.067 0.5715,0.12206 0.18062,0.0441 0.3496,0.0952 0.5013,0.15981 0.15416,0.0526 0.28998,0.11642 0.40605,0.18415 0.11712,0.0624 0.21766,0.11712 0.29139,0.18062 0.14676,0.11818 0.23072,0.18556 0.23072,0.18556 0,0 -0.10125,-0.0332 -0.27834,-0.0917 -0.0833,-0.0353 -0.19368,-0.0568 -0.3168,-0.085 -0.121,-0.0325 -0.25894,-0.061 -0.4131,-0.0822 -0.15099,-0.0275 -0.31715,-0.0473 -0.49319,-0.0667 -0.17391,-0.0236 -0.36265,-0.0296 -0.55386,-0.0508 -0.19438,-0.012 -0.39475,-0.024 -0.5976,-0.0363 -0.20532,-0.0106 -0.41381,-0.0212 -0.6223,-0.0318 -0.20849,-0.009 -0.40146,-0.0197 -0.60078,-0.007 -0.19756,0.002 -0.39229,0.0183 -0.58067,0.0437 -0.18768,0.0258 -0.37183,0.0512 -0.54469,0.0847 -0.17145,0.0402 -0.33832,0.0649 -0.48825,0.10724 -0.30374,0.0709 -0.55668,0.14464 -0.73554,0.19367 -0.17851,0.0483 -0.28328,0.0769 -0.28328,0.0769" />
        <path
           inkscape:connector-curvature="0"
           id="path7359"
           style="fill:#2c5102;fill-opacity:1;fill-rule:nonzero;stroke:none;stroke-width:0.35277778"
           d="m 897.94917,534.20173 c 0,0 0.0462,-0.048 0.13723,-0.12806 0.0924,-0.0755 0.23566,-0.17356 0.42263,-0.25964 0.0935,-0.0438 0.1965,-0.0847 0.30833,-0.12277 0.11218,-0.0289 0.23001,-0.0762 0.35595,-0.0949 0.12523,-0.025 0.25506,-0.0469 0.38841,-0.0624 0.13299,-0.0155 0.26917,-0.0155 0.40499,-0.0233 0.13617,0.007 0.27199,0.006 0.40604,0.0215 0.13371,0.009 0.26459,0.0335 0.38982,0.0621 0.1263,0.0205 0.24589,0.0639 0.35772,0.0995 0.11148,0.0416 0.21555,0.0822 0.30727,0.13264 0.18591,0.0938 0.3242,0.20391 0.41028,0.28752 0.0794,0.0903 0.12488,0.14217 0.12488,0.14217 0,0 -0.0646,-0.0187 -0.1778,-0.0512 -0.11077,-0.0296 -0.26776,-0.0617 -0.45261,-0.0921 -0.0952,-0.012 -0.19544,-0.0247 -0.30022,-0.0381 -0.1083,-0.008 -0.22048,-0.0173 -0.33549,-0.0265 -0.11712,-0.006 -0.23742,-0.012 -0.35877,-0.018 -0.12206,-0.0102 -0.2473,-0.005 -0.37148,-0.008 -0.12453,10e-4 -0.24976,-0.004 -0.37218,0.005 -0.12347,-10e-4 -0.24412,0.004 -0.36124,0.012 -0.11571,0.007 -0.23142,0.0141 -0.33902,0.0208 -0.10583,0.0106 -0.20955,0.0212 -0.3041,0.031 -0.18838,0.0236 -0.34748,0.0497 -0.46037,0.072 -0.11218,0.0243 -0.18027,0.0392 -0.18027,0.0392" />
        <path
           inkscape:connector-curvature="0"
           id="path7363"
           style="fill:#2c5102;fill-opacity:1;fill-rule:nonzero;stroke:none;stroke-width:0.35277778"
           d="m 899.41355,531.00182 c 0,0 0.006,-0.0349 0.0321,-0.0984 0.0272,-0.0607 0.0833,-0.14253 0.17251,-0.21485 0.0444,-0.036 0.0949,-0.0716 0.15275,-0.10124 0.0575,-0.024 0.11889,-0.0625 0.18556,-0.0758 0.0663,-0.0194 0.13547,-0.0342 0.20638,-0.0459 0.0713,-0.009 0.14358,-0.008 0.2159,-0.0109 0.072,0.008 0.14429,0.0116 0.21449,0.0258 0.0705,0.009 0.13758,0.0335 0.20179,0.0575 0.0649,0.0201 0.12453,0.055 0.17886,0.0864 0.0547,0.0356 0.10442,0.0674 0.14499,0.10971 0.085,0.0751 0.13723,0.16052 0.16298,0.22155 0.019,0.0639 0.03,0.10054 0.03,0.10054 0,0 -0.036,-0.008 -0.0984,-0.0212 -0.0593,-0.0113 -0.13935,-0.0201 -0.22789,-0.03 -0.0438,-0.004 -0.0946,-0.004 -0.14111,-0.0116 -0.0522,10e-4 -0.1016,-0.005 -0.15523,-0.009 -0.0536,-0.004 -0.10795,-0.004 -0.16333,-0.01 -0.0547,-0.008 -0.11183,-0.007 -0.16792,-0.01 -0.0557,-0.003 -0.11254,-0.009 -0.16722,-0.007 -0.0557,-0.005 -0.11077,-0.008 -0.16298,-0.007 -0.0504,-10e-4 -0.10548,-0.002 -0.15417,-0.003 -0.0469,0.005 -0.097,-3.5e-4 -0.1404,0.004 -0.17322,0.005 -0.31962,0.0494 -0.31962,0.0494" />
        <path
           inkscape:connector-curvature="0"
           id="path7367"
           style="fill:#437f04;fill-opacity:1;fill-rule:nonzero;stroke:none;stroke-width:0.35277778"
           d="m 910.80301,543.63871 9.3285,-11.3351 -3.68794,15.67391 z" />
        <path
           inkscape:connector-curvature="0"
           id="path7371"
           style="fill:#2c5102;fill-opacity:1;fill-rule:nonzero;stroke:none;stroke-width:0.35277778"
           d="m 912.9182,541.41505 c 0,0 0.0691,-0.018 0.19297,-0.0416 0.12347,-0.0215 0.30233,-0.0603 0.51858,-0.054 0.10831,7e-4 0.22754,-0.005 0.35207,0.005 0.12312,0.0208 0.25612,0.0356 0.39088,0.0649 0.13759,0.0198 0.27199,0.0713 0.40993,0.12206 0.13229,0.0596 0.28328,0.0998 0.40428,0.17921 0.12383,0.0769 0.2473,0.15417 0.36901,0.23001 0.12453,0.073 0.22225,0.17039 0.32738,0.254 0.10301,0.0843 0.2032,0.16863 0.28681,0.25436 0.0875,0.0829 0.16756,0.16404 0.23953,0.242 0.14605,0.15346 0.26282,0.28011 0.34361,0.37783 0.079,0.0991 0.12417,0.15557 0.12417,0.15557 0,0 -0.0674,-0.0254 -0.18485,-0.0698 -0.1143,-0.049 -0.28469,-0.11888 -0.46708,-0.22401 -0.0931,-0.0497 -0.19191,-0.10689 -0.29351,-0.17075 -0.10336,-0.0639 -0.21096,-0.12312 -0.31785,-0.19367 -0.10936,-0.0646 -0.21837,-0.14323 -0.33161,-0.20779 -0.11289,-0.066 -0.22755,-0.13264 -0.34185,-0.19967 -0.10971,-0.0797 -0.23353,-0.11254 -0.34783,-0.1711 -0.1136,-0.0582 -0.22508,-0.11888 -0.34573,-0.14958 -0.11747,-0.0363 -0.22895,-0.085 -0.33725,-0.12453 -0.11007,-0.031 -0.21767,-0.061 -0.31574,-0.0889 -0.19614,-0.0645 -0.36653,-0.0977 -0.48613,-0.13264 -0.11853,-0.0356 -0.18979,-0.0572 -0.18979,-0.0572" />
        <path
           inkscape:connector-curvature="0"
           id="path7375"
           style="fill:#2c5102;fill-opacity:1;fill-rule:nonzero;stroke:none;stroke-width:0.35277778"
           d="m 914.9249,538.70328 c 0,0 0.0526,-0.018 0.14676,-0.0416 0.0938,-0.0183 0.23248,-0.0631 0.39793,-0.0617 0.0829,-0.002 0.17427,-0.007 0.26987,-0.002 0.096,10e-4 0.19615,0.0173 0.29916,0.036 0.10301,0.0201 0.21131,0.0353 0.31609,0.072 0.10477,0.0374 0.21096,0.0751 0.31715,0.11324 0.0991,0.0547 0.19861,0.10901 0.29633,0.16298 0.10125,0.0476 0.18309,0.12524 0.26529,0.19297 0.0804,0.0699 0.16404,0.12876 0.2226,0.2099 0.0631,0.0752 0.11959,0.14852 0.16757,0.21802 0.10513,0.13088 0.14287,0.27869 0.18239,0.36513 0.0303,0.0928 0.0476,0.14569 0.0476,0.14569 0,0 -0.048,-0.03 -0.13194,-0.0825 -0.085,-0.0494 -0.17709,-0.1397 -0.31326,-0.2159 -0.0674,-0.0388 -0.13618,-0.0829 -0.20532,-0.13194 -0.0681,-0.0504 -0.15663,-0.0822 -0.23283,-0.13229 -0.0808,-0.0452 -0.15981,-0.0956 -0.24871,-0.13511 -0.0861,-0.043 -0.17322,-0.0871 -0.26071,-0.13124 -0.091,-0.0377 -0.18168,-0.0758 -0.27128,-0.11324 -0.0861,-0.0473 -0.17886,-0.0744 -0.2667,-0.10654 -0.0896,-0.0268 -0.17075,-0.0769 -0.25506,-0.0981 -0.0836,-0.0233 -0.16193,-0.055 -0.23566,-0.0811 -0.1464,-0.0596 -0.27446,-0.0868 -0.36406,-0.12488 -0.0885,-0.0353 -0.14323,-0.0572 -0.14323,-0.0572" />
        <path
           inkscape:connector-curvature="0"
           id="path7379"
           style="fill:#2c5102;fill-opacity:1;fill-rule:nonzero;stroke:none;stroke-width:0.35277778"
           d="m 917.25705,535.82881 c 0,0 0.11359,-0.0716 0.28646,-0.0967 0.0427,-0.006 0.0903,-0.0148 0.13934,-0.0145 0.0483,10e-4 0.10196,-0.002 0.15381,0.007 0.0529,0.006 0.10725,0.0145 0.16263,0.0279 l 0.16263,0.0519 0.15417,0.0804 c 0.0519,0.0229 0.0956,0.0646 0.13829,0.10125 0.043,0.0367 0.0829,0.0713 0.11394,0.11571 0.0325,0.0423 0.06,0.085 0.0811,0.12665 0.0505,0.0744 0.0589,0.16616 0.0681,0.21801 0.002,0.0554 0.004,0.0875 0.004,0.0875 0,0 -0.0318,-0.008 -0.0871,-0.0233 -0.0547,-0.0134 -0.11042,-0.0406 -0.18803,-0.0589 -0.0388,-0.009 -0.0758,-0.0212 -0.11183,-0.0363 -0.0381,-0.0127 -0.0833,-0.0215 -0.12171,-0.0388 l -0.12382,-0.0473 -0.12629,-0.054 -0.12912,-0.0575 c -0.0402,-0.0254 -0.0822,-0.0462 -0.12418,-0.0656 -0.042,-0.0176 -0.079,-0.0487 -0.11712,-0.0699 -0.0388,-0.019 -0.0737,-0.0462 -0.1076,-0.0684 -0.13335,-0.0903 -0.22754,-0.18521 -0.22754,-0.18521" />
        <g
           id="g7395"
           transform="matrix(0.35277777,0,0,-0.35277777,748.89068,775.59387)">
          <g
             style="opacity:0.22999603"
             id="g7393"
             clip-path="url(#clipPath7387-0)">
            <g
               id="g7391"
               transform="translate(511.8502,443.7212)">
              <path
                 inkscape:connector-curvature="0"
                 id="path7389"
                 style="fill:#045495;fill-opacity:1;fill-rule:nonzero;stroke:none"
                 d="m 0,0 c 0,-7.811 -44.74,-14.144 -99.93,-14.144 -55.19,0 -99.93,6.333 -99.93,14.144 0,7.811 44.74,14.144 99.93,14.144 C -44.74,14.144 0,7.811 0,0" />
            </g>
          </g>
        </g>
        <path
           inkscape:connector-curvature="0"
           id="path7399"
           style="fill:#62bf00;fill-opacity:1;fill-rule:nonzero;stroke:none;stroke-width:0.35277778"
           d="m 867.63148,572.43755 c 0,0 -14.50799,4.39314 -14.99623,12.69153 -0.48789,8.29769 13.01679,9.43681 13.01679,9.43681 0,0 -3.98638,1.81363 -3.417,3.42865 0.56938,1.61536 4.63726,-0.58138 4.63726,-0.58138 0,0 -1.52894,3.01025 -0.39864,3.82376 1.13066,0.8135 3.86962,-2.68464 3.86962,-2.68464 0,0 0.43392,3.01131 1.32892,2.8074 0.89464,-0.20426 2.9284,-4.83129 0.32526,-7.6835 -2.60315,-2.85256 -10.27642,-3.23215 -12.62274,-5.23875 -2.34633,-2.00695 -3.4851,-7.30708 9.77547,-10.8398 z" />
        <path
           inkscape:connector-curvature="0"
           id="path7403"
           style="fill:#62bf00;fill-opacity:1;fill-rule:nonzero;stroke:none;stroke-width:0.35277778"
           d="m 921.43319,580.97989 c 0,0 9.43716,3.82376 9.65376,6.67103 0.21696,2.84727 -10.63307,5.77603 -12.57053,6.99629 -1.93745,1.22025 -3.02507,4.65843 0,6.72218 3.02507,2.0641 1.61502,-2.89843 1.61502,-2.89843 0,0 2.22744,3.43782 3.73062,2.89843 1.50319,-0.5394 -0.54398,-4.4443 -0.54398,-4.4443 0,0 3.9998,2.30188 4.89444,1.06962 0.895,-1.23225 -0.89464,-2.24931 -0.89464,-2.24931 0,0 7.64716,-3.75567 8.21654,-7.30814 0.56939,-3.55247 -8.64764,-10.79288 -13.43519,-11.85051 -4.7879,-1.05763 -2.18334,3.73309 -0.66604,4.39314" />
        <path
           inkscape:connector-curvature="0"
           id="path7407"
           style="fill:#5aa800;fill-opacity:1;fill-rule:nonzero;stroke:none;stroke-width:0.35277778"
           d="m 883.86215,600.66743 c 0,0 -0.1083,9.68093 -0.37959,11.71504 0,0 -7.34907,-2.03411 -9.46432,0.4879 -2.1149,2.522 -1.05728,5.45077 0,5.85752 1.05763,0.40675 10.41329,1.13876 12.52855,0 0.3055,-0.39476 0.79975,-16.3008 0.56938,-17.49108 -0.84137,0.0819 -3.25402,-0.56938 -3.25402,-0.56938" />
        <path
           inkscape:connector-curvature="0"
           id="path7411"
           style="fill:#5aa800;fill-opacity:1;fill-rule:nonzero;stroke:none;stroke-width:0.35277778"
           d="m 905.55064,599.73306 c 0,0 -0.21802,11.73339 -0.30092,12.56418 0,0 6.90845,-1.99954 9.07168,0.72461 2.16288,2.7245 1.32503,5.57847 0.67204,6.06601 -0.51505,0.38453 -11.08251,0.93486 -13.4373,-0.58349 -0.57891,-1.07033 1.27917,-19.10468 1.27917,-19.10468 z" />
        <path
           inkscape:connector-curvature="0"
           id="path7415"
           style="fill:#62bf00;fill-opacity:1;fill-rule:nonzero;stroke:none;stroke-width:0.35277778"
           d="m 873.92281,546.89284 c 4.31306,-4.1716 12.79948,-6.5084 26.90072,-6.07448 14.10123,0.43392 20.82658,8.78628 21.80272,21.36881 0.97649,12.58287 2.16958,33.80316 -6.07413,37.13162 -8.24406,3.32811 -37.96488,6.03991 -45.88333,-3.17994 -7.91845,-9.2202 -3.36268,-42.84627 3.25402,-49.24601" />
        <path
           inkscape:connector-curvature="0"
           id="path7419"
           style="fill:#6ecc00;fill-opacity:1;fill-rule:nonzero;stroke:none;stroke-width:0.35277778"
           d="m 875.79613,553.38589 c 3.92359,-3.79483 11.64378,-5.92067 24.47184,-5.52591 12.82806,0.39476 18.94628,7.99288 19.83423,19.43947 0.88829,11.44658 3.07516,27.95481 -4.42454,30.98235 -7.49935,3.02789 -34.53695,5.49487 -41.74032,-2.89278 -7.20337,-8.38729 -4.16066,-36.18124 1.85879,-42.00313" />
        <path
           inkscape:connector-curvature="0"
           id="path7423"
           style="fill:#569e02;fill-opacity:1;fill-rule:nonzero;stroke:none;stroke-width:0.35277778"
           d="m 916.87739,599.17595 c 0,0 0.10195,-0.0462 0.27622,-0.12524 0.16934,-0.0868 0.39688,-0.22895 0.6477,-0.42509 0.12418,-0.0998 0.25083,-0.21978 0.38665,-0.33973 0.12947,-0.13088 0.2674,-0.26317 0.40075,-0.4131 0.13865,-0.14358 0.272,-0.30198 0.40358,-0.46602 0.139,-0.15734 0.26494,-0.33196 0.39688,-0.50024 0.12594,-0.17357 0.26035,-0.34114 0.37535,-0.51858 0.11995,-0.17427 0.23919,-0.34467 0.34925,-0.514 0.1143,-0.16722 0.21061,-0.3362 0.31574,-0.49036 0.0952,-0.1584 0.18591,-0.30868 0.27023,-0.44873 0.16122,-0.28187 0.29245,-0.52106 0.38064,-0.69251 0.0864,-0.17392 0.13582,-0.27305 0.13582,-0.27305 0,0 -0.013,0.11113 -0.036,0.30551 -0.0332,0.19297 -0.0945,0.46813 -0.20602,0.78563 -0.0536,0.15946 -0.12242,0.32809 -0.19862,0.50518 -0.0815,0.17357 -0.16086,0.36231 -0.2674,0.54293 -0.0991,0.18521 -0.20497,0.37535 -0.32914,0.55774 -0.11677,0.18732 -0.254,0.36548 -0.38277,0.54963 -0.14322,0.17321 -0.2794,0.35172 -0.43074,0.5147 -0.15169,0.16228 -0.3048,0.31821 -0.4632,0.45967 -0.14922,0.15028 -0.3242,0.26529 -0.47554,0.38629 -0.16016,0.11254 -0.31891,0.20885 -0.46849,0.29034 -0.30409,0.1591 -0.58032,0.24271 -0.77399,0.27763 -0.19368,0.0198 -0.30692,0.0314 -0.30692,0.0314" />
        <path
           inkscape:connector-curvature="0"
           id="path7427"
           style="fill:#569e02;fill-opacity:1;fill-rule:nonzero;stroke:none;stroke-width:0.35277778"
           d="m 868.28232,591.7999 c 0,0 0.0395,0.12277 0.1076,0.33337 0.0709,0.20955 0.17956,0.50377 0.33549,0.84314 0.0681,0.17286 0.17639,0.34714 0.26388,0.54011 0.10195,0.18732 0.21237,0.38276 0.3302,0.58243 0.11888,0.19967 0.24341,0.40393 0.38488,0.60255 0.12735,0.20743 0.28116,0.40216 0.42333,0.60395 0.15311,0.19403 0.29528,0.39723 0.45791,0.57821 0.15557,0.18767 0.31185,0.3683 0.46813,0.5401 0.15558,0.17215 0.31609,0.32808 0.46214,0.48401 0.1584,0.14076 0.29633,0.29139 0.43956,0.40957 0.27905,0.24765 0.5267,0.44027 0.70556,0.57045 0.18168,0.12947 0.28575,0.20355 0.28575,0.20355 0,0 -0.12206,-0.0406 -0.33549,-0.11077 -0.21026,-0.0801 -0.50836,-0.21202 -0.83609,-0.42087 -0.17145,-0.0949 -0.33443,-0.22719 -0.51646,-0.35736 -0.17287,-0.13935 -0.35843,-0.2854 -0.53129,-0.45579 -0.17639,-0.16722 -0.35701,-0.34219 -0.52105,-0.53799 -0.17321,-0.18767 -0.32561,-0.39722 -0.48895,-0.59831 -0.14499,-0.21484 -0.30021,-0.42227 -0.42933,-0.64241 -0.1337,-0.21731 -0.25047,-0.43956 -0.36089,-0.65581 -0.11324,-0.21484 -0.19474,-0.43709 -0.28081,-0.64135 -0.073,-0.21131 -0.14852,-0.40675 -0.19191,-0.59725 -0.10443,-0.3743 -0.1457,-0.69709 -0.16122,-0.92111 -0.007,-0.2226 -0.0109,-0.35242 -0.0109,-0.35242" />
        <path
           inkscape:connector-curvature="0"
           id="path7431"
           style="fill:#faeb69;fill-opacity:1;fill-rule:nonzero;stroke:none;stroke-width:0.35277778"
           d="m 908.01804,581.8909 c 0,6.50875 -5.2765,11.78525 -11.78525,11.78525 -6.50875,0 -11.78524,-5.2765 -11.78524,-11.78525 0,-6.50875 5.27649,-11.78525 11.78524,-11.78525 6.50875,0 11.78525,5.2765 11.78525,11.78525" />
        <path
           inkscape:connector-curvature="0"
           id="path7435"
           style="fill:#1d1d1b;fill-opacity:1;fill-rule:nonzero;stroke:none;stroke-width:0.35277778"
           d="m 906.7865,577.64109 c -0.054,2.88325 -2.72309,5.27085 -5.20347,5.20347 -2.87267,-0.078 -5.20347,-2.32974 -5.20347,-5.20347 0,-2.87373 2.32974,-5.20347 5.20347,-5.20347 2.87373,0 5.25744,2.3301 5.20347,5.20347" />
        <g
           clip-path="url(#clipPath7443-5)"
           id="g7439"
           transform="matrix(0.35277777,0,0,-0.35277777,748.89068,775.59387)">
          <g
             transform="translate(447.5787,566.4301)"
             id="g7445">
            <path
               inkscape:connector-curvature="0"
               id="path7447"
               style="fill:#ffffff;fill-opacity:1;fill-rule:nonzero;stroke:none"
               d="m 0,0 c 0,-5.217 -4.229,-9.446 -9.446,-9.446 -5.217,0 -9.446,4.229 -9.446,9.446 0,5.217 4.229,9.446 9.446,9.446 C -4.229,9.446 0,5.217 0,0" />
          </g>
        </g>
      </g>
      <g
         transform="matrix(0.35277777,0,0,-0.35277777,748.89068,775.59387)"
         id="g7457">
        <g
           id="g7459" />
        <g
           id="g7471">
          <g
             style="opacity:0.50999499"
             id="g7469"
             clip-path="url(#clipPath7463-5)">
            <g
               id="g7467"
               transform="translate(382.0948,520.6833)">
              <path
                 inkscape:connector-curvature="0"
                 id="path7465"
                 style="fill:#d45614;fill-opacity:1;fill-rule:nonzero;stroke:none"
                 d="m 0,0 c 0,-5.434 -5.713,-9.839 -12.76,-9.839 -7.048,0 -12.761,4.405 -12.761,9.839 0,5.434 5.713,9.839 12.761,9.839 C -5.713,9.839 0,5.434 0,0" />
            </g>
          </g>
        </g>
      </g>
      <g
         transform="matrix(0.35277777,0,0,-0.35277777,748.89068,775.59387)"
         id="g7473">
        <g
           id="g7475" />
        <g
           id="g7487">
          <g
             style="opacity:0.50999499"
             id="g7485"
             clip-path="url(#clipPath7479-0)">
            <g
               id="g7483"
               transform="translate(478.1814,520.6833)">
              <path
                 inkscape:connector-curvature="0"
                 id="path7481"
                 style="fill:#d45614;fill-opacity:1;fill-rule:nonzero;stroke:none"
                 d="m 0,0 c 0,-5.434 -5.713,-9.839 -12.76,-9.839 -7.048,0 -12.761,4.405 -12.761,9.839 0,5.434 5.713,9.839 12.761,9.839 C -5.713,9.839 0,5.434 0,0" />
            </g>
          </g>
        </g>
      </g>
      <g
         transform="matrix(0.35277777,0,0,-0.35277777,890.37104,596.43706)"
         id="g7489">
        <path
           inkscape:connector-curvature="0"
           id="path7491"
           style="fill:#498e00;fill-opacity:1;fill-rule:nonzero;stroke:none"
           d="m 0,0 c 0,0 2.06,-0.733 5.107,-1.521 0.759,-0.208 1.597,-0.367 2.462,-0.572 0.873,-0.186 1.8,-0.328 2.749,-0.48 0.949,-0.157 1.935,-0.252 2.933,-0.313 0.996,-0.067 2.009,-0.12 3.015,-0.067 1.009,-0.003 2.01,0.092 2.991,0.21 0.974,0.158 1.937,0.299 2.856,0.519 0.916,0.229 1.795,0.485 2.63,0.753 0.412,0.15 0.814,0.297 1.202,0.439 0.385,0.158 0.758,0.311 1.116,0.458 1.414,0.635 2.595,1.241 3.416,1.696 0.83,0.46 1.305,0.723 1.305,0.723 0,0 -0.337,-0.431 -0.928,-1.185 -0.625,-0.725 -1.586,-1.724 -2.932,-2.715 -0.344,-0.241 -0.701,-0.491 -1.071,-0.75 -0.386,-0.234 -0.795,-0.462 -1.217,-0.697 -0.849,-0.459 -1.785,-0.883 -2.79,-1.219 -1.001,-0.348 -2.064,-0.637 -3.164,-0.821 -1.101,-0.159 -2.227,-0.287 -3.355,-0.309 -1.13,-0.023 -2.252,0.068 -3.349,0.178 -1.091,0.163 -2.155,0.361 -3.165,0.62 -1.016,0.231 -1.958,0.599 -2.85,0.917 -0.887,0.335 -1.7,0.715 -2.433,1.089 C 1.576,-1.558 0,0 0,0" />
      </g>
      <g
         transform="matrix(0.35277777,0,0,-0.35277777,889.65113,596.92519)"
         id="g7493">
        <path
           inkscape:connector-curvature="0"
           id="path7495"
           style="fill:#498e00;fill-opacity:1;fill-rule:nonzero;stroke:none"
           d="m 0,0 c 0,0 0.082,0.621 0.435,1.248 0.087,0.151 0.172,0.331 0.29,0.474 0.124,0.146 0.203,0.33 0.337,0.455 0.123,0.134 0.266,0.271 0.364,0.412 l 0.373,0.346 0.352,0.292 c 0.12,0.098 0.219,0.18 0.353,0.256 0.121,0.082 0.258,0.154 0.38,0.239 0.117,0.087 0.252,0.165 0.404,0.237 0.254,0.167 0.509,0.337 0.726,0.456 0.234,0.125 0.368,0.197 0.368,0.197 0,0 0.076,-0.126 0.209,-0.346 C 4.693,4.044 4.85,3.701 4.868,3.3 4.881,3.096 4.866,2.875 4.823,2.646 4.807,2.402 4.731,2.169 4.606,1.951 4.494,1.731 4.394,1.458 4.21,1.285 4.034,1.1 3.854,0.913 3.675,0.726 3.473,0.591 3.272,0.457 3.073,0.325 2.855,0.21 2.653,0.144 2.455,0.064 2.266,-0.021 2.036,-0.047 1.856,-0.085 1.674,-0.128 1.474,-0.125 1.299,-0.137 0.607,-0.169 0,0 0,0" />
      </g>
      <g
         transform="matrix(0.35277777,0,0,-0.35277777,901.20329,595.29811)"
         id="g7497">
        <path
           inkscape:connector-curvature="0"
           id="path7499"
           style="fill:#498e00;fill-opacity:1;fill-rule:nonzero;stroke:none"
           d="M 0,0 C 0,0 0.529,0.178 1.082,0.165 1.219,0.159 1.378,0.168 1.512,0.134 1.647,0.101 1.815,0.101 1.94,0.039 2.073,-0.013 2.209,-0.068 2.348,-0.123 L 2.712,-0.36 3.025,-0.663 C 3.133,-0.756 3.204,-0.894 3.279,-1.02 3.36,-1.138 3.419,-1.276 3.465,-1.423 3.52,-1.555 3.56,-1.698 3.583,-1.848 3.649,-2.123 3.657,-2.416 3.655,-2.631 3.641,-2.864 3.632,-2.998 3.632,-2.998 c 0,0 -0.122,-0.04 -0.335,-0.109 -0.201,-0.052 -0.476,-0.11 -0.751,-0.104 -0.147,-0.009 -0.292,0 -0.431,0.029 -0.15,0.014 -0.296,0.045 -0.428,0.104 C 1.549,-3.029 1.4,-2.986 1.284,-2.894 L 0.92,-2.638 0.607,-2.316 C 0.522,-2.187 0.439,-2.059 0.358,-1.936 0.27,-1.822 0.233,-1.653 0.173,-1.525 0.111,-1.397 0.087,-1.236 0.053,-1.102 -0.075,-0.553 0,0 0,0" />
      </g>
      <g
         transform="matrix(0.35277777,0,0,-0.35277777,884.39029,552.75234)"
         id="g7501">
        <path
           inkscape:connector-curvature="0"
           id="path7503"
           style="fill:#9dff1f;fill-opacity:1;fill-rule:nonzero;stroke:none"
           d="m 0,0 c 0,-8.151 -6.608,-14.759 -14.759,-14.759 -8.151,0 -14.759,6.608 -14.759,14.759 0,8.151 6.608,14.759 14.759,14.759 C -6.608,14.759 0,8.151 0,0" />
      </g>
      <g
         transform="matrix(0.35277777,0,0,-0.35277777,891.69565,546.45896)"
         id="g7505">
        <path
           inkscape:connector-curvature="0"
           id="path7507"
           style="fill:#9dff1f;fill-opacity:1;fill-rule:nonzero;stroke:none"
           d="m 0,0 c 0,-5.651 -4.581,-10.232 -10.232,-10.232 -5.65,0 -10.231,4.581 -10.231,10.232 0,5.651 4.581,10.232 10.231,10.232 C -4.581,10.232 0,5.651 0,0" />
      </g>
      <g
         transform="matrix(0.35277777,0,0,-0.35277777,893.2713,554.32802)"
         id="g7509">
        <path
           inkscape:connector-curvature="0"
           id="path7511"
           style="fill:#9dff1f;fill-opacity:1;fill-rule:nonzero;stroke:none"
           d="m 0,0 c 0,-2.467 -2,-4.466 -4.466,-4.466 -2.467,0 -4.467,1.999 -4.467,4.466 0,2.467 2,4.466 4.467,4.466 C -2,4.466 0,2.467 0,0" />
      </g>
      <g
         transform="matrix(0.35277777,0,0,-0.35277777,879.98636,566.03798)"
         id="g7513">
        <path
           inkscape:connector-curvature="0"
           id="path7515"
           style="fill:#9dff1f;fill-opacity:1;fill-rule:nonzero;stroke:none"
           d="m 0,0 c 0,-3.129 -2.537,-5.666 -5.666,-5.666 -3.129,0 -5.665,2.537 -5.665,5.666 0,3.129 2.536,5.666 5.665,5.666 C -2.537,5.666 0,3.129 0,0" />
      </g>
      <g
         transform="matrix(0.35277777,0,0,-0.35277777,876.7601,561.97031)"
         id="g7517">
        <path
           inkscape:connector-curvature="0"
           id="path7519"
           style="fill:#9dff1f;fill-opacity:1;fill-rule:nonzero;stroke:none"
           d="m 0,0 c 0,-3.766 -3.053,-6.819 -6.819,-6.819 -3.766,0 -6.818,3.053 -6.818,6.819 0,3.766 3.052,6.819 6.818,6.819 C -3.053,6.819 0,3.766 0,0" />
      </g>
      <g
         transform="matrix(0.35277777,0,0,-0.35277777,874.94721,572.43755)"
         id="g7521">
        <path
           inkscape:connector-curvature="0"
           id="path7523"
           style="fill:#9dff1f;fill-opacity:1;fill-rule:nonzero;stroke:none"
           d="m 0,0 c 0,-4.694 -3.805,-8.498 -8.498,-8.498 -4.694,0 -8.499,3.804 -8.499,8.498 0,4.694 3.805,8.498 8.499,8.498 C -3.805,8.498 0,4.694 0,0" />
      </g>
      <g
         transform="matrix(0.35277777,0,0,-0.35277777,906.56061,556.36069)"
         id="g7525">
        <path
           inkscape:connector-curvature="0"
           id="path7527"
           style="fill:#9dff1f;fill-opacity:1;fill-rule:nonzero;stroke:none"
           d="m 0,0 c 0,-5.967 -4.837,-10.805 -10.805,-10.805 -5.967,0 -10.804,4.838 -10.804,10.805 0,5.967 4.837,10.805 10.804,10.805 C -4.837,10.805 0,5.967 0,0" />
      </g>
      <g
         transform="matrix(0.35277777,0,0,-0.35277777,904.30985,546.45896)"
         id="g7529">
        <path
           inkscape:connector-curvature="0"
           id="path7531"
           style="fill:#9dff1f;fill-opacity:1;fill-rule:nonzero;stroke:none"
           d="m 0,0 c 0,-4.269 -3.461,-7.73 -7.73,-7.73 -4.269,0 -7.729,3.461 -7.729,7.73 0,4.269 3.46,7.73 7.729,7.73 C -3.461,7.73 0,4.269 0,0" />
      </g>
      <g
         transform="matrix(0.35277777,0,0,-0.35277777,914.54627,552.07543)"
         id="g7533">
        <path
           inkscape:connector-curvature="0"
           id="path7535"
           style="fill:#9dff1f;fill-opacity:1;fill-rule:nonzero;stroke:none"
           d="m 0,0 c 0,-4.014 -3.254,-7.269 -7.269,-7.269 -4.014,0 -7.268,3.255 -7.268,7.269 0,4.014 3.254,7.268 7.268,7.268 C -3.254,7.268 0,4.014 0,0" />
      </g>
      <g
         transform="matrix(0.35277777,0,0,-0.35277777,915.88675,564.46516)"
         id="g7537">
        <path
           inkscape:connector-curvature="0"
           id="path7539"
           style="fill:#9dff1f;fill-opacity:1;fill-rule:nonzero;stroke:none"
           d="m 0,0 c 0,-3.397 -2.754,-6.151 -6.151,-6.151 -3.396,0 -6.15,2.754 -6.15,6.151 0,3.397 2.754,6.151 6.15,6.151 C -2.754,6.151 0,3.397 0,0" />
      </g>
      <g
         transform="matrix(0.35277777,0,0,-0.35277777,919.55038,572.43755)"
         id="g7541">
        <path
           inkscape:connector-curvature="0"
           id="path7543"
           style="fill:#9dff1f;fill-opacity:1;fill-rule:nonzero;stroke:none"
           d="m 0,0 c 0,-2.804 -2.273,-5.078 -5.078,-5.078 -2.804,0 -5.077,2.274 -5.077,5.078 0,2.804 2.273,5.078 5.077,5.078 C -2.273,5.078 0,2.804 0,0" />
      </g>
      <g
         transform="matrix(0.35277777,0,0,-0.35277777,919.55038,557.55629)"
         id="g7545">
        <path
           inkscape:connector-curvature="0"
           id="path7547"
           style="fill:#9dff1f;fill-opacity:1;fill-rule:nonzero;stroke:none"
           d="m 0,0 c 0,-4.566 -3.702,-8.268 -8.268,-8.268 -4.566,0 -8.268,3.702 -8.268,8.268 0,4.566 3.702,8.268 8.268,8.268 C -3.702,8.268 0,4.566 0,0" />
      </g>
    </g>
  </g>
</svg>
