<?xml version="1.0" encoding="UTF-8" standalone="no"?>
<!-- Created with Inkscape (http://www.inkscape.org/) -->

<svg
   xmlns:dc="http://purl.org/dc/elements/1.1/"
   xmlns:cc="http://creativecommons.org/ns#"
   xmlns:rdf="http://www.w3.org/1999/02/22-rdf-syntax-ns#"
   xmlns:svg="http://www.w3.org/2000/svg"
   xmlns="http://www.w3.org/2000/svg"
   xmlns:sodipodi="http://sodipodi.sourceforge.net/DTD/sodipodi-0.dtd"
   xmlns:inkscape="http://www.inkscape.org/namespaces/inkscape"
   width="500"
   height="500"
   viewBox="0 0 132.29166 132.29167"
   version="1.1"
   id="svg8"
   inkscape:version="0.92.3 (2405546, 2018-03-11)"
   sodipodi:docname="character2.svg">
  <defs
     id="defs2">
    <clipPath
       clipPathUnits="userSpaceOnUse"
       id="clipPath5421">
      <rect
         style="opacity:1;fill:#33996c;fill-opacity:1;stroke:none;stroke-width:0.66686082;stroke-linecap:round;stroke-linejoin:round;stroke-miterlimit:4;stroke-dasharray:none;stroke-dashoffset:0;stroke-opacity:1;paint-order:normal"
         id="rect5423"
         width="799.09705"
         height="449.44067"
         x="0.51021183"
         y="75.338379" />
    </clipPath>
    <clipPath
       id="clipPath7151"
       clipPathUnits="userSpaceOnUse">
      <path
         inkscape:connector-curvature="0"
         id="path7149"
         d="M 0,800 H 800 V 0 H 0 Z" />
    </clipPath>
    <clipPath
       id="clipPath7387"
       clipPathUnits="userSpaceOnUse">
      <path
         inkscape:connector-curvature="0"
         id="path7385"
         d="M 311.99,457.865 H 511.85 V 429.577 H 311.99 Z" />
    </clipPath>
    <clipPath
       id="clipPath7443"
       clipPathUnits="userSpaceOnUse">
      <path
         inkscape:connector-curvature="0"
         id="path7441"
         d="m 418.079,561.126 c 0,-8.146 6.606,-14.528 14.75,-14.75 v 0 c 7.031,-0.191 14.596,6.578 14.75,14.75 v 0 c 0.152,8.145 -6.604,14.75 -14.75,14.75 v 0 c -8.147,0 -14.75,-6.604 -14.75,-14.75" />
    </clipPath>
    <clipPath
       id="clipPath7455"
       clipPathUnits="userSpaceOnUse">
      <path
         inkscape:connector-curvature="0"
         id="path7453"
         d="M 0,800 H 800 V 0 H 0 Z" />
    </clipPath>
    <clipPath
       id="clipPath7463"
       clipPathUnits="userSpaceOnUse">
      <path
         inkscape:connector-curvature="0"
         id="path7461"
         d="m 356.574,530.523 h 25.521 v -19.679 h -25.521 z" />
    </clipPath>
    <clipPath
       id="clipPath7479"
       clipPathUnits="userSpaceOnUse">
      <path
         inkscape:connector-curvature="0"
         id="path7477"
         d="m 452.661,530.523 h 25.52 v -19.679 h -25.52 z" />
    </clipPath>
    <clipPath
       id="clipPath7555"
       clipPathUnits="userSpaceOnUse">
      <path
         inkscape:connector-curvature="0"
         id="path7553"
         d="M 52.3269,460.399 H 268.994 V 429.732 H 52.3269 Z" />
    </clipPath>
    <clipPath
       id="clipPath7663"
       clipPathUnits="userSpaceOnUse">
      <path
         inkscape:connector-curvature="0"
         id="path7661"
         d="m 105.985,673.05 c -0.044,-8.864 7.09,-16.084 15.936,-16.127 v 0 c 8.845,-0.045 16.052,7.104 16.096,15.967 v 0 c 0.044,8.864 -7.091,16.083 -15.936,16.127 v 0 c -0.028,10e-4 -0.054,10e-4 -0.082,10e-4 v 0 c -8.807,-10e-4 -15.97,-7.133 -16.014,-15.968" />
    </clipPath>
    <clipPath
       id="clipPath7679"
       clipPathUnits="userSpaceOnUse">
      <path
         inkscape:connector-curvature="0"
         id="path7677"
         d="M 0,800 H 800 V 0 H 0 Z" />
    </clipPath>
    <clipPath
       id="clipPath7691"
       clipPathUnits="userSpaceOnUse">
      <path
         inkscape:connector-curvature="0"
         id="path7689"
         d="m 157.33,674.489 c -0.044,-8.863 7.091,-16.084 15.936,-16.128 v 0 c 8.846,-0.043 16.053,7.105 16.097,15.968 v 0 c 0.044,8.863 -7.091,16.083 -15.937,16.128 v 0 c -0.027,0 -0.053,0 -0.081,0 v 0 c -8.808,-10e-4 -15.971,-7.134 -16.015,-15.968" />
    </clipPath>
    <clipPath
       id="clipPath7707"
       clipPathUnits="userSpaceOnUse">
      <path
         inkscape:connector-curvature="0"
         id="path7705"
         d="M 0,800 H 800 V 0 H 0 Z" />
    </clipPath>
    <clipPath
       id="clipPath7723"
       clipPathUnits="userSpaceOnUse">
      <path
         inkscape:connector-curvature="0"
         id="path7721"
         d="m 184.792,650.86 c -16.758,-0.389 -21.807,-19.008 -38.325,-18.689 v 0 c -16.519,0.317 -27.174,17.669 -39.209,17.548 v 0 c -22.186,-0.222 -13.602,-54.338 39.75,-51.063 v 0 c 53.144,3.261 54.532,52.208 37.98,52.206 v 0 c -0.065,0 -0.131,0 -0.196,-0.002" />
    </clipPath>
    <clipPath
       id="clipPath7767"
       clipPathUnits="userSpaceOnUse">
      <path
         inkscape:connector-curvature="0"
         id="path7765"
         d="M 0,800 H 800 V 0 H 0 Z" />
    </clipPath>
    <clipPath
       id="clipPath7775"
       clipPathUnits="userSpaceOnUse">
      <path
         inkscape:connector-curvature="0"
         id="path7773"
         d="M 66.4852,715.148 H 231.517 V 560.89 H 66.4852 Z" />
    </clipPath>
    <clipPath
       id="clipPath7871"
       clipPathUnits="userSpaceOnUse">
      <path
         inkscape:connector-curvature="0"
         id="path7869"
         d="M 552.203,461.335 H 729.96 V 433.047 H 552.203 Z" />
    </clipPath>
    <clipPath
       id="clipPath7971"
       clipPathUnits="userSpaceOnUse">
      <path
         inkscape:connector-curvature="0"
         id="path7969"
         d="M 583.198,756.471 H 691.196 V 533.74 H 583.198 Z" />
    </clipPath>
    <clipPath
       id="clipPath8031"
       clipPathUnits="userSpaceOnUse">
      <path
         inkscape:connector-curvature="0"
         id="path8029"
         d="m 628.536,567.325 c 0,-6.929 5.617,-12.546 12.546,-12.546 v 0 c 6.929,0 12.547,5.617 12.547,12.546 v 0 c 0,6.929 -5.618,12.547 -12.547,12.547 v 0 c -6.929,0 -12.546,-5.618 -12.546,-12.547" />
    </clipPath>
    <clipPath
       id="clipPath8043"
       clipPathUnits="userSpaceOnUse">
      <path
         inkscape:connector-curvature="0"
         id="path8041"
         d="M 0,800 H 800 V 0 H 0 Z" />
    </clipPath>
    <clipPath
       id="clipPath8083"
       clipPathUnits="userSpaceOnUse">
      <path
         inkscape:connector-curvature="0"
         id="path8081"
         d="m 619.584,672.371 c 0,-6.929 5.617,-12.546 12.546,-12.546 v 0 c 6.929,0 12.547,5.617 12.547,12.546 v 0 c 0,6.929 -5.618,12.547 -12.547,12.547 v 0 c -6.929,0 -12.546,-5.618 -12.546,-12.547" />
    </clipPath>
    <clipPath
       id="clipPath8095"
       clipPathUnits="userSpaceOnUse">
      <path
         inkscape:connector-curvature="0"
         id="path8093"
         d="M 0,800 H 800 V 0 H 0 Z" />
    </clipPath>
    <clipPath
       id="clipPath8115"
       clipPathUnits="userSpaceOnUse">
      <path
         inkscape:connector-curvature="0"
         id="path8113"
         d="M 312.797,97.0714 H 502.869 V 66.4047 H 312.797 Z" />
    </clipPath>
    <clipPath
       id="clipPath8259"
       clipPathUnits="userSpaceOnUse">
      <path
         inkscape:connector-curvature="0"
         id="path8257"
         d="m 356.969,247.095 c 0,-5.969 4.838,-10.807 10.808,-10.807 v 0 c 5.969,0 10.807,4.838 10.807,10.807 v 0 c 0,5.97 -4.838,10.808 -10.807,10.808 v 0 c -5.97,0 -10.808,-4.838 -10.808,-10.808" />
    </clipPath>
    <clipPath
       id="clipPath8271"
       clipPathUnits="userSpaceOnUse">
      <path
         inkscape:connector-curvature="0"
         id="path8269"
         d="M 0,800 H 800 V 0 H 0 Z" />
    </clipPath>
    <clipPath
       id="clipPath8287"
       clipPathUnits="userSpaceOnUse">
      <path
         inkscape:connector-curvature="0"
         id="path8285"
         d="m 428.578,245.846 c 0,-5.969 4.839,-10.808 10.808,-10.808 v 0 c 5.969,0 10.808,4.839 10.808,10.808 v 0 c 0,5.969 -4.839,10.808 -10.808,10.808 v 0 c -5.969,0 -10.808,-4.839 -10.808,-10.808" />
    </clipPath>
    <clipPath
       id="clipPath8299"
       clipPathUnits="userSpaceOnUse">
      <path
         inkscape:connector-curvature="0"
         id="path8297"
         d="M 0,800 H 800 V 0 H 0 Z" />
    </clipPath>
    <clipPath
       id="clipPath8315"
       clipPathUnits="userSpaceOnUse">
      <path
         inkscape:connector-curvature="0"
         id="path8313"
         d="m 396.995,287.47 c 0,-5.426 4.398,-9.825 9.825,-9.825 v 0 c 5.426,0 9.825,4.399 9.825,9.825 v 0 c 0,5.426 -4.399,9.825 -9.825,9.825 v 0 c -5.427,0 -9.825,-4.399 -9.825,-9.825" />
    </clipPath>
    <clipPath
       id="clipPath8327"
       clipPathUnits="userSpaceOnUse">
      <path
         inkscape:connector-curvature="0"
         id="path8325"
         d="M 0,800 H 800 V 0 H 0 Z" />
    </clipPath>
    <clipPath
       id="clipPath8335"
       clipPathUnits="userSpaceOnUse">
      <path
         inkscape:connector-curvature="0"
         id="path8333"
         d="M 559.168,97.0714 H 749.24 V 66.4047 H 559.168 Z" />
    </clipPath>
    <clipPath
       id="clipPath8551"
       clipPathUnits="userSpaceOnUse">
      <path
         inkscape:connector-curvature="0"
         id="path8549"
         d="m 611.91,240.883 h 19.298 V 228.907 H 611.91 Z" />
    </clipPath>
    <clipPath
       id="clipPath8567"
       clipPathUnits="userSpaceOnUse">
      <path
         inkscape:connector-curvature="0"
         id="path8565"
         d="m 696.496,242.184 h 19.186 v -11.921 h -19.186 z" />
    </clipPath>
    <clipPath
       id="clipPath8583"
       clipPathUnits="userSpaceOnUse">
      <path
         inkscape:connector-curvature="0"
         id="path8581"
         d="M 59.1069,97.0714 H 249.179 V 66.4047 H 59.1069 Z" />
    </clipPath>
    <clipPath
       id="clipPath8679"
       clipPathUnits="userSpaceOnUse">
      <path
         inkscape:connector-curvature="0"
         id="path8677"
         d="m 139.007,320.972 c 0,-7.718 6.257,-13.975 13.975,-13.975 v 0 c 7.718,0 13.976,6.257 13.976,13.975 v 0 c 0,7.719 -6.258,13.976 -13.976,13.976 v 0 c -7.718,0 -13.975,-6.257 -13.975,-13.976" />
    </clipPath>
    <clipPath
       id="clipPath8691"
       clipPathUnits="userSpaceOnUse">
      <path
         inkscape:connector-curvature="0"
         id="path8689"
         d="M 0,800 H 800 V 0 H 0 Z" />
    </clipPath>
    <clipPath
       id="clipPath8811"
       clipPathUnits="userSpaceOnUse">
      <path
         inkscape:connector-curvature="0"
         id="path8809"
         d="m 124.031,202.56 c 0,-7.719 6.257,-13.976 13.975,-13.976 v 0 c 7.718,0 13.905,6.258 13.975,13.976 v 0 c 0.069,7.612 -6.215,13.912 -13.975,13.975 v 0 c -0.039,0.001 -0.077,0.001 -0.116,0.001 v 0 c -7.664,-0.001 -13.859,-6.296 -13.859,-13.976" />
    </clipPath>
    <clipPath
       id="clipPath8823"
       clipPathUnits="userSpaceOnUse">
      <path
         inkscape:connector-curvature="0"
         id="path8821"
         d="M 0,800 H 800 V 0 H 0 Z" />
    </clipPath>
    <clipPath
       id="clipPath13912"
       clipPathUnits="userSpaceOnUse">
      <path
         inkscape:connector-curvature="0"
         id="path13910"
         d="M 0,500 H 500 V 0 H 0 Z" />
    </clipPath>
    <clipPath
       id="clipPath16460"
       clipPathUnits="userSpaceOnUse">
      <path
         inkscape:connector-curvature="0"
         id="path16458"
         d="M 0,500 H 500 V 0 H 0 Z" />
    </clipPath>
    <filter
       style="color-interpolation-filters:sRGB"
       inkscape:label="Invert"
       id="filter39200">
      <feColorMatrix
         type="hueRotate"
         values="180"
         result="color1"
         id="feColorMatrix39196" />
      <feColorMatrix
         values="-1 0 0 0 1 0 -1 0 0 1 0 0 -1 0 1 -0.21 -0.72 -0.07 2 0 "
         result="color2"
         id="feColorMatrix39198" />
    </filter>
    <filter
       style="color-interpolation-filters:sRGB"
       inkscape:label="Invert"
       id="filter39206">
      <feColorMatrix
         type="hueRotate"
         values="180"
         result="color1"
         id="feColorMatrix39202" />
      <feColorMatrix
         values="-1 0 0 0 1 0 -1 0 0 1 0 0 -1 0 1 -0.21 -0.72 -0.07 2 0 "
         result="color2"
         id="feColorMatrix39204" />
    </filter>
    <filter
       style="color-interpolation-filters:sRGB"
       inkscape:label="Invert"
       id="filter39223">
      <feColorMatrix
         type="hueRotate"
         values="180"
         result="color1"
         id="feColorMatrix39219" />
      <feColorMatrix
         values="-1 0 0 0 1 0 -1 0 0 1 0 0 -1 0 1 -0.21 -0.72 -0.07 2 0 "
         result="color2"
         id="feColorMatrix39221" />
    </filter>
    <filter
       style="color-interpolation-filters:sRGB"
       inkscape:label="Drop Shadow"
       id="filter39313">
      <feFlood
         flood-opacity="0.498039"
         flood-color="rgb(0,0,0)"
         result="flood"
         id="feFlood39303" />
      <feComposite
         in="flood"
         in2="SourceGraphic"
         operator="in"
         result="composite1"
         id="feComposite39305" />
      <feGaussianBlur
         in="composite1"
         stdDeviation="5.9"
         result="blur"
         id="feGaussianBlur39307" />
      <feOffset
         dx="0"
         dy="0"
         result="offset"
         id="feOffset39309" />
      <feComposite
         in="SourceGraphic"
         in2="offset"
         operator="over"
         result="composite2"
         id="feComposite39311" />
    </filter>
    <clipPath
       id="clipPath8583-7"
       clipPathUnits="userSpaceOnUse">
      <path
         inkscape:connector-curvature="0"
         id="path8581-0"
         d="M 59.1069,97.0714 H 249.179 V 66.4047 H 59.1069 Z" />
    </clipPath>
    <clipPath
       id="clipPath8679-0"
       clipPathUnits="userSpaceOnUse">
      <path
         inkscape:connector-curvature="0"
         id="path8677-6"
         d="m 139.007,320.972 c 0,-7.718 6.257,-13.975 13.975,-13.975 v 0 c 7.718,0 13.976,6.257 13.976,13.975 v 0 c 0,7.719 -6.258,13.976 -13.976,13.976 v 0 c -7.718,0 -13.975,-6.257 -13.975,-13.976" />
    </clipPath>
    <clipPath
       id="clipPath8691-1"
       clipPathUnits="userSpaceOnUse">
      <path
         inkscape:connector-curvature="0"
         id="path8689-8"
         d="M 0,800 H 800 V 0 H 0 Z" />
    </clipPath>
    <clipPath
       id="clipPath8811-9"
       clipPathUnits="userSpaceOnUse">
      <path
         inkscape:connector-curvature="0"
         id="path8809-7"
         d="m 124.031,202.56 c 0,-7.719 6.257,-13.976 13.975,-13.976 v 0 c 7.718,0 13.905,6.258 13.975,13.976 v 0 c 0.069,7.612 -6.215,13.912 -13.975,13.975 v 0 c -0.039,0.001 -0.077,0.001 -0.116,0.001 v 0 c -7.664,-0.001 -13.859,-6.296 -13.859,-13.976" />
    </clipPath>
    <clipPath
       id="clipPath8823-2"
       clipPathUnits="userSpaceOnUse">
      <path
         inkscape:connector-curvature="0"
         id="path8821-0"
         d="M 0,800 H 800 V 0 H 0 Z" />
    </clipPath>
  </defs>
  <sodipodi:namedview
     id="base"
     pagecolor="#ffffff"
     bordercolor="#666666"
     borderopacity="1.0"
     inkscape:pageopacity="0.0"
     inkscape:pageshadow="2"
     inkscape:zoom="0.60498047"
     inkscape:cx="975.36571"
     inkscape:cy="451.88237"
     inkscape:document-units="mm"
     inkscape:current-layer="layer1"
     showgrid="false"
     units="px"
     inkscape:snap-page="true"
     inkscape:snap-bbox="true"
     showguides="true"
     inkscape:guide-bbox="true"
     inkscape:snap-global="false"
     inkscape:window-width="1920"
     inkscape:window-height="1017"
     inkscape:window-x="-8"
     inkscape:window-y="-8"
     inkscape:window-maximized="1" />
  <metadata
     id="metadata5">
    <rdf:RDF>
      <cc:Work
         rdf:about="">
        <dc:format>image/svg+xml</dc:format>
        <dc:type
           rdf:resource="http://purl.org/dc/dcmitype/StillImage" />
        <dc:title></dc:title>
      </cc:Work>
    </rdf:RDF>
  </metadata>
  <g
     inkscape:label="Layer 1"
     inkscape:groupmode="layer"
     id="layer1"
     transform="translate(0,-164.70832)">
    <flowRoot
       xml:space="preserve"
       id="flowRoot5610"
       style="font-style:normal;font-variant:normal;font-weight:normal;font-stretch:normal;font-size:16px;line-height:1.25;font-family:Arial;-inkscape-font-specification:'Arial, Normal';font-variant-ligatures:normal;font-variant-caps:normal;font-variant-numeric:normal;font-feature-settings:normal;text-align:center;letter-spacing:0px;word-spacing:0px;writing-mode:lr-tb;text-anchor:middle;fill:#000000;fill-opacity:1;stroke:none"
       transform="matrix(0.07000432,0,0,0.07000432,-44.736132,382.756)"><flowRegion
         id="flowRegion5612"><rect
           id="rect5614"
           width="715.31128"
           height="203.37282"
           x="1084.655"
           y="1360.5143" /></flowRegion><flowPara
         id="flowPara5616" /></flowRoot>    <g
       id="g7383"
       transform="matrix(0.09333909,0,0,-0.09333909,153.40779,584.98859)" />
    <g
       id="g8331"
       transform="matrix(0.09333909,0,0,-0.09333909,153.40779,584.98859)" />
    <g
       id="g8547"
       transform="matrix(0.09333909,0,0,-0.09333909,153.40779,584.98859)" />
    <g
       id="g8563"
       transform="matrix(0.09333909,0,0,-0.09333909,153.40779,584.98859)" />
    <g
       id="g8579"
       transform="matrix(0.09333909,0,0,-0.09333909,153.40779,584.98859)" />
    <g
       id="g13434"
       transform="matrix(1.1104648,0,0,1.1104648,-753.05275,-522.71484)">
      <g
         transform="matrix(0.35277777,0,0,-0.35277777,684.16407,761.59893)"
         style="opacity:0.22999603"
         id="g8589"
         clip-path="url(#clipPath8583-7)">
        <g
           id="g8587"
           transform="translate(249.179,81.738)">
          <path
             inkscape:connector-curvature="0"
             id="path8585"
             style="fill:#045495;fill-opacity:1;fill-rule:nonzero;stroke:none"
             d="m 0,0 c 0,-8.468 -42.549,-15.333 -95.036,-15.333 -52.487,0 -95.036,6.865 -95.036,15.333 0,8.468 42.549,15.333 95.036,15.333 C -42.549,15.333 0,8.468 0,0" />
        </g>
      </g>
      <path
         d="m 715.0692,650.63 c 0,0 -5.96618,-0.18274 -7.02451,-6.2992 -1.05833,-6.11611 4.85916,-10.46727 4.85916,-10.46727 0,0 6.32672,2.70475 7.55403,0 1.22767,-2.70439 -4.74098,-3.175 -4.74098,-3.175 0,0 3.49497,-8.31956 1.7332,-8.98102 -1.76178,-0.66145 -4.53849,4.86552 -4.53849,4.86552 0,0 0.76729,-7.29086 -1.57938,-7.52617 -2.34668,-0.23495 -1.9939,6.58531 -1.9939,6.58531 0,0 -2.35197,-5.40914 -4.11586,-4.93889 -1.76389,0.47025 1.67569,8.81768 3.67488,10.93435 0,0 -6.06425,6.35176 -5.29166,13.17201 0.77258,6.82061 6.34753,8.25994 10.97244,9.84603 4.62492,1.58609 0.49107,-4.01567 0.49107,-4.01567"
         style="fill:#ff9d00;fill-opacity:1;fill-rule:nonzero;stroke:none;stroke-width:0.35277778"
         id="path8595"
         inkscape:connector-curvature="0" />
      <path
         d="m 710.63182,629.39514 c 0,0 0.0713,0.006 0.1965,0.0243 0.12241,0.0247 0.31044,0.0374 0.51364,0.11748 0.1016,0.0399 0.21484,0.0808 0.3302,0.1337 0.11959,0.0451 0.23107,0.121 0.34678,0.19897 0.11254,0.0822 0.24307,0.15134 0.34467,0.25999 0.10407,0.10584 0.2099,0.21308 0.31573,0.32033 0.0833,0.12629 0.16687,0.25223 0.24906,0.37641 0.0921,0.11818 0.12524,0.26599 0.18133,0.3944 0.0505,0.13124 0.10442,0.25612 0.11536,0.38594 0.0222,0.1263 0.0392,0.24589 0.0501,0.35525 0.0265,0.21837 -0.0159,0.40534 -0.0247,0.52987 -0.0201,0.12453 -0.0317,0.19579 -0.0317,0.19579 0,0 -0.0265,-0.0681 -0.073,-0.18697 -0.0494,-0.11641 -0.0843,-0.28645 -0.1658,-0.47448 -0.0437,-0.0931 -0.0868,-0.19333 -0.12735,-0.29951 -0.0353,-0.10866 -0.10584,-0.20814 -0.16122,-0.3168 -0.0642,-0.10442 -0.10725,-0.22401 -0.18909,-0.32314 -0.073,-0.10407 -0.14711,-0.2099 -0.22084,-0.31574 -0.0875,-0.0956 -0.17463,-0.1912 -0.26035,-0.28575 -0.0755,-0.10583 -0.18309,-0.17639 -0.27305,-0.2607 -0.096,-0.0769 -0.17322,-0.17533 -0.2727,-0.23354 -0.0949,-0.0646 -0.18097,-0.13441 -0.26282,-0.1972 -0.16263,-0.127 -0.31856,-0.20461 -0.41875,-0.28152 -0.10089,-0.073 -0.16192,-0.11712 -0.16192,-0.11712"
         style="fill:#e65b0d;fill-opacity:1;fill-rule:nonzero;stroke:none;stroke-width:0.35277778"
         id="path8599"
         inkscape:connector-curvature="0" />
      <path
         d="m 757.1249,652.67848 c 0,0 9.43187,-1.41111 10.86732,-6.23252 1.4358,-4.82107 -2.82681,-10.11273 -2.82681,-10.11273 0,0 -7.64364,2.82222 -8.04051,0.35278 -0.39687,-2.46945 5.24016,-3.56024 5.24016,-3.56024 0,0 -4.8828,-5.61199 -3.49603,-7.61118 1.38677,-1.99919 5.73793,4.35081 5.73793,4.35081 0,0 -1.76389,-7.40833 0,-8.11389 1.76389,-0.70555 3.63256,7.29086 3.63256,7.29086 0,0 2.59962,-7.17303 4.59881,-6.82025 1.99919,0.35277 -1.52859,9.87777 -3.175,12.11192 0,0 4.82141,7.9502 2.93969,13.5001 -1.88136,5.5499 -12.90284,9.39094 -15.72789,9.31298 -2.44087,-0.0677 0.24977,-4.46864 0.24977,-4.46864"
         style="fill:#ff9d00;fill-opacity:1;fill-rule:nonzero;stroke:none;stroke-width:0.35277778"
         id="path8603"
         inkscape:connector-curvature="0" />
      <path
         d="m 766.60587,631.62939 c 0,0 -0.0229,0.0614 -0.0603,0.16192 -0.036,0.10302 -0.10972,0.23284 -0.16969,0.3997 -0.0317,0.0825 -0.0628,0.17251 -0.10372,0.26212 -0.0466,0.0871 -0.06,0.19332 -0.0988,0.29068 -0.03,0.1009 -0.0801,0.19932 -0.0914,0.30833 -0.0251,0.10513 -0.0501,0.21167 -0.0755,0.31856 -0.012,0.1076 -0.0236,0.21484 -0.0353,0.32068 -0.0208,0.10653 -0.005,0.20955 -0.008,0.31185 0.006,0.1009 -0.0109,0.20391 0.012,0.29598 0.0166,0.0931 0.0279,0.18345 0.0353,0.27058 0.0201,0.17145 0.0773,0.30762 0.0928,0.41593 0.0205,0.10901 0.0325,0.17145 0.0325,0.17145 0,0 -0.0448,-0.0434 -0.12347,-0.11889 -0.0688,-0.0826 -0.20003,-0.1912 -0.2847,-0.36336 -0.0448,-0.085 -0.0896,-0.18097 -0.13299,-0.28504 -0.0554,-0.10125 -0.0663,-0.21978 -0.0882,-0.34114 -0.0166,-0.12171 -0.0543,-0.24941 -0.0339,-0.37818 0.0102,-0.12911 0.0205,-0.26 0.031,-0.39123 0.0356,-0.12488 0.0716,-0.25012 0.10654,-0.37324 0.0332,-0.12418 0.10301,-0.2293 0.15346,-0.33796 0.0543,-0.10654 0.1083,-0.2092 0.1778,-0.29351 0.0639,-0.0882 0.13194,-0.16581 0.19156,-0.23812 0.11818,-0.1457 0.25294,-0.23601 0.33478,-0.30622 0.0864,-0.0667 0.13829,-0.10089 0.13829,-0.10089"
         style="fill:#e65b0d;fill-opacity:1;fill-rule:nonzero;stroke:none;stroke-width:0.35277778"
         id="path8607"
         inkscape:connector-curvature="0" />
      <path
         d="m 727.91924,675.84419 c 0,0 -6.95784,0.31679 -12.84993,8.0705 0,0 -1.96815,-4.19735 -5.26062,-4.89903 -3.29248,-0.70203 -4.58611,3.17853 -4.58611,3.17853 0,0 7.6521,8.95667 10.22526,8.5919 0,0 3.93241,-5.58588 7.75794,-8.70938 3.82552,-3.12384 10.23232,-5.02073 10.23232,-5.02073 z"
         style="fill:#f99300;fill-opacity:1;fill-rule:nonzero;stroke:none;stroke-width:0.35277778"
         id="path8611"
         inkscape:connector-curvature="0" />
      <path
         d="m 745.2957,676.12169 c 0,0 6.95784,0.31679 12.84993,8.0705 0,0 1.96815,-4.19735 5.26062,-4.89903 3.29248,-0.70203 4.58611,3.17853 4.58611,3.17853 0,0 -7.6521,8.95667 -10.22526,8.5919 0,0 -3.93241,-5.58588 -7.75794,-8.70938 -3.82552,-3.12384 -10.23232,-5.02073 -10.23232,-5.02073 z"
         style="fill:#f99300;fill-opacity:1;fill-rule:nonzero;stroke:none;stroke-width:0.35277778"
         id="path8615"
         inkscape:connector-curvature="0" />
      <path
         d="m 740.2285,637.19792 c 0,0 3.85621,-5.29167 4.46546,-5.17419 0.6089,0.11783 1.43228,6.98359 1.43228,6.98359 z"
         style="fill:#08549f;fill-opacity:1;fill-rule:nonzero;stroke:none;stroke-width:0.35277778"
         id="path8619"
         inkscape:connector-curvature="0" />
      <path
         d="m 741.83794,635.36294 c 0,0 0.0674,-0.002 0.17815,-0.004 0.11289,-0.004 0.26035,0.0116 0.44874,0.008 0.0931,10e-4 0.19367,-3.6e-4 0.29845,0.008 0.10618,0.008 0.22295,0.01 0.34007,0.0247 0.11677,0.009 0.24025,0.0296 0.36795,0.0582 0.12383,0.0335 0.25859,0.0543 0.37712,0.1009 0.11889,0.048 0.23813,0.096 0.35525,0.14322 0.11888,0.0423 0.22295,0.11607 0.32843,0.17392 0.10513,0.0593 0.20603,0.11748 0.29069,0.18909 0.0882,0.066 0.16934,0.13124 0.2413,0.19474 0.14676,0.12276 0.24871,0.2487 0.3235,0.33231 0.0702,0.0882 0.11042,0.13864 0.11042,0.13864 0,0 -0.0621,-0.019 -0.17039,-0.0522 -0.10654,-0.0339 -0.25153,-0.0949 -0.42298,-0.16228 -0.0875,-0.031 -0.17921,-0.0677 -0.27341,-0.11006 -0.0945,-0.043 -0.19896,-0.0755 -0.30162,-0.11854 -0.10548,-0.0377 -0.20814,-0.0875 -0.31926,-0.12523 -0.10972,-0.0402 -0.2212,-0.0811 -0.33267,-0.12171 -0.10972,-0.0494 -0.2212,-0.0688 -0.3302,-0.10477 -0.10584,-0.0395 -0.21555,-0.0737 -0.32809,-0.0981 -0.11112,-0.025 -0.21484,-0.0628 -0.3175,-0.0921 -0.10442,-0.0289 -0.20143,-0.0653 -0.29104,-0.096 -0.17921,-0.0557 -0.32491,-0.14428 -0.42227,-0.19544 -0.0981,-0.0554 -0.15064,-0.0907 -0.15064,-0.0907"
         style="fill:#2188db;fill-opacity:1;fill-rule:nonzero;stroke:none;stroke-width:0.35277778"
         id="path8623"
         inkscape:connector-curvature="0" />
      <path
         d="m 742.94037,633.95183 c 0,0 0.037,-0.0219 0.10654,-0.0522 0.0691,-0.03 0.17462,-0.0741 0.30021,-0.0878 0.0628,-0.009 0.13265,-0.0219 0.20602,-0.0254 0.0716,0.002 0.14923,-0.003 0.22755,0.006 0.079,0.006 0.16051,0.0134 0.2413,0.0296 0.0808,0.0187 0.16263,0.0381 0.24412,0.0575 0.079,0.0303 0.15769,0.061 0.2353,0.091 0.0783,0.0272 0.15064,0.0677 0.21837,0.11325 0.0692,0.0409 0.133,0.0857 0.19121,0.13052 0.0582,0.0473 0.1083,0.10125 0.15169,0.15029 0.0942,0.0882 0.14393,0.19861 0.17427,0.26917 0.0258,0.0713 0.0406,0.11218 0.0406,0.11218 0,0 -0.0423,-0.0141 -0.11606,-0.0392 -0.0698,-0.0258 -0.15452,-0.0632 -0.26917,-0.0931 -0.0565,-0.0145 -0.11148,-0.036 -0.17075,-0.0572 -0.0646,-0.0145 -0.12982,-0.0325 -0.19438,-0.0561 -0.0639,-0.0244 -0.1344,-0.0406 -0.2039,-0.0635 -0.0695,-0.0229 -0.1397,-0.0462 -0.2099,-0.0695 -0.0713,-0.0226 -0.14253,-0.0448 -0.21238,-0.0667 -0.0684,-0.0296 -0.13793,-0.0512 -0.20567,-0.0702 -0.0677,-0.018 -0.13158,-0.049 -0.19402,-0.0716 -0.0621,-0.0159 -0.12065,-0.0402 -0.17604,-0.06 -0.10619,-0.0388 -0.20214,-0.0744 -0.2734,-0.10055 -0.0681,-0.0282 -0.11148,-0.0462 -0.11148,-0.0462"
         style="fill:#2188db;fill-opacity:1;fill-rule:nonzero;stroke:none;stroke-width:0.35277778"
         id="path8627"
         inkscape:connector-curvature="0" />
      <path
         d="m 730.13952,636.80348 c 0,0 -2.85926,-4.11586 -3.53942,-4.11586 -1.29857,0 -1.41605,5.65362 -1.41605,5.65362 0,0 3.32599,-0.8322 4.95547,-1.53776"
         style="fill:#08549f;fill-opacity:1;fill-rule:nonzero;stroke:none;stroke-width:0.35277778"
         id="path8631"
         inkscape:connector-curvature="0" />
      <path
         d="m 725.38968,636.77405 c 0,0 0.0109,-0.0589 0.043,-0.16757 0.0356,-0.10513 0.11148,-0.25259 0.2413,-0.39864 0.0632,-0.0744 0.1404,-0.14464 0.22613,-0.21625 0.0892,-0.0607 0.17921,-0.14182 0.28469,-0.19332 0.10336,-0.06 0.21202,-0.11395 0.32385,-0.16546 0.1136,-0.0487 0.23036,-0.0878 0.34678,-0.13017 0.11853,-0.0328 0.23672,-0.0684 0.35348,-0.0956 0.11642,-0.031 0.23319,-0.048 0.34573,-0.0653 0.11218,-0.0201 0.22119,-0.0296 0.32561,-0.0377 0.10301,-0.009 0.20144,-0.0145 0.29245,-0.0145 0.18133,-0.006 0.33408,0.004 0.44168,0.0116 0.10866,0.0113 0.17075,0.0176 0.17075,0.0176 0,0 -0.0543,0.0311 -0.14923,0.0854 -0.0963,0.0501 -0.23495,0.11713 -0.40358,0.18133 -0.084,0.0349 -0.17427,0.0692 -0.27128,0.10125 -0.0956,0.0367 -0.19756,0.0695 -0.30233,0.10195 -0.10443,0.0335 -0.21167,0.0702 -0.32103,0.1009 -0.11042,0.0293 -0.21872,0.0663 -0.32844,0.10054 -0.10865,0.0339 -0.21943,0.0649 -0.32314,0.10371 -0.10689,0.0321 -0.21061,0.0667 -0.30727,0.10654 -0.0995,0.0363 -0.1905,0.0748 -0.28081,0.11078 -0.0818,0.0448 -0.17075,0.0762 -0.2413,0.11888 -0.1457,0.0811 -0.26282,0.16404 -0.34184,0.23142 -0.078,0.0699 -0.12524,0.11254 -0.12524,0.11254"
         style="fill:#2188db;fill-opacity:1;fill-rule:nonzero;stroke:none;stroke-width:0.35277778"
         id="path8635"
         inkscape:connector-curvature="0" />
      <path
         d="m 725.56607,634.83378 c 0,0 0.0998,-0.14393 0.27023,-0.29739 0.0427,-0.0381 0.0875,-0.0819 0.13899,-0.11959 0.0483,-0.0381 0.11042,-0.0829 0.17463,-0.11818 0.0653,-0.037 0.13264,-0.0752 0.20108,-0.11395 0.0713,-0.0339 0.14358,-0.0684 0.21555,-0.10266 0.0773,-0.0254 0.16228,-0.0377 0.24165,-0.0564 0.0822,-0.0212 0.15804,-0.0219 0.23001,-0.0222 0.0716,-0.004 0.14429,-0.002 0.20849,0.003 0.0628,0.002 0.12312,0.008 0.17992,0.0169 0.10372,0.0145 0.20179,0.0279 0.27376,0.0374 0.073,0.0148 0.11465,0.0233 0.11465,0.0233 0,0 -0.0303,0.0282 -0.0833,0.0773 -0.055,0.043 -0.14499,0.11747 -0.25294,0.1598 -0.054,0.0265 -0.11359,0.0508 -0.1778,0.0727 -0.0624,0.0247 -0.12418,0.0459 -0.19085,0.0624 -0.0639,0.0187 -0.12912,0.0378 -0.19403,0.0568 -0.0624,0.019 -0.12629,0.0296 -0.18944,0.0543 -0.0646,0.0254 -0.12912,0.0512 -0.19297,0.0762 -0.066,0.0201 -0.13123,0.0399 -0.19438,0.0589 -0.0631,0.0229 -0.12771,0.0261 -0.19262,0.049 -0.0631,0.0201 -0.127,0.0307 -0.18415,0.0434 -0.22966,0.0483 -0.39652,0.0388 -0.39652,0.0388"
         style="fill:#2188db;fill-opacity:1;fill-rule:nonzero;stroke:none;stroke-width:0.35277778"
         id="path8639"
         inkscape:connector-curvature="0" />
      <path
         d="m 734.61288,636.18753 c 0,0 -2.11667,-2.91042 -3.175,-2.99861 -1.05833,-0.0882 0,2.46944 0,2.46944 0,0 -5.55625,0.61736 -10.40694,4.67431 -4.8507,4.05694 -8.81945,9.96597 -8.0257,18.78542 0.79375,8.81944 9.26042,19.49097 23.63611,19.66736 14.3757,0.17638 22.04861,-11.90625 22.225,-22.40139 0.17639,-10.49514 -8.20208,-19.40278 -20.10833,-20.46111 0,0 1.32292,-2.29764 0.52917,-2.73615 -0.79375,-0.43885 -3.70417,1.58962 -4.67431,3.00073"
         style="fill:#ff9d00;fill-opacity:1;fill-rule:nonzero;stroke:none;stroke-width:0.35277778"
         id="path8643"
         inkscape:connector-curvature="0" />
      <path
         d="m 734.40851,636.99168 c 8.30404,-0.44379 23.20607,8.34672 23.13552,20.42866 -0.0706,12.08193 -11.36191,17.77506 -22.94573,17.99872 -11.58381,0.22401 -19.61091,-8.31886 -20.00955,-19.21369 -0.39864,-10.89484 10.53818,-18.71733 19.81976,-19.21369"
         style="fill:#ffbb33;fill-opacity:1;fill-rule:nonzero;stroke:none;stroke-width:0.35277778"
         id="path8647"
         inkscape:connector-curvature="0" />
      <path
         d="m 725.26427,661.05836 c 3.04236,-1.05657 6.54367,2.81517 10.46374,2.56893 3.88197,-0.24412 5.32307,-3.62726 8.32168,-3.53907 2.99861,0.0882 7.05661,4.77026 2.91041,9.525 -4.14619,4.75474 -14.46389,5.64727 -20.37291,1.49931 -4.18818,-2.94005 -5.53826,-8.5905 -1.32292,-10.05417"
         style="fill:#490808;fill-opacity:1;fill-rule:nonzero;stroke:none;stroke-width:0.35277778"
         id="path8651"
         inkscape:connector-curvature="0" />
      <path
         d="m 727.55732,665.90905 c 0.17639,0.44097 4.67431,1.67675 5.20347,1.01494 0.33373,-0.41769 0.45685,-2.29164 0.50236,-3.61844 -1.53811,-0.45402 -3.00426,-1.27635 -4.39526,-1.83762 -0.48895,1.36384 -1.44251,4.11127 -1.31057,4.44112"
         style="fill:#fffcc5;fill-opacity:1;fill-rule:nonzero;stroke:none;stroke-width:0.35277778"
         id="path8655"
         inkscape:connector-curvature="0" />
      <path
         d="m 739.28718,667.11499 c 0.52917,0.11712 4.67431,-1.85208 4.93889,-2.36679 0.20249,-0.39405 -1.5561,-2.91253 -2.3936,-4.07458 -1.40582,0.76376 -2.66347,2.06904 -4.53249,2.65995 0.57397,1.35819 1.6122,3.69852 1.9872,3.78142"
         style="fill:#fffcc5;fill-opacity:1;fill-rule:nonzero;stroke:none;stroke-width:0.35277778"
         id="path8659"
         inkscape:connector-curvature="0" />
      <path
         d="m 736.37677,669.08405 c -3.2452,0.33126 -5.74428,2.51883 -6.7878,3.5881 4.72334,1.76777 10.70434,1.32997 14.71966,-0.94862 -1.40018,-0.98883 -4.66514,-2.97285 -7.93186,-2.63948"
         style="fill:#ff9f9f;fill-opacity:1;fill-rule:nonzero;stroke:none;stroke-width:0.35277778"
         id="path8663"
         inkscape:connector-curvature="0" />
      <path
         d="m 744.24219,651.15335 c 0,4.97699 -4.03472,9.01206 -9.01206,9.01206 -4.97699,0 -9.01171,-4.03507 -9.01171,-9.01206 0,-4.97699 4.03472,-9.01206 9.01171,-9.01206 4.97734,0 9.01206,4.03507 9.01206,9.01206"
         style="fill:#ffffff;fill-opacity:1;fill-rule:nonzero;stroke:none;stroke-width:0.35277778"
         id="path8667"
         inkscape:connector-curvature="0" />
      <path
         d="m 743.06304,648.367 c 0,2.72309 -2.20733,4.93042 -4.93042,4.93042 -2.72274,0 -4.93007,-2.20733 -4.93007,-4.93042 0,-2.72309 2.20733,-4.93042 4.93007,-4.93042 2.72309,0 4.93042,2.20733 4.93042,4.93042"
         style="fill:#1d1d1b;fill-opacity:1;fill-rule:nonzero;stroke:none;stroke-width:0.35277778"
         id="path8671"
         inkscape:connector-curvature="0" />
      <g
         transform="matrix(0.35277777,0,0,-0.35277777,684.16407,761.59893)"
         id="g8675"
         clip-path="url(#clipPath8679-0)">
        <g
           id="g8681"
           transform="translate(156.4653,326.2186)">
          <path
             d="m 0,0 c 0,-4.821 -3.908,-8.729 -8.729,-8.729 -4.822,0 -8.73,3.908 -8.73,8.729 0,4.821 3.908,8.729 8.73,8.729 C -3.908,8.729 0,4.821 0,0"
             style="fill:#ffffff;fill-opacity:1;fill-rule:nonzero;stroke:none"
             id="path8683"
             inkscape:connector-curvature="0" />
        </g>
      </g>
      <g
         transform="matrix(0.35277777,0,0,-0.35277777,684.16407,761.59893)"
         id="g8687"
         clip-path="url(#clipPath8691-1)">
        <g
           id="g8693"
           transform="translate(108.9713,320.7633)">
          <path
             d="m 0,0 c 6.448,-1.801 -1.695,-18.25 -7.695,-15.25 -6,3 -0.36,17.5 7.695,15.25"
             style="fill:#e65b0d;fill-opacity:1;fill-rule:nonzero;stroke:none"
             id="path8695"
             inkscape:connector-curvature="0" />
        </g>
        <g
           id="g8697"
           transform="translate(96.9782,328.7079)">
          <path
             d="M 0,0 C 4.269,-2.077 9.406,7.32 5.519,9.409 1.633,11.497 -4.269,2.077 0,0"
             style="fill:#e65b0d;fill-opacity:1;fill-rule:nonzero;stroke:none"
             id="path8699"
             inkscape:connector-curvature="0" />
        </g>
        <g
           id="g8701"
           transform="translate(112.7545,334.948)">
          <path
             d="M 0,0 C 5.265,-5.616 17.635,5.529 12.41,11.799 7.184,18.069 -6.75,7.201 0,0"
             style="fill:#e65b0d;fill-opacity:1;fill-rule:nonzero;stroke:none"
             id="path8703"
             inkscape:connector-curvature="0" />
        </g>
        <g
           id="g8705"
           transform="translate(89.8922,306.8183)">
          <path
             d="M 0,0 C 5.393,2.18 10.883,-13.128 4.099,-14.792 -2.686,-16.457 -6.701,-2.709 0,0"
             style="fill:#e65b0d;fill-opacity:1;fill-rule:nonzero;stroke:none"
             id="path8707"
             inkscape:connector-curvature="0" />
        </g>
        <g
           id="g8709"
           transform="translate(186.2545,302.7469)">
          <path
             d="M 0,0 C 7.391,2.772 9.75,-8.75 2.75,-11 -4.25,-13.25 -6,-2.25 0,0"
             style="fill:#e65b0d;fill-opacity:1;fill-rule:nonzero;stroke:none"
             id="path8711"
             inkscape:connector-curvature="0" />
        </g>
        <g
           id="g8713"
           transform="translate(177.5045,336.9969)">
          <path
             d="M 0,0 C 8.165,9.285 25.5,-9.5 18.5,-17.25 11.5,-25 -7.915,-9 0,0"
             style="fill:#e65b0d;fill-opacity:1;fill-rule:nonzero;stroke:none"
             id="path8715"
             inkscape:connector-curvature="0" />
        </g>
        <g
           id="g8717"
           transform="translate(159.0045,348.6222)">
          <path
             d="M 0,0 C 1.236,3.595 13.718,2.125 11.484,-4.375 9.25,-10.875 -2.318,-6.739 0,0"
             style="fill:#e65b0d;fill-opacity:1;fill-rule:nonzero;stroke:none"
             id="path8719"
             inkscape:connector-curvature="0" />
        </g>
        <g
           id="g8721"
           transform="translate(200.2545,289.2469)">
          <path
             d="M 0,0 C 5.47,-1.773 5.75,-7.75 0,-8.25 -5.75,-8.75 -2.948,0.956 0,0"
             style="fill:#e65b0d;fill-opacity:1;fill-rule:nonzero;stroke:none"
             id="path8723"
             inkscape:connector-curvature="0" />
        </g>
        <g
           id="g8725"
           transform="translate(88.11,188.5843)">
          <path
             d="m 0,0 c 0,0 -34,-15.25 -37.25,-24 -3.25,-8.75 16.25,-19.75 36,-21.75 0,0 -10,-7.5 -8.75,-12.25 1.25,-4.75 12.75,2 12.75,2 0,0 -1.25,-7.5 2.5,-8 3.75,-0.5 8.75,6.75 8.75,6.75 0,0 -0.75,-5.5 3.25,-5.5 4,0 9.5,12 6,19 -3.5,7 -41.25,12 -44,16.25 -2.75,4.25 20.25,16.25 20.25,16.25 z"
             style="fill:#f4cb00;fill-opacity:1;fill-rule:nonzero;stroke:none"
             id="path8727"
             inkscape:connector-curvature="0" />
        </g>
        <g
           id="g8729"
           transform="translate(202.86,182.0843)">
          <path
             d="m 0,0 c 0,0 30.5,-8.5 31,-12.75 0.5,-4.25 -31.75,-14 -36.5,-18.5 -4.75,-4.5 -4.75,-20.25 3.75,-23.75 8.5,-3.5 4.5,6.25 4.5,6.25 0,0 12.5,-6 15.25,-3 2.75,3 -3.25,8.25 -3.25,8.25 0,0 10.619,-1.702 11.5,0.5 2,5 -11.5,9.5 -11.5,9.5 0,0 29.75,11.25 31.5,19.5 C 48,-5.75 16,8.25 3.75,12 -8.5,15.75 0,0 0,0"
             style="fill:#f4cb00;fill-opacity:1;fill-rule:nonzero;stroke:none"
             id="path8731"
             inkscape:connector-curvature="0" />
        </g>
        <g
           id="g8733"
           transform="translate(118.61,131.8343)">
          <path
             d="m 0,0 c 0,0 -0.25,-25.75 -1.25,-31.75 -10.5,9 -27.25,4.25 -28.25,-10 -1,-14.25 37,-7 37.75,-2 0.75,5 1,33.25 0,39.25 C 7.25,1.5 0,0 0,0"
             style="fill:#e5ae00;fill-opacity:1;fill-rule:nonzero;stroke:none"
             id="path8735"
             inkscape:connector-curvature="0" />
        </g>
        <g
           id="g8737"
           transform="translate(173.61,130.3343)">
          <path
             d="m 0,0 c 0,0 1.25,-29.75 1.75,-34.75 13,11.285 27.604,4.255 30,-2.75 C 35,-47 31,-48.75 26.5,-50.25 22,-51.75 -3.439,-52.36 -5.7,-46.832 -7.544,-42.324 -7.5,-12.799 -6.75,-5.775 -6,1.25 0,0 0,0"
             style="fill:#e5ae00;fill-opacity:1;fill-rule:nonzero;stroke:none"
             id="path8739"
             inkscape:connector-curvature="0" />
        </g>
        <g
           id="g8741"
           transform="translate(178.7867,228.3062)">
          <path
             d="m 0,0 c 0,0 13.59,12.642 15.221,11.985 1.631,-0.656 0.213,-20.206 0.213,-20.206 z"
             style="fill:#079539;fill-opacity:1;fill-rule:nonzero;stroke:none"
             id="path8743"
             inkscape:connector-curvature="0" />
        </g>
        <g
           id="g8745"
           transform="translate(119.3308,230.5532)">
          <path
             d="m 0,0 c 0,0 -10.963,9.034 -12.82,8.511 -3.543,-0.998 0.48,-16.514 0.48,-16.514 0,0 8.436,4.826 12.34,8.003"
             style="fill:#079539;fill-opacity:1;fill-rule:nonzero;stroke:none"
             id="path8747"
             inkscape:connector-curvature="0" />
        </g>
        <g
           id="g8749"
           transform="translate(184.5267,232.9176)">
          <path
             d="m 0,0 c 0,0 0.155,0.052 0.437,0.12 0.28,0.05 0.7,0.193 1.199,0.172 C 1.886,0.285 2.162,0.287 2.452,0.26 2.747,0.252 3.039,0.17 3.347,0.094 3.652,0.009 3.979,-0.058 4.279,-0.195 4.581,-0.331 4.887,-0.47 5.194,-0.609 c 0.281,-0.179 0.562,-0.358 0.838,-0.534 0.286,-0.164 0.515,-0.39 0.751,-0.59 0.232,-0.202 0.465,-0.391 0.645,-0.61 0.192,-0.205 0.366,-0.407 0.518,-0.601 0.319,-0.371 0.52,-0.739 0.671,-0.985 0.138,-0.257 0.216,-0.404 0.216,-0.404 0,0 -0.153,0.068 -0.42,0.187 C 8.15,-4.024 7.801,-3.821 7.386,-3.591 7.175,-3.48 6.955,-3.351 6.732,-3.206 6.499,-3.069 6.26,-2.927 6.016,-2.783 5.769,-2.638 5.523,-2.474 5.265,-2.332 5.011,-2.183 4.753,-2.031 4.495,-1.879 4.232,-1.743 3.969,-1.607 3.71,-1.474 3.461,-1.31 3.193,-1.218 2.939,-1.104 2.68,-1.011 2.449,-0.835 2.201,-0.776 1.957,-0.699 1.729,-0.599 1.513,-0.515 1.084,-0.332 0.7,-0.27 0.432,-0.159 0.164,-0.061 0,0 0,0"
             style="fill:#007c20;fill-opacity:1;fill-rule:nonzero;stroke:none"
             id="path8751"
             inkscape:connector-curvature="0" />
        </g>
        <g
           id="g8753"
           transform="translate(189.0267,236.5843)">
          <path
             d="M 0,0 C 0,0 0.335,0.229 0.882,0.323 1.018,0.342 1.169,0.37 1.326,0.372 1.484,0.379 1.653,0.373 1.822,0.346 1.992,0.319 2.172,0.3 2.347,0.245 2.52,0.183 2.695,0.119 2.87,0.056 3.032,-0.041 3.194,-0.138 3.353,-0.234 3.518,-0.318 3.643,-0.465 3.77,-0.589 3.895,-0.716 4.022,-0.829 4.1,-0.982 4.19,-1.12 4.265,-1.257 4.322,-1.389 4.455,-1.636 4.468,-1.904 4.492,-2.065 4.497,-2.236 4.5,-2.333 4.5,-2.333 c 0,0 -0.093,0.037 -0.255,0.102 -0.159,0.061 -0.333,0.174 -0.559,0.269 -0.116,0.046 -0.229,0.1 -0.338,0.165 -0.107,0.065 -0.248,0.1 -0.361,0.17 L 2.618,-1.443 2.241,-1.25 1.853,-1.065 C 1.732,-0.982 1.598,-0.929 1.471,-0.87 1.341,-0.821 1.228,-0.718 1.104,-0.67 0.982,-0.619 0.869,-0.544 0.76,-0.483 0.328,-0.248 0,0 0,0"
             style="fill:#007c20;fill-opacity:1;fill-rule:nonzero;stroke:none"
             id="path8755"
             inkscape:connector-curvature="0" />
        </g>
        <g
           id="g8757"
           transform="translate(106.36,228.5843)">
          <path
             d="m 0,0 c 0,0 0.03,0.13 0.106,0.35 0.083,0.214 0.187,0.552 0.413,0.871 0.108,0.164 0.221,0.351 0.362,0.53 0.145,0.171 0.295,0.356 0.471,0.525 0.172,0.176 0.355,0.35 0.55,0.512 0.202,0.154 0.406,0.31 0.611,0.467 0.218,0.134 0.435,0.268 0.649,0.4 0.21,0.139 0.439,0.231 0.654,0.333 0.214,0.104 0.426,0.196 0.635,0.264 0.203,0.076 0.401,0.14 0.589,0.188 0.367,0.112 0.693,0.16 0.923,0.193 0.236,0.021 0.37,0.034 0.37,0.034 0,0 -0.082,-0.108 -0.226,-0.295 C 5.958,4.193 5.737,3.951 5.459,3.693 5.323,3.558 5.171,3.423 5.004,3.29 4.84,3.151 4.672,3.005 4.485,2.873 4.304,2.733 4.113,2.591 3.918,2.458 3.722,2.325 3.524,2.189 3.325,2.054 3.127,1.922 2.928,1.791 2.733,1.661 2.525,1.547 2.333,1.422 2.151,1.295 1.973,1.165 1.767,1.074 1.596,0.96 1.433,0.841 1.259,0.746 1.102,0.65 0.773,0.47 0.532,0.286 0.326,0.177 0.126,0.068 0,0 0,0"
             style="fill:#007c20;fill-opacity:1;fill-rule:nonzero;stroke:none"
             id="path8759"
             inkscape:connector-curvature="0" />
        </g>
        <g
           id="g8761"
           transform="translate(105.86,233.5843)">
          <path
             d="M 0,0 C 0,0 -0.018,0.095 -0.018,0.273 -0.017,0.448 -0.01,0.736 0.124,1 0.184,1.137 0.244,1.301 0.338,1.448 0.439,1.58 0.534,1.737 0.662,1.87 0.783,2.015 0.919,2.145 1.063,2.267 L 1.525,2.61 C 1.694,2.697 1.863,2.785 2.03,2.871 2.192,2.965 2.374,3.011 2.547,3.059 2.717,3.112 2.886,3.152 3.05,3.173 3.216,3.194 3.375,3.202 3.522,3.198 3.808,3.215 4.068,3.143 4.236,3.096 4.404,3.035 4.5,3 4.5,3 4.5,3 4.425,2.928 4.293,2.803 4.155,2.69 3.97,2.538 3.78,2.382 3.678,2.294 3.567,2.212 3.448,2.138 3.333,2.045 3.213,1.951 3.083,1.873 L 2.69,1.619 2.281,1.373 1.879,1.128 C 1.733,1.062 1.597,0.99 1.481,0.905 1.363,0.822 1.22,0.768 1.096,0.7 0.99,0.623 0.875,0.562 0.766,0.498 0.339,0.258 0.023,-0.006 0,0"
             style="fill:#007c20;fill-opacity:1;fill-rule:nonzero;stroke:none"
             id="path8763"
             inkscape:connector-curvature="0" />
        </g>
        <g
           id="g8765"
           transform="translate(145.36,237.0843)">
          <path
             d="m 0,0 c 0,0 -6,8.25 -9,8.5 -3,0.25 0,-7 0,-7 0,0 -15.75,-1.75 -29.5,-13.25 -13.75,-11.5 -25,-28.25 -22.75,-53.25 2.25,-25 26.25,-55.25 67,-55.75 40.75,-0.5 62.5,33.75 63,63.5 0.5,29.75 -23.25,55 -57,58 0,0 3.75,6.513 1.5,7.756 C 11,9.75 2.75,4 0,0"
             style="fill:#f4cb00;fill-opacity:1;fill-rule:nonzero;stroke:none"
             id="path8767"
             inkscape:connector-curvature="0" />
        </g>
        <g
           id="g8769"
           transform="translate(145.9186,234.4444)">
          <path
             d="m 0,0 c 22.695,1.271 63.421,-23.898 63.228,-58.49 -0.192,-34.592 -31.051,-50.892 -62.709,-51.533 -31.658,-0.641 -53.596,23.818 -54.686,55.012 C -55.256,-23.818 -25.366,-1.421 0,0"
             style="fill:#ffdd15;fill-opacity:1;fill-rule:nonzero;stroke:none"
             id="path8771"
             inkscape:connector-curvature="0" />
        </g>
        <g
           id="g8773"
           transform="translate(195.36,134.3343)">
          <path
             d="m 0,0 c 0,0 0.239,0.326 0.65,0.888 0.405,0.57 1.053,1.312 1.725,2.292 0.348,0.479 0.716,1.003 1.127,1.538 0.405,0.54 0.772,1.156 1.206,1.75 0.425,0.6 0.869,1.217 1.268,1.88 0.424,0.644 0.855,1.299 1.286,1.954 0.409,0.669 0.818,1.337 1.221,1.995 0.414,0.653 0.793,1.31 1.158,1.948 0.37,0.635 0.729,1.249 1.07,1.834 0.313,0.597 0.619,1.158 0.913,1.673 0.601,1.024 1,1.924 1.344,2.533 0.338,0.614 0.532,0.965 0.532,0.965 0,0 -0.092,-0.389 -0.253,-1.069 C 13.058,19.51 12.859,18.513 12.405,17.402 12.2,16.838 11.965,16.229 11.706,15.59 11.446,14.951 11.117,14.304 10.787,13.629 10.458,12.953 10.123,12.25 9.704,11.581 9.301,10.902 8.893,10.213 8.484,9.523 8.03,8.863 7.576,8.203 7.129,7.553 6.682,6.902 6.192,6.299 5.723,5.712 5.254,5.125 4.794,4.564 4.334,4.052 3.869,3.543 3.41,3.08 2.994,2.648 2.181,1.767 1.374,1.153 0.851,0.693 0.312,0.255 0,0 0,0"
             style="fill:#e0b500;fill-opacity:1;fill-rule:nonzero;stroke:none"
             id="path8775"
             inkscape:connector-curvature="0" />
        </g>
        <g
           id="g8777"
           transform="translate(88.86,154.8343)">
          <path
             d="m 0,0 c 0,0 0.285,-0.435 0.779,-1.189 0.24,-0.381 0.531,-0.842 0.864,-1.369 0.321,-0.534 0.691,-1.129 1.148,-1.749 0.436,-0.63 0.91,-1.314 1.408,-2.034 0.467,-0.739 1.074,-1.45 1.621,-2.234 0.57,-0.771 1.125,-1.585 1.753,-2.377 0.604,-0.806 1.217,-1.626 1.83,-2.446 0.622,-0.805 1.245,-1.611 1.858,-2.404 0.305,-0.397 0.608,-0.791 0.907,-1.18 0.321,-0.366 0.638,-0.727 0.95,-1.083 0.619,-0.716 1.218,-1.41 1.788,-2.069 0.649,-0.551 1.192,-1.136 1.818,-1.596 0.602,-0.47 1.152,-0.912 1.636,-1.33 0.48,-0.414 0.911,-0.754 1.202,-1.117 0.597,-0.683 0.938,-1.073 0.938,-1.073 0,0 -0.412,0.308 -1.133,0.847 -0.334,0.29 -0.819,0.55 -1.347,0.878 -0.536,0.328 -1.139,0.698 -1.795,1.1 -0.676,0.37 -1.347,0.944 -2.082,1.487 -0.65,0.617 -1.308,1.295 -1.989,1.999 -0.341,0.352 -0.688,0.71 -1.04,1.072 -0.323,0.382 -0.638,0.778 -0.955,1.177 -0.633,0.8 -1.275,1.613 -1.918,2.426 -0.604,0.834 -1.208,1.669 -1.802,2.491 -0.593,0.821 -1.122,1.678 -1.661,2.481 -0.529,0.813 -1.05,1.588 -1.475,2.373 C 2.874,-6.142 2.466,-5.404 2.09,-4.724 1.702,-4.054 1.408,-3.403 1.165,-2.818 0.92,-2.239 0.706,-1.733 0.529,-1.314 0.193,-0.481 0,0 0,0"
             style="fill:#e0b500;fill-opacity:1;fill-rule:nonzero;stroke:none"
             id="path8779"
             inkscape:connector-curvature="0" />
        </g>
        <g
           id="g8781"
           transform="translate(118.86,166.5843)">
          <path
             d="M 0,0 C 8.624,2.995 18.549,-7.98 29.661,-7.282 40.665,-6.59 44.75,3 53.25,2.75 61.75,2.5 73.253,-10.772 61.5,-24.25 49.747,-37.728 20.5,-40.258 3.75,-28.5 -8.122,-20.166 -11.949,-4.149 0,0"
             style="fill:#490808;fill-opacity:1;fill-rule:nonzero;stroke:none"
             id="path8783"
             inkscape:connector-curvature="0" />
        </g>
        <g
           id="g8785"
           transform="translate(125.36,152.8343)">
          <path
             d="M 0,0 C 0.5,-1.25 13.25,-4.753 14.75,-2.877 15.696,-1.693 16.045,3.619 16.174,7.38 11.814,8.667 7.658,10.998 3.715,12.589 2.329,8.723 -0.374,0.935 0,0"
             style="fill:#fffcc5;fill-opacity:1;fill-rule:nonzero;stroke:none"
             id="path8787"
             inkscape:connector-curvature="0" />
        </g>
        <g
           id="g8789"
           transform="translate(158.61,149.4159)">
          <path
             d="M 0,0 C 1.5,-0.332 13.25,5.25 14,6.709 14.574,7.826 9.589,14.965 7.215,18.259 3.23,16.094 -0.335,12.394 -5.633,10.719 -4.006,6.869 -1.063,0.235 0,0"
             style="fill:#fffcc5;fill-opacity:1;fill-rule:nonzero;stroke:none"
             id="path8791"
             inkscape:connector-curvature="0" />
        </g>
        <g
           id="g8793"
           transform="translate(150.36,143.8343)">
          <path
             d="m 0,0 c -9.199,-0.939 -16.283,-7.14 -19.241,-10.171 13.389,-5.011 30.343,-3.77 41.725,2.689 C 18.515,-4.679 9.26,0.945 0,0"
             style="fill:#ff9f9f;fill-opacity:1;fill-rule:nonzero;stroke:none"
             id="path8795"
             inkscape:connector-curvature="0" />
        </g>
        <g
           id="g8797"
           transform="translate(172.6556,194.6615)">
          <path
             d="m 0,0 c 0,-14.108 -11.437,-25.546 -25.546,-25.546 -14.108,0 -25.545,11.438 -25.545,25.546 0,14.108 11.437,25.546 25.545,25.546 C -11.437,25.546 0,14.108 0,0"
             style="fill:#ffffff;fill-opacity:1;fill-rule:nonzero;stroke:none"
             id="path8799"
             inkscape:connector-curvature="0" />
        </g>
        <g
           id="g8801"
           transform="translate(151.9815,202.5599)">
          <path
             d="m 0,0 c -0.07,-7.718 -6.257,-13.976 -13.976,-13.976 -7.718,0 -13.975,6.257 -13.975,13.976 0,7.718 6.257,14.039 13.975,13.976 C -6.215,13.911 0.069,7.612 0,0"
             style="fill:#1d1d1b;fill-opacity:1;fill-rule:nonzero;stroke:none"
             id="path8803"
             inkscape:connector-curvature="0" />
        </g>
      </g>
      <g
         transform="matrix(0.35277777,0,0,-0.35277777,684.16407,761.59893)"
         id="g8807"
         clip-path="url(#clipPath8811-9)">
        <g
           id="g8813"
           transform="translate(141.4892,207.806)">
          <path
             d="m 0,0 c 0,-4.821 -3.908,-8.729 -8.729,-8.729 -4.822,0 -8.73,3.908 -8.73,8.729 0,4.821 3.908,8.729 8.73,8.729 C -3.908,8.729 0,4.821 0,0"
             style="fill:#ffffff;fill-opacity:1;fill-rule:nonzero;stroke:none"
             id="path8815"
             inkscape:connector-curvature="0" />
        </g>
      </g>
      <g
         transform="matrix(0.35277777,0,0,-0.35277777,684.16407,761.59893)"
         id="g8819"
         clip-path="url(#clipPath8823-2)">
        <g
           id="g8825"
           transform="translate(101.4555,212.5825)">
          <path
             d="M 0,0 C 6.254,2.389 9.496,-15.677 2.889,-16.835 -3.718,-17.994 -7.813,-2.984 0,0"
             style="fill:#e58a00;fill-opacity:1;fill-rule:nonzero;stroke:none"
             id="path8827"
             inkscape:connector-curvature="0" />
        </g>
        <g
           id="g8829"
           transform="translate(90.5762,183.8786)">
          <path
             d="M 0,0 C 4.269,-2.077 9.406,7.32 5.519,9.409 1.633,11.497 -4.269,2.077 0,0"
             style="fill:#e58a00;fill-opacity:1;fill-rule:nonzero;stroke:none"
             id="path8831"
             inkscape:connector-curvature="0" />
        </g>
        <g
           id="g8833"
           transform="translate(115.11,216.5354)">
          <path
             d="M 0,0 C 5.265,-5.616 17.635,5.529 12.41,11.799 7.184,18.069 -6.75,7.201 0,0"
             style="fill:#e58a00;fill-opacity:1;fill-rule:nonzero;stroke:none"
             id="path8835"
             inkscape:connector-curvature="0" />
        </g>
        <g
           id="g8837"
           transform="translate(98.1018,176.8343)">
          <path
             d="M 0,0 C 7.048,0 6.263,-16.25 -2.114,-15.25 -10.492,-14.25 -8.758,0 0,0"
             style="fill:#e58a00;fill-opacity:1;fill-rule:nonzero;stroke:none"
             id="path8839"
             inkscape:connector-curvature="0" />
        </g>
        <g
           id="g8841"
           transform="translate(188.61,184.3343)">
          <path
             d="M 0,0 C 7.391,2.772 9.75,-8.75 2.75,-11 -4.25,-13.25 -6,-2.25 0,0"
             style="fill:#e58a00;fill-opacity:1;fill-rule:nonzero;stroke:none"
             id="path8843"
             inkscape:connector-curvature="0" />
        </g>
        <g
           id="g8845"
           transform="translate(179.86,218.5843)">
          <path
             d="M 0,0 C 8.165,9.285 25.5,-9.5 18.5,-17.25 11.5,-25 -7.915,-9 0,0"
             style="fill:#e58a00;fill-opacity:1;fill-rule:nonzero;stroke:none"
             id="path8847"
             inkscape:connector-curvature="0" />
        </g>
        <g
           id="g8849"
           transform="translate(204.0298,197.6889)">
          <path
             d="M 0,0 C 5.47,-1.773 5.75,-7.75 0,-8.25 -5.75,-8.75 -2.948,0.956 0,0"
             style="fill:#e58a00;fill-opacity:1;fill-rule:nonzero;stroke:none"
             id="path8851"
             inkscape:connector-curvature="0" />
        </g>
        <g
           id="g8853"
           transform="translate(161.36,230.2097)">
          <path
             d="M 0,0 C 1.236,3.595 13.718,2.125 11.484,-4.375 9.25,-10.875 -2.318,-6.739 0,0"
             style="fill:#e58a00;fill-opacity:1;fill-rule:nonzero;stroke:none"
             id="path8855"
             inkscape:connector-curvature="0" />
        </g>
      </g>
    </g>
  </g>
</svg>
